SplineFontDB: 3.0
FontName: Gemunu-Sinhala-0
FullName: Gemunu-Sinhala
FamilyName: Gemunu-Sinhala
OS2FamilyName: "AbhayaLibre"
OS2StyleName: "regular"
Weight: Regular
Copyright: Copyright (c) 1997-2015 Pushpananda Ekanayake (http://isiwara.lk), Copyright (c) 2015 mooniak (http://mooniak.com)\n
UComments: "2015-2-15: Created with FontForge (http://fontforge.org) The  Free Font Editor"
Version: 1.0
ItalicAngle: 0
UnderlinePosition: -102
UnderlineWidth: 51
Ascent: 819
Descent: 205
InvalidEm: 0
UFOAscent: 819
UFODescent: -205
LayerCount: 2
Layer: 0 0 "Back" 1
Layer: 1 0 "Fore" 0
FSType: 0
OS2Version: 0
OS2_WeightWidthSlopeOnly: 0
OS2_UseTypoMetrics: 0
CreationTime: 1440051439
ModificationTime: 1450253705
PfmFamily: 16
TTFWeight: 400
TTFWidth: 5
LineGap: 94
VLineGap: 0
OS2TypoAscent: 819
OS2TypoAOffset: 0
OS2TypoDescent: -205
OS2TypoDOffset: 0
OS2TypoLinegap: 94
OS2WinAscent: 918
OS2WinAOffset: 0
OS2WinDescent: 205
OS2WinDOffset: 0
HheadAscent: 918
HheadAOffset: 0
HheadDescent: -205
HheadDOffset: 0
OS2CapHeight: 0
OS2XHeight: 0
OS2Vendor: 'PfEd'
OS2UnicodeRanges: 00000002.00000000.00000000.00000000
Lookup: 1 0 0 "Abhaya Libre Latin-Regular-'sups' Superscript lookup 0" { "Abhaya Libre Latin-Regular-'sups' Superscript lookup 0 subtable"  } ['sups' ('DFLT' <'dflt' > ) ]
Lookup: 4 0 0 "Abhaya Libre Latin-Regular-'frac' Diagonal Fractions lookup 1" { "Abhaya Libre Latin-Regular-'frac' Diagonal Fractions lookup 1 subtable"  } ['frac' ('DFLT' <'dflt' > ) ]
Lookup: 6 0 0 "Abhaya Libre Latin-Regular-'ordn' Ordinals lookup 2" { "Abhaya Libre Latin-Regular-'ordn' Ordinals lookup 2 contextual 0"  "Abhaya Libre Latin-Regular-'ordn' Ordinals lookup 2 contextual 1"  } ['ordn' ('DFLT' <'dflt' > ) ]
Lookup: 1 0 0 "Abhaya Libre Latin-Regular-Single Substitution lookup 3" { "Abhaya Libre Latin-Regular-Single Substitution lookup 3 subtable"  } []
Lookup: 1 0 0 "Abhaya Libre Latin-Regular-Single Substitution lookup 4" { "Abhaya Libre Latin-Regular-Single Substitution lookup 4 subtable"  } []

StartChar: zwj
Encoding: 83 8205 6
GlifName: zwj
Width: 0
VWidth: 0
Flags: W
LayerCount: 2
Back
Fore
SplineSet
26.7271 655.044 m 257
 151.271 532 l 257
 124.043 505.099 l 257
 19.5 609.642 l 257
 19.5 9.5 l 257
 -19.5 9.5 l 257
 -19.5 609.642 l 257
 -124.043 505.099 l 257
 -151.271 532 l 257
 -26.7271 655.044 l 257
 -151.227 776.544 l 257
 -124.043 803.401 l 257
 -0 679.358 l 257
 124.043 803.401 l 257
 151.227 776.544 l 257
 26.7271 655.044 l 257
EndSplineSet
EndChar

StartChar: zwnj
Encoding: 82 8204 7
GlifName: zwnj
Width: 0
VWidth: 0
Flags: W
LayerCount: 2
Back
Fore
SplineSet
-19.5 9.25 m 257
 -19.5 760.75 l 257
 19.5 760.75 l 257
 19.5 9.25 l 257
 -19.5 9.25 l 257
EndSplineSet
EndChar

StartChar: si_BRa
Encoding: 320 -1 13
GlifName: si_B_R_a
Width: 515
VWidth: 0
Flags: HW
LayerCount: 2
Back
Fore
SplineSet
58.1396 -44 m 257
 86.8301 -44 l 257
 121.103 -119.333 185.857 -157 288.03 -157 c 256
 426.74 -157 537.95 -87.1421 537.95 50 c 256
 537.95 71 533.1 93 526.31 102 c 257
 542.17 133 l 257
 559.63 106.333 568.36 74.667 568.36 38 c 256
 568.36 -123.729 443.23 -219 303.55 -219 c 256
 174.54 -219 94.3525 -153.333 58.1396 -44 c 257
EndSplineSet
Refer: 466 3510 N 1 0 0 1 0 0 2
EndChar

StartChar: si_BU
Encoding: 317 -1 14
GlifName: si_B_U_
Width: 515
VWidth: 0
Flags: HW
LayerCount: 2
Back
Fore
SplineSet
49.25 -142.5 m 256
 49.25 -90.4912 95.543 -50.5 150.75 -50.5 c 256
 192.656 -50.5 230 -74.1416 244.75 -110 c 257
 214.75 -121.5 l 257
 207.732 -101.896 183.75 -80 150.75 -80 c 256
 114.046 -80 82.75 -106.714 82.75 -142.5 c 256
 82.75 -171.663 106.134 -199 171.75 -199 c 258
 532.5 -199 l 257
 532.5 128 l 257
 565.5 219 l 257
 565.5 -235 l 257
 154.75 -235 l 258
 85.5898 -235 49.25 -186.092 49.25 -142.5 c 256
EndSplineSet
Refer: 466 3510 N 1 0 0 1 0 0 2
EndChar

StartChar: si_BUu
Encoding: 318 -1 15
GlifName: si_B_U_u
Width: 515
VWidth: 0
Flags: HW
LayerCount: 2
Back
Fore
SplineSet
49.25 -138 m 256
 49.25 -80 98.25 -40 151.25 -40 c 256
 193.25 -40 225.583 -55 248.25 -91 c 257
 218.25 -102 l 257
 206.25 -83 185.25 -68 156.25 -68 c 256
 117.25 -68 85.25 -92 85.25 -129 c 256
 85.25 -166.366 116.25 -191 159.25 -191 c 256
 243.25 -191 318.25 -117 413.25 -117 c 256
 456.25 -117 505.25 -136 532.25 -168 c 257
 532.25 152 l 257
 565.25 212 l 257
 565.25 -231 l 257
 542.25 -231 l 257
 527.25 -195 484.25 -144 416.25 -144 c 256
 325.25 -144 258.25 -237 160.25 -237 c 256
 105.25 -237 49.25 -206 49.25 -138 c 256
EndSplineSet
Refer: 466 3510 N 1 0 0 1 0 0 2
EndChar

StartChar: si_CRa
Encoding: 142 -1 31
GlifName: si_C_R_a
Width: 539
VWidth: 0
Flags: HW
LayerCount: 2
Back
Fore
SplineSet
56.5 -44 m 257
 83.5 -44 l 257
 118.833 -119.333 186.167 -157 291.5 -157 c 256
 434.5 -157 548.5 -90 548.5 50 c 256
 548.5 71 542.309 98.9001 529 112 c 257
 545 140 l 257
 567.976 107.27 576.5 74.667 576.5 38 c 256
 576.5 -123.729 451.5 -219 307.5 -219 c 256
 174.5 -219 93.833 -153.333 56.5 -44 c 257
EndSplineSet
Refer: 445 3488 N 1 0 0 1 0 0 2
EndChar

StartChar: si_CUu
Encoding: 140 -1 33
GlifName: si_C_U_u
Width: 539
VWidth: 0
Flags: HW
LayerCount: 2
Back
Fore
SplineSet
70.5 -138 m 256
 70.5 -80 119.5 -40 172.5 -40 c 256
 214.5 -40 246.833 -55 269.5 -91 c 257
 239.5 -102 l 257
 227.5 -83 206.5 -68 177.5 -68 c 256
 138.5 -68 106.5 -92 106.5 -129 c 256
 106.5 -166.366 137.5 -191 180.5 -191 c 256
 264.5 -191 328 -117 423 -117 c 256
 470.594 -117 506 -136 533 -168 c 257
 533 152 l 257
 566 212 l 257
 566 -231 l 257
 543 -231 l 257
 528 -195 490.875 -144 426 -144 c 256
 335 -144 279.5 -237 181.5 -237 c 256
 126.5 -237 70.5 -206 70.5 -138 c 256
EndSplineSet
Refer: 445 3488 N 1 0 0 1 0 0 2
EndChar

StartChar: si_Ca.reph
Encoding: 141 -1 34
GlifName: si_C_a.reph
Width: 539
VWidth: 0
Flags: HW
LayerCount: 2
Back
Fore
SplineSet
273.586 627.5 m 256
 273.586 606.946 292.184 590.307 314.5 590.307 c 256
 336.816 590.307 355.414 606.946 355.414 627.5 c 256
 355.414 648.054 336.816 664.693 314.5 664.693 c 256
 292.184 664.693 273.586 648.054 273.586 627.5 c 256
171.5 646.5 m 256
 171.5 710.5 229.62 747.5 311.5 747.5 c 256
 388.5 747.5 452.5 704.5 452.5 633.5 c 256
 452.5 609.5 444.167 587.833 427.5 568.5 c 257
 393.75 568.5 l 257
 406.92 580.887 422.25 605.234 422.25 632.5 c 256
 422.25 689.741 371.5 720.25 310.5 720.25 c 256
 257.722 720.25 202.75 699.056 202.75 646.5 c 256
 202.75 607.425 243.804 588.716 267 586.75 c 257
 259 592.75 246.5 607.5 246.5 628.5 c 256
 246.5 663.5 277.854 688.5 313.5 688.5 c 256
 354.5 688.5 382.5 661.5 382.5 626.5 c 256
 382.5 587.5 347.5 561.5 289.5 561.5 c 256
 230.5 561.5 171.5 590.5 171.5 646.5 c 256
EndSplineSet
Refer: 445 3488 N 1 0 0 1 0 0 2
EndChar

StartChar: si_D.halant
Encoding: 254 -1 40
GlifName: si_D_.halant
Width: 460
VWidth: 0
Flags: HW
LayerCount: 2
Back
Fore
SplineSet
264.5 412.75 m 257
 264.5 680 l 257
 318.5 638 414.5 633 414.5 541 c 256
 414.5 497 379.691 467 336.5 467 c 256
 321.833 467 306.833 470.333 291.5 477 c 257
 291.5 395.75 l 257
 264.5 412.75 l 257
291.5 502 m 257
 300.167 497.333 311.167 495 324.5 495 c 256
 362.5 495 377.5 520 377.5 544 c 256
 377.5 586 338.5 606 291.5 637 c 257
 291.5 502 l 257
EndSplineSet
Refer: 460 3503 N 1 0 0 1 0 0 2
EndChar

StartChar: si_DI
Encoding: 258 -1 51
GlifName: si_D_I_
Width: 460
VWidth: 0
Flags: HW
LayerCount: 2
Back
Fore
SplineSet
35.0801 518 m 256
 35.0801 618.565 126.303 671 223 671 c 256
 319.697 671 410.92 617.064 410.92 518 c 256
 410.92 443.457 347.584 406.19 295.09 405 c 257
 283.09 426 l 257
 337.176 426.005 380.63 461.523 380.63 509 c 256
 380.63 570.685 295.016 598 223 598 c 256
 150.984 598 66.1201 573.424 66.1201 509 c 256
 66.1201 460.729 108.769 425 194 425 c 257
 150.91 405 l 257
 84.9511 414.727 35.0801 450.955 35.0801 518 c 256
EndSplineSet
Refer: 460 3503 N 1 0 0 1 0 0 2
EndChar

StartChar: si_DIi
Encoding: 259 -1 52
GlifName: si_D_I_i
Width: 460
VWidth: 0
Flags: HW
LayerCount: 2
Back
Fore
SplineSet
246.75 514 m 256
 246.75 483 276.75 458 312.75 458 c 256
 348.75 458 378.75 483 378.75 514 c 256
 378.75 545 348.75 570 312.75 570 c 256
 276.75 570 246.75 545 246.75 514 c 256
35.0801 518 m 256
 35.0801 618.565 126.303 671 223 671 c 256
 319.697 671 410.92 614.322 410.92 522.75 c 256
 410.92 463.267 363.464 429 312.25 429 c 256
 252.575 429 214.75 470 214.75 515 c 256
 214.75 560 251.217 587.258 278 592 c 257
 267 595 236.609 598 223 598 c 256
 150.984 598 66.1201 573.424 66.1201 509 c 256
 66.1201 460.729 108.769 425 194 425 c 257
 150.91 405 l 257
 84.9511 414.727 35.0801 450.955 35.0801 518 c 256
EndSplineSet
Refer: 460 3503 N 1 0 0 1 0 0 2
EndChar

StartChar: si_Da.reph
Encoding: 265 -1 69
GlifName: si_D_a.reph
Width: 460
VWidth: 0
Flags: HW
LayerCount: 2
Back
Fore
SplineSet
198.586 511 m 256
 198.586 490.446 217.184 473.807 239.5 473.807 c 256
 261.816 473.807 280.414 490.446 280.414 511 c 256
 280.414 531.554 261.816 548.193 239.5 548.193 c 256
 217.184 548.193 198.586 531.554 198.586 511 c 256
96.5 530 m 256
 96.5 594 154.62 631 236.5 631 c 256
 313.5 631 377.5 588 377.5 517 c 256
 377.5 493 369.167 471.333 352.5 452 c 257
 318.75 452 l 257
 331.92 464.387 347.25 488.734 347.25 516 c 256
 347.25 573.241 296.5 603.75 235.5 603.75 c 256
 182.722 603.75 127.75 582.556 127.75 530 c 256
 127.75 490.925 168.804 472.216 192 470.25 c 257
 184 476.25 171.5 491 171.5 512 c 256
 171.5 547 202.854 572 238.5 572 c 256
 279.5 572 307.5 545 307.5 510 c 256
 307.5 471 272.5 445 214.5 445 c 256
 155.5 445 96.5 474 96.5 530 c 256
EndSplineSet
Refer: 460 3503 N 1 0 0 1 0 0 2
EndChar

StartChar: si_DdRa
Encoding: 220 -1 75
GlifName: si_D_dR_a
Width: 513
VWidth: 0
Flags: HW
LayerCount: 2
Back
Fore
SplineSet
56 -44 m 257
 83 -44 l 257
 118.333 -119.333 187.667 -157 293 -157 c 256
 436 -157 554 -90 554 50 c 256
 554 71 549 93 542 102 c 257
 555 133 l 257
 573 106.333 582 74.667 582 38 c 256
 582 -123.729 453 -219 309 -219 c 256
 176 -219 93.333 -153.333 56 -44 c 257
EndSplineSet
Refer: 454 3497 N 1 0 0 1 0 0 2
EndChar

StartChar: si_DdUu
Encoding: 218 -1 77
GlifName: si_D_dU_u
Width: 513
VWidth: 0
Flags: HW
LayerCount: 2
Back
Fore
SplineSet
51 -138 m 256
 51 -80 100 -40 153 -40 c 256
 195 -40 227.333 -55 250 -91 c 257
 220 -102 l 257
 208 -83 187 -68 158 -68 c 256
 119 -68 87 -92 87 -129 c 256
 87 -166.366 118 -191 161 -191 c 256
 245 -191 331.5 -117 426.5 -117 c 256
 476.541 -117 526 -136 553 -168 c 257
 553 152 l 257
 586 212 l 257
 586 -231 l 257
 563 -231 l 257
 543.468 -192.515 500.934 -145 429.5 -145 c 256
 338.5 -145 260 -237 162 -237 c 256
 107 -237 51 -206 51 -138 c 256
EndSplineSet
Refer: 454 3497 N 1 0 0 1 0 0 2
EndChar

StartChar: si_Dda.reph
Encoding: 219 -1 78
GlifName: si_D_da.reph
Width: 513
VWidth: 0
Flags: HW
LayerCount: 2
Back
Fore
SplineSet
277.336 622 m 256
 277.336 601.446 295.934 584.807 318.25 584.807 c 256
 340.566 584.807 359.164 601.446 359.164 622 c 256
 359.164 642.554 340.566 659.193 318.25 659.193 c 256
 295.934 659.193 277.336 642.554 277.336 622 c 256
175.25 641 m 256
 175.25 705 233.37 742 315.25 742 c 256
 392.25 742 456.25 699 456.25 628 c 256
 456.25 604 447.917 582.333 431.25 563 c 257
 397.5 563 l 257
 410.67 575.387 426 599.734 426 627 c 256
 426 684.241 375.25 714.75 314.25 714.75 c 256
 261.472 714.75 206.5 693.556 206.5 641 c 256
 206.5 601.925 247.554 583.216 270.75 581.25 c 257
 262.75 587.25 250.25 602 250.25 623 c 256
 250.25 658 281.604 683 317.25 683 c 256
 358.25 683 386.25 656 386.25 621 c 256
 386.25 582 351.25 556 293.25 556 c 256
 234.25 556 175.25 585 175.25 641 c 256
EndSplineSet
Refer: 454 3497 N 1 0 0 1 0 0 2
EndChar

StartChar: si_DhRa
Encoding: 280 -1 89
GlifName: si_D_hR_a
Width: 515
VWidth: 0
Flags: HW
LayerCount: 2
Back
Fore
SplineSet
56 -44 m 257
 83 -44 l 257
 118.333 -119.333 187.667 -157 293 -157 c 256
 436 -157 554 -90 554 50 c 256
 554 71 549 93 542 102 c 257
 555 133 l 257
 573 106.333 582 74.667 582 38 c 256
 582 -123.729 453 -219 309 -219 c 256
 176 -219 93.333 -153.333 56 -44 c 257
EndSplineSet
Refer: 461 3504 N 1 0 0 1 0 0 2
EndChar

StartChar: si_DhUu
Encoding: 278 -1 91
GlifName: si_D_hU_u
Width: 515
VWidth: 0
Flags: HW
LayerCount: 2
Back
Fore
SplineSet
51 -138 m 256
 51 -80 100 -40 153 -40 c 256
 195 -40 227.333 -55 250 -91 c 257
 220 -102 l 257
 208 -83 187 -68 158 -68 c 256
 119 -68 87 -92 87 -129 c 256
 87 -166.366 118 -191 161 -191 c 256
 245 -191 328 -117 423 -117 c 256
 466 -117 515 -136 542 -168 c 257
 542 152 l 257
 575 212 l 257
 575 -231 l 257
 552 -231 l 257
 537 -195 494 -144 426 -144 c 256
 335 -144 260 -237 162 -237 c 256
 107 -237 51 -206 51 -138 c 256
EndSplineSet
Refer: 461 3504 N 1 0 0 1 0 0 2
EndChar

StartChar: si_Dha.reph
Encoding: 279 -1 92
GlifName: si_D_ha.reph
Width: 515
VWidth: 0
Flags: HW
LayerCount: 2
Back
Fore
SplineSet
273.586 622 m 256
 273.586 642.554 292.184 659.193 314.5 659.193 c 256
 336.816 659.193 355.414 642.554 355.414 622 c 256
 355.414 601.446 336.816 584.807 314.5 584.807 c 256
 292.184 584.807 273.586 601.446 273.586 622 c 256
171.5 641 m 256
 171.5 585 230.5 556 289.5 556 c 256
 347.5 556 382.5 582 382.5 621 c 256
 382.5 656 354.5 683 313.5 683 c 256
 277.854 683 246.5 658 246.5 623 c 256
 246.5 602 259 587.25 267 581.25 c 257
 243.804 583.216 202.75 601.925 202.75 641 c 256
 202.75 693.556 257.722 714.75 310.5 714.75 c 256
 371.5 714.75 422.25 684.241 422.25 627 c 256
 422.25 599.734 406.92 575.387 393.75 563 c 257
 427.5 563 l 257
 444.167 582.333 452.5 604 452.5 628 c 256
 452.5 699 388.5 742 311.5 742 c 256
 229.62 742 171.5 705 171.5 641 c 256
EndSplineSet
Refer: 461 3504 N 1 0 0 1 0 0 2
EndChar

StartChar: si_DvocR
Encoding: 262 -1 93
GlifName: si_D_vocR_
Width: 703
VWidth: 0
Flags: HW
LayerCount: 2
Back
Fore
SplineSet
425.882 249 m 256
 425.882 329 462.009 393 536 393 c 256
 622.896 393 657 298 657 203 c 256
 657 144 640 52.4365 640 23 c 256
 640 15.667 640.333 9 641 3 c 257
 611 3 l 257
 608.333 12.333 603.333 17 596 17 c 256
 583.847 17 558 -1 524 -1 c 256
 465 -1 426 49.2598 426 106 c 256
 426 153.333 448 186.333 492 205 c 256
 518 216.333 559 222 596 222 c 257
 596 312 569 358 526 358 c 256
 474.285 358 450.953 308 450.953 246 c 256
 450.953 244.333 450.964 243.666 451 242 c 257
 426 242 l 257
 425.918 244.678 425.882 246.345 425.882 249 c 256
456 107 m 256
 456 64.6504 484.819 28 526 28 c 256
 552 28 579.26 43 589 43 c 256
 592.333 43 595.333 42 598 40 c 257
 596 53.333 595 78.833 595 116.5 c 256
 595 147.879 596.157 168 596.157 186 c 256
 596.157 188.996 596.111 192.663 596 195 c 257
 581 195 545 194 516 185 c 256
 480.315 173.926 456 150.545 456 107 c 256
EndSplineSet
Refer: 460 3503 N 1 0 0 1 0 0 2
EndChar

StartChar: si_DvocRr
Encoding: 263 -1 94
GlifName: si_D_vocR_r
Width: 962
VWidth: 0
Flags: HW
LayerCount: 2
Back
Fore
SplineSet
681.882 249 m 256
 681.882 329 718.009 393 792 393 c 256
 878.896 393 913 298 913 203 c 256
 913 144 896 52.4365 896 23 c 256
 896 15.667 896.333 9 897 3 c 257
 867 3 l 257
 864.333 12.333 859.333 17 852 17 c 256
 839.847 17 814 -1 780 -1 c 256
 721 -1 682 49.2598 682 106 c 256
 682 153.333 704 186.333 748 205 c 256
 774 216.333 815 222 852 222 c 257
 852 312 825 358 782 358 c 256
 730.285 358 706.953 308 706.953 246 c 256
 706.953 244.333 706.964 243.666 707 242 c 257
 682 242 l 257
 681.918 244.678 681.882 246.345 681.882 249 c 256
712 107 m 256
 712 64.6504 740.819 28 782 28 c 256
 808 28 835.26 43 845 43 c 256
 848.333 43 851.333 42 854 40 c 257
 852 53.333 851 78.833 851 116.5 c 256
 851 147.879 852.157 168 852.157 186 c 256
 852.157 188.996 852.111 192.663 852 195 c 257
 837 195 801 194 772 185 c 256
 736.315 173.926 712 150.545 712 107 c 256
425.882 249 m 256
 425.882 329 462.009 393 536 393 c 256
 622.896 393 657 298 657 203 c 256
 657 144 640 52.4365 640 23 c 256
 640 15.667 640.333 9 641 3 c 257
 611 3 l 257
 608.333 12.333 603.333 17 596 17 c 256
 583.847 17 558 -1 524 -1 c 256
 465 -1 426 49.2598 426 106 c 256
 426 153.333 448 186.333 492 205 c 256
 518 216.333 559 222 596 222 c 257
 596 312 569 358 526 358 c 256
 474.285 358 450.953 308 450.953 246 c 256
 450.953 244.333 450.964 243.666 451 242 c 257
 426 242 l 257
 425.918 244.678 425.882 246.345 425.882 249 c 256
456 107 m 256
 456 64.6504 484.819 28 526 28 c 256
 552 28 579.26 43 589 43 c 256
 592.333 43 595.333 42 598 40 c 257
 596 53.333 595 78.833 595 116.5 c 256
 595 147.879 596.157 168 596.157 186 c 256
 596.157 188.996 596.111 192.663 596 195 c 257
 581 195 545 194 516 185 c 256
 480.315 173.926 456 150.545 456 107 c 256
EndSplineSet
Refer: 460 3503 N 1 0 0 1 0 0 2
EndChar

StartChar: si_GRIi
Encoding: 118 -1 110
GlifName: si_G_R_I_i
Width: 636
VWidth: 0
Flags: HW
LayerCount: 2
Back
Fore
SplineSet
56 -44 m 257
 83 -44 l 257
 118.333 -119.333 187.667 -157 293 -157 c 256
 436 -157 554 -90 554 50 c 256
 554 71 549 93 542 102 c 257
 555 133 l 257
 573 106.333 582 74.667 582 38 c 256
 582 -123.729 453 -219 309 -219 c 256
 176 -219 93.333 -153.333 56 -44 c 257
EndSplineSet
Refer: 107 -1 N 1 0 0 1 0 0 2
EndChar

StartChar: si_Gh.halant
Encoding: 119 -1 115
GlifName: si_G_h.halant
Width: 576
VWidth: 0
Flags: HW
LayerCount: 2
Back
Fore
SplineSet
478 413 m 257
 478 680 l 257
 532 638 628 633 628 541 c 256
 628 497 593.191 467 550 467 c 256
 535.333 467 520.333 470.333 505 477 c 257
 505 396 l 257
 478 413 l 257
505 502 m 257
 513.667 497.333 524.667 495 538 495 c 256
 576 495 591 520 591 544 c 256
 591 586 552 606 505 637 c 257
 505 502 l 257
EndSplineSet
Refer: 442 3485 N 1 0 0 1 0 0 2
EndChar

StartChar: si_GhI
Encoding: 120 -1 116
GlifName: si_G_hI_
Width: 576
VWidth: 0
Flags: HW
LayerCount: 2
Back
Fore
SplineSet
102.5 517 m 256
 102.5 625.291 215.121 670 334.5 670 c 256
 453.879 670 566.5 625.291 566.5 517 c 256
 566.5 442.457 500.357 407.074 423.5 404 c 257
 452 430 l 257
 476.387 432.386 532.5 453 532.5 508 c 256
 532.5 579.089 423.408 597 334.5 597 c 256
 245.592 597 136.5 579.089 136.5 508 c 256
 136.5 453 190.272 433.937 216 429 c 257
 245.5 404 l 257
 168.643 407.074 102.5 442.457 102.5 517 c 256
EndSplineSet
Refer: 442 3485 N 1 0 0 1 0 0 2
EndChar

StartChar: si_GhIi
Encoding: 121 -1 117
GlifName: si_G_hI_i
Width: 576
VWidth: 0
Flags: HW
LayerCount: 2
Back
Fore
SplineSet
422.5 514 m 256
 422.5 483 452.5 458 488.5 458 c 256
 524.5 458 554.5 483 554.5 514 c 256
 554.5 545 524.5 570 488.5 570 c 256
 452.5 570 422.5 545 422.5 514 c 256
85.5 517 m 256
 85.5 624.211 209.446 671 336.5 671 c 256
 453.214 671 589.5 627.399 589.5 524 c 256
 589.5 468.769 544.777 429 488.5 429 c 256
 430.5 429 390.5 470 390.5 515 c 256
 390.5 560 422.5 582 441.5 591 c 257
 430.5 594 391.5 600 337.5 600 c 256
 243.336 600 122.5 578 122.5 499 c 256
 122.5 460.333 144.5 435 182.5 426 c 257
 175.5 406 l 257
 122.255 410.733 85.5 456 85.5 517 c 256
EndSplineSet
Refer: 442 3485 N 1 0 0 1 0 0 2
EndChar

StartChar: si_GhRI
Encoding: 125 -1 118
GlifName: si_G_hR_I_
Width: 677
VWidth: 0
Flags: HW
LayerCount: 2
Back
Fore
SplineSet
63.5 -44 m 257
 90.5 -44 l 257
 125.833 -119.333 211.667 -157 317 -157 c 256
 460 -157 601.5 -90 601.5 50 c 256
 601.5 71 596.5 93 589.5 102 c 257
 600.5 133 l 257
 618.5 106.333 627.5 74.667 627.5 38 c 256
 627.5 -123.729 484 -219 333 -219 c 256
 192 -219 100.833 -153.333 63.5 -44 c 257
EndSplineSet
Refer: 116 -1 N 1 0 0 1 0 0 2
EndChar

StartChar: si_GhRIi
Encoding: 126 -1 119
GlifName: si_G_hR_I_i
Width: 677
VWidth: 0
Flags: HW
LayerCount: 2
Back
Fore
SplineSet
63.5 -44 m 257
 90.5 -44 l 257
 125.833 -119.333 211.667 -157 317 -157 c 256
 460 -157 601.5 -90 601.5 50 c 256
 601.5 71 596.5 93 589.5 102 c 257
 600.5 133 l 257
 618.5 106.333 627.5 74.667 627.5 38 c 256
 627.5 -123.729 484 -219 333 -219 c 256
 192 -219 100.833 -153.333 63.5 -44 c 257
EndSplineSet
Refer: 117 -1 N 1 0 0 1 0 0 2
EndChar

StartChar: si_GhRa
Encoding: 127 -1 120
GlifName: si_G_hR_a
Width: 576
VWidth: 0
Flags: HW
LayerCount: 2
Back
Fore
SplineSet
63.5 -44 m 257
 90.5 -44 l 257
 125.833 -119.333 211.667 -157 317 -157 c 256
 460 -157 601.5 -90 601.5 50 c 256
 601.5 71 596.5 93 589.5 102 c 257
 600.5 133 l 257
 618.5 106.333 627.5 74.667 627.5 38 c 256
 627.5 -123.729 484 -219 333 -219 c 256
 192 -219 100.833 -153.333 63.5 -44 c 257
EndSplineSet
Refer: 442 3485 N 1 0 0 1 0 0 2
EndChar

StartChar: si_GhU
Encoding: 122 -1 121
GlifName: si_G_hU_
Width: 576
VWidth: 0
Flags: HW
LayerCount: 2
Back
Fore
SplineSet
66.5 -142.5 m 256
 66.5 -90.4912 112.793 -50.5 168 -50.5 c 256
 209.906 -50.5 247.25 -74.1416 262 -110 c 257
 232 -121.5 l 257
 224.982 -101.896 201 -80 168 -80 c 256
 131.296 -80 100 -106.714 100 -142.5 c 256
 100 -171.663 123.384 -199 189 -199 c 258
 583 -199 l 257
 583 128 l 257
 616 219 l 257
 616 -235 l 257
 172 -235 l 258
 102.84 -235 66.5 -186.092 66.5 -142.5 c 256
EndSplineSet
Refer: 442 3485 N 1 0 0 1 0 0 2
EndChar

StartChar: si_GhUu
Encoding: 123 -1 122
GlifName: si_G_hU_u
Width: 576
VWidth: 0
Flags: HW
LayerCount: 2
Back
Fore
SplineSet
67.5 -138 m 256
 67.5 -80 116.5 -40 169.5 -40 c 256
 211.5 -40 243.833 -55 266.5 -91 c 257
 236.5 -102 l 257
 224.5 -83 203.5 -68 174.5 -68 c 256
 135.5 -68 103.5 -92 103.5 -129 c 256
 103.5 -166.366 134.5 -191 177.5 -191 c 256
 261.5 -191 360 -117 455 -117 c 256
 498 -117 556.5 -136 583.5 -168 c 257
 583.5 121.5 l 257
 616.5 212 l 257
 616.5 -231 l 257
 593.5 -231 l 257
 578.5 -195 526 -144 458 -144 c 256
 367 -144 276.5 -237 178.5 -237 c 256
 123.5 -237 67.5 -206 67.5 -138 c 256
EndSplineSet
Refer: 442 3485 N 1 0 0 1 0 0 2
EndChar

StartChar: si_Gha.reph
Encoding: 124 -1 123
GlifName: si_G_ha.reph
Width: 576
VWidth: 0
Flags: HW
LayerCount: 2
Back
Fore
SplineSet
296.086 491 m 256
 296.086 470.446 314.684 453.807 337 453.807 c 256
 359.316 453.807 377.914 470.446 377.914 491 c 256
 377.914 511.554 359.316 528.193 337 528.193 c 256
 314.684 528.193 296.086 511.554 296.086 491 c 256
194 510 m 256
 194 574 252.12 611 334 611 c 256
 411 611 475 568 475 497 c 256
 475 473 466.667 451.333 450 432 c 257
 416.25 432 l 257
 429.42 444.387 444.75 468.734 444.75 496 c 256
 444.75 553.241 394 583.75 333 583.75 c 256
 280.222 583.75 225.25 562.556 225.25 510 c 256
 225.25 470.925 266.304 452.216 289.5 450.25 c 257
 281.5 456.25 269 471 269 492 c 256
 269 527 300.354 552 336 552 c 256
 377 552 405 525 405 490 c 256
 405 451 370 425 312 425 c 256
 253 425 194 454 194 510 c 256
EndSplineSet
Refer: 442 3485 N 1 0 0 1 0 0 2
EndChar

StartChar: si_H.halant
Encoding: 407 -1 124
GlifName: si_H_.halant
Width: 590
VWidth: 0
Flags: HW
LayerCount: 2
Back
Fore
SplineSet
453 387 m 257
 453 681 l 257
 507 639 603 634 603 542 c 256
 603 498 568.191 468 525 468 c 256
 510.333 468 495.333 471.333 480 478 c 257
 480 370 l 257
 453 387 l 257
480 503 m 257
 488.667 498.333 499.667 496 513 496 c 256
 551 496 566 521 566 545 c 256
 566 587 527 607 480 638 c 257
 480 503 l 257
EndSplineSet
Refer: 477 3524 N 1 0 0 1 0 0 2
EndChar

StartChar: si_HI
Encoding: 408 -1 125
GlifName: si_H_I_
Width: 590
VWidth: 0
Flags: HW
LayerCount: 2
Back
Fore
SplineSet
150 537 m 256
 150 628 248.984 667 351 667 c 256
 456.344 667 559 618 559 523 c 256
 559 461 520 415 439 409 c 257
 421 431 l 257
 423.693 430.868 426.361 430.806 429 430.806 c 256
 487 430.806 530 462.296 530 512 c 256
 530 576.843 430.674 598 351 598 c 256
 269.527 598 191 568 191 516 c 256
 191 455.697 325 431.5 411 431.492 c 256
 412.006 431.492 412.006 431.494 413 431.5 c 257
 397 412 l 257
 237 415.333 150 462 150 537 c 256
EndSplineSet
Refer: 477 3524 N 1 0 0 1 0 0 2
EndChar

StartChar: si_HIi
Encoding: 409 -1 126
GlifName: si_H_I_i
Width: 590
VWidth: 0
Flags: HW
LayerCount: 2
Back
Fore
SplineSet
389.4 520 m 256
 389.4 485.057 420.778 456.532 460 456.532 c 256
 499.222 456.532 530.6 485.057 530.6 520 c 256
 530.6 554.943 499.222 583.468 460 583.468 c 256
 420.778 583.468 389.4 554.943 389.4 520 c 256
150 537 m 256
 150 628 248.984 667 351 667 c 256
 456.344 667 559 618 559 525 c 256
 559 456 501 431 458 431 c 256
 414 431 361 464 361 519 c 256
 361 564.604 395 591 411 593.824 c 257
 389 597 374.639 598 351 598 c 256
 269.527 598 191 568 191 516 c 256
 191 455.697 325 431.5 411 431.492 c 256
 412.006 431.492 412.006 431.494 413 431.5 c 257
 397 412 l 257
 237 415.333 150 462 150 537 c 256
EndSplineSet
Refer: 477 3524 N 1 0 0 1 0 0 2
EndChar

StartChar: si_HRIi
Encoding: 414 -1 127
GlifName: si_H_R_I_i
Width: 590
VWidth: 0
Flags: HW
LayerCount: 2
Back
Fore
SplineSet
389.4 520 m 256
 389.4 485.057 420.778 456.532 460 456.532 c 256
 499.222 456.532 530.6 485.057 530.6 520 c 256
 530.6 554.943 499.222 583.468 460 583.468 c 256
 420.778 583.468 389.4 554.943 389.4 520 c 256
150 537 m 256
 150 628 248.984 667 351 667 c 256
 456.344 667 559 618 559 525 c 256
 559 456 501 431 458 431 c 256
 414 431 361 464 361 519 c 256
 361 564.604 395 591 411 593.824 c 257
 389 597 374.639 598 351 598 c 256
 269.527 598 191 568 191 516 c 256
 191 455.697 325 431.5 411 431.492 c 256
 412.006 431.492 412.006 431.494 413 431.5 c 257
 397 412 l 257
 237 415.333 150 462 150 537 c 256
61.1104 -44 m 257
 88.1699 -44 l 257
 124.563 -119.333 196.727 -157 305.22 -157 c 256
 452.51 -157 575.05 -90 575.05 50 c 256
 575.05 71 568.9 93 561.69 102 c 257
 575.08 133 l 257
 593.62 106.333 602.89 74.667 602.89 38 c 256
 602.89 -123.729 470.02 -219 321.7 -219 c 256
 184.71 -219 99.5635 -153.333 61.1104 -44 c 257
EndSplineSet
Refer: 477 3524 N 1 0 0 1 0 0 2
EndChar

StartChar: si_HRa
Encoding: 413 -1 128
GlifName: si_H_R_a
Width: 590
VWidth: 0
Flags: HW
LayerCount: 2
Back
Fore
SplineSet
61.1104 -44 m 257
 88.1699 -44 l 257
 124.563 -119.333 196.727 -157 305.22 -157 c 256
 452.51 -157 575.05 -90 575.05 50 c 256
 575.05 71 568.9 93 561.69 102 c 257
 575.08 133 l 257
 593.62 106.333 602.89 74.667 602.89 38 c 256
 602.89 -123.729 470.02 -219 321.7 -219 c 256
 184.71 -219 99.5635 -153.333 61.1104 -44 c 257
EndSplineSet
Refer: 477 3524 N 1 0 0 1 0 0 2
EndChar

StartChar: si_HU
Encoding: 410 -1 129
GlifName: si_H_U_
Width: 590
VWidth: 0
Flags: HW
LayerCount: 2
Back
Fore
SplineSet
537.999023438 -159 m 1
 24.796875 -159 l 1
 24.796875 -126.904296875 l 1
 500.911132812 -126.904296875 l 1
 500.911132812 35.8076171875 l 1
 505.911132812 35.8076171875 l 2
 514.373046875 35.8076171875 532.666015625 45.8076171875 537.999023438 71.8076171875 c 1
 537.999023438 -159 l 1
EndSplineSet
Refer: 477 3524 N 1 0 0 1 0 0 2
EndChar

StartChar: si_HUu
Encoding: 411 -1 130
GlifName: si_H_U_u
Width: 590
VWidth: 0
Flags: HW
LayerCount: 2
Back
Fore
SplineSet
45 -138 m 256
 45 -80 94 -40 147 -40 c 256
 189 -40 221.333 -55 244 -91 c 257
 214 -102 l 257
 202 -83 181 -68 152 -68 c 256
 113 -68 81 -92 81 -129 c 256
 81 -166.366 118.5 -191 161.5 -191 c 256
 267.154 -191 351 -117 446 -117 c 256
 489 -117 538 -136 565 -168 c 257
 565 152 l 257
 598 212 l 257
 598 -231 l 257
 575 -231 l 257
 560 -195 517 -144 449 -144 c 256
 358 -144 280.999 -237 162.5 -237 c 256
 107.5 -237 45 -206 45 -138 c 256
EndSplineSet
Refer: 477 3524 N 1 0 0 1 0 0 2
EndChar

StartChar: si_Ha.reph
Encoding: 412 -1 131
GlifName: si_H_a.reph
Width: 590
VWidth: 0
Flags: HW
LayerCount: 2
Back
Fore
SplineSet
270.336 511 m 256
 270.336 490.446 288.934 473.807 311.25 473.807 c 256
 333.566 473.807 352.164 490.446 352.164 511 c 256
 352.164 531.554 333.566 548.193 311.25 548.193 c 256
 288.934 548.193 270.336 531.554 270.336 511 c 256
168.25 530 m 256
 168.25 594 226.37 631 308.25 631 c 256
 385.25 631 449.25 588 449.25 517 c 256
 449.25 493 440.917 471.333 424.25 452 c 257
 390.5 452 l 257
 403.67 464.387 419 488.734 419 516 c 256
 419 573.241 368.25 603.75 307.25 603.75 c 256
 254.472 603.75 199.5 582.556 199.5 530 c 256
 199.5 490.925 240.554 472.216 263.75 470.25 c 257
 255.75 476.25 243.25 491 243.25 512 c 256
 243.25 547 274.604 572 310.25 572 c 256
 351.25 572 379.25 545 379.25 510 c 256
 379.25 471 344.25 445 286.25 445 c 256
 227.25 445 168.25 474 168.25 530 c 256
EndSplineSet
Refer: 477 3524 N 1 0 0 1 0 0 2
EndChar

StartChar: si_J.halant
Encoding: 150 -1 132
GlifName: si_J_.halant
Width: 512
VWidth: 0
Flags: HW
LayerCount: 2
Back
Fore
SplineSet
300 356 m 257
 300 756.5 l 257
 357.218 709.157 447 704.481 447 626.5 c 256
 447 580.716 412.638 549.5 370 549.5 c 256
 355.659 549.5 340.992 551.833 326 556.5 c 257
 326 400 l 257
 300 356 l 257
326.105 580.773 m 257
 335.913 576.866 348.362 574.913 363.448 574.913 c 256
 396.157 574.913 410 598.905 410 621.938 c 256
 410 671.65 362.718 687.036 326.105 712.087 c 257
 326.105 580.773 l 257
EndSplineSet
Refer: 447 3490 N 1 0 0 1 0 0 2
EndChar

StartChar: si_JI
Encoding: 151 -1 133
GlifName: si_J_I_
Width: 512
VWidth: 0
Flags: HW
LayerCount: 2
Back
Fore
SplineSet
233 489.5 m 256
 233 576.568 303.321 657 382 657 c 256
 428.882 657 460.703 626.416 460.705 583 c 256
 460.705 579.106 460.496 576.102 460 572 c 257
 459.982 571.995 430 544.016 430 544 c 257
 433.999 550.487 436.181 564.622 436.181 575.5 c 256
 436.181 604.328 424.158 622 393 622 c 256
 335.62 622 276.5 550.291 276.5 486 c 256
 276.5 454.192 290.994 429.027 332 429.026 c 256
 345.842 429.026 357.154 431.185 374 436 c 257
 373.999 435.978 370.001 425.001 370 425 c 257
 357.178 416.842 329.23 407.635 327 407 c 257
 325.947 406.999 324.051 406.952 323 406.952 c 256
 260.125 406.952 233 439.49 233 489.5 c 256
EndSplineSet
Refer: 447 3490 N 1 0 0 1 0 0 2
EndChar

StartChar: si_JIi
Encoding: 152 -1 134
GlifName: si_J_I_i
Width: 512
VWidth: 0
Flags: HW
LayerCount: 2
Back
Fore
SplineSet
337.721 579 m 256
 337.721 551.832 359.332 530.221 386.5 530.221 c 256
 413.668 530.221 435.279 551.832 435.279 579 c 256
 435.279 606.168 413.668 627.779 386.5 627.779 c 256
 359.332 627.779 337.721 606.168 337.721 579 c 256
233 489.5 m 256
 233 576.568 303.261 656.5 386.75 656.5 c 256
 431.64 656.5 463.955 619.452 463.955 579 c 256
 463.955 540.549 433.976 501.5 386.75 501.5 c 256
 339.065 501.5 311.635 539.847 311.635 574.25 c 256
 311.635 574.75 311.712 576 311.75 576.75 c 257
 293.181 551.954 276.5 519.777 276.5 486 c 256
 276.5 454.192 290.994 429.027 332 429.026 c 256
 345.842 429.026 357.154 431.185 374 436 c 257
 373.999 435.978 370.001 425.001 370 425 c 257
 357.178 416.842 329.23 407.635 327 407 c 257
 325.947 406.999 324.051 406.952 323 406.952 c 256
 260.125 406.952 233 439.49 233 489.5 c 256
EndSplineSet
Refer: 447 3490 N 1 0 0 1 0 0 2
EndChar

StartChar: si_JRI
Encoding: 157 -1 135
GlifName: si_J_R_I_
Width: 512
VWidth: 0
Flags: HW
LayerCount: 2
Back
Fore
SplineSet
40.5 -44 m 257
 67.5 -44 l 257
 102.833 -119.333 167.917 -157 273.25 -157 c 256
 416.25 -157 523 -90 523 50 c 256
 523 71 516.809 98.9004 503.5 112 c 257
 519.5 140 l 257
 542.477 107.27 551 74.667 551 38 c 256
 551 -123.729 433.25 -219 289.25 -219 c 256
 156.25 -219 77.833 -153.333 40.5 -44 c 257
233 489.5 m 256
 233 576.568 303.321 657 382 657 c 256
 428.882 657 460.703 626.416 460.705 583 c 256
 460.705 579.106 460.496 576.102 460 572 c 257
 459.982 571.995 430 544.016 430 544 c 257
 433.999 550.487 436.181 564.622 436.181 575.5 c 256
 436.181 604.328 424.158 622 393 622 c 256
 335.62 622 276.5 550.291 276.5 486 c 256
 276.5 454.192 290.994 429.027 332 429.026 c 256
 345.842 429.026 357.154 431.185 374 436 c 257
 373.999 435.978 370.001 425.001 370 425 c 257
 357.178 416.842 329.23 407.635 327 407 c 257
 325.947 406.999 324.051 406.952 323 406.952 c 256
 260.125 406.952 233 439.49 233 489.5 c 256
EndSplineSet
Refer: 447 3490 N 1 0 0 1 0 0 2
EndChar

StartChar: si_JRIi
Encoding: 158 -1 136
GlifName: si_J_R_I_i
Width: 512
VWidth: 0
Flags: HW
LayerCount: 2
Back
Fore
SplineSet
40.5 -44 m 257
 67.5 -44 l 257
 102.833 -119.333 167.917 -157 273.25 -157 c 256
 416.25 -157 523 -90 523 50 c 256
 523 71 516.809 98.9004 503.5 112 c 257
 519.5 140 l 257
 542.477 107.27 551 74.667 551 38 c 256
 551 -123.729 433.25 -219 289.25 -219 c 256
 156.25 -219 77.833 -153.333 40.5 -44 c 257
337.721 579 m 256
 337.721 551.832 359.332 530.221 386.5 530.221 c 256
 413.668 530.221 435.279 551.832 435.279 579 c 256
 435.279 606.168 413.668 627.779 386.5 627.779 c 256
 359.332 627.779 337.721 606.168 337.721 579 c 256
233 489.5 m 256
 233 576.568 303.261 656.5 386.75 656.5 c 256
 431.64 656.5 463.955 619.452 463.955 579 c 256
 463.955 540.549 433.976 501.5 386.75 501.5 c 256
 339.065 501.5 311.635 539.847 311.635 574.25 c 256
 311.635 574.75 311.712 576 311.75 576.75 c 257
 293.181 551.954 276.5 519.777 276.5 486 c 256
 276.5 454.192 290.994 429.027 332 429.026 c 256
 345.842 429.026 357.154 431.185 374 436 c 257
 373.999 435.978 370.001 425.001 370 425 c 257
 327 407 l 257
 325.947 406.999 324.051 406.952 323 406.952 c 256
 260.125 406.952 233 439.49 233 489.5 c 256
EndSplineSet
Refer: 447 3490 N 1 0 0 1 0 0 2
EndChar

StartChar: si_JRa
Encoding: 156 -1 137
GlifName: si_J_R_a
Width: 512
VWidth: 0
Flags: HW
LayerCount: 2
Back
Fore
SplineSet
40.5 -44 m 257
 67.5 -44 l 257
 102.833 -119.333 167.917 -157 273.25 -157 c 256
 416.25 -157 523 -90 523 50 c 256
 523 71 516.809 98.9004 503.5 112 c 257
 519.5 140 l 257
 542.477 107.27 551 74.667 551 38 c 256
 551 -123.729 433.25 -219 289.25 -219 c 256
 156.25 -219 77.833 -153.333 40.5 -44 c 257
EndSplineSet
Refer: 447 3490 N 1 0 0 1 0 0 2
EndChar

StartChar: si_JUu
Encoding: 154 -1 139
GlifName: si_J_U_u
Width: 512
VWidth: 0
Flags: HW
LayerCount: 2
Back
Fore
SplineSet
39 -138 m 256
 39 -80 88 -40 141 -40 c 256
 183 -40 215.333 -55 238 -91 c 257
 208 -102 l 257
 196 -83 175 -68 146 -68 c 256
 107 -68 75 -92 75 -129 c 256
 75 -166.366 106 -191 149 -191 c 256
 233 -191 299.75 -117 394.75 -117 c 256
 442.344 -117 483.079 -137.891 507.75 -167.5 c 257
 507.75 140.75 l 257
 540.75 200.75 l 257
 540.75 -231 l 257
 517.75 -231 l 257
 502.75 -195 462.625 -144 397.75 -144 c 256
 306.75 -144 248 -237 150 -237 c 256
 95 -237 39 -206 39 -138 c 256
EndSplineSet
Refer: 447 3490 N 1 0 0 1 0 0 2
EndChar

StartChar: si_Ja.reph
Encoding: 155 -1 140
GlifName: si_J_a.reph
Width: 512
VWidth: 0
Flags: HW
LayerCount: 2
Back
Fore
SplineSet
202.336 491 m 256
 202.336 470.446 220.934 453.807 243.25 453.807 c 256
 265.566 453.807 284.164 470.446 284.164 491 c 256
 284.164 511.554 265.566 528.193 243.25 528.193 c 256
 220.934 528.193 202.336 511.554 202.336 491 c 256
100.25 510 m 256
 100.25 574 158.37 611 240.25 611 c 256
 317.25 611 381.25 568 381.25 497 c 256
 381.25 473 372.917 451.333 356.25 432 c 257
 322.5 432 l 257
 335.67 444.387 351 468.734 351 496 c 256
 351 553.241 300.25 583.75 239.25 583.75 c 256
 186.472 583.75 131.5 562.556 131.5 510 c 256
 131.5 470.925 172.554 452.216 195.75 450.25 c 257
 187.75 456.25 175.25 471 175.25 492 c 256
 175.25 527 206.604 552 242.25 552 c 256
 283.25 552 311.25 525 311.25 490 c 256
 311.25 451 276.25 425 218.25 425 c 256
 159.25 425 100.25 454 100.25 510 c 256
EndSplineSet
Refer: 447 3490 N 1 0 0 1 0 0 2
EndChar

StartChar: si_JhRa
Encoding: 167 -1 146
GlifName: si_J_hR_a
Width: 915
VWidth: 0
Flags: HW
LayerCount: 2
Back
Fore
SplineSet
506 -44 m 257
 533 -44 l 257
 568.333 -119.333 637.667 -157 743 -157 c 256
 886 -157 1004 -90 1004 50 c 256
 1004 71 999 93 992 102 c 257
 1005 133 l 257
 1023 106.333 1032 74.667 1032 38 c 256
 1032 -123.729 903 -219 759 -219 c 256
 626 -219 543.333 -153.333 506 -44 c 257
EndSplineSet
Refer: 448 3491 N 1 0 0 1 0 0 2
EndChar

StartChar: si_JhU
Encoding: 162 -1 147
GlifName: si_J_hU_
Width: 915
VWidth: 0
Flags: HW
LayerCount: 2
Back
Fore
SplineSet
501.5 -142.5 m 256
 501.5 -90.4912 547.793 -50.5 603 -50.5 c 256
 644.906 -50.5 682.25 -74.1416 697 -110 c 257
 667 -121.5 l 257
 659.982 -101.896 636 -80 603 -80 c 256
 566.296 -80 535 -106.714 535 -142.5 c 256
 535 -171.663 558.384 -199 624 -199 c 258
 992 -199 l 257
 992 128 l 257
 1025 219 l 257
 1025 -235 l 257
 607 -235 l 258
 537.84 -235 501.5 -186.092 501.5 -142.5 c 256
EndSplineSet
Refer: 448 3491 N 1 0 0 1 0 0 2
EndChar

StartChar: si_JhU.reph
Encoding: 165 -1 148
GlifName: si_J_hU_.reph
Width: 1087
VWidth: 0
Flags: HW
LayerCount: 2
Back
Fore
SplineSet
723.586 622 m 256
 723.586 601.446 742.184 584.807 764.5 584.807 c 256
 786.816 584.807 805.414 601.446 805.414 622 c 256
 805.414 642.554 786.816 659.193 764.5 659.193 c 256
 742.184 659.193 723.586 642.554 723.586 622 c 256
621.5 641 m 256
 621.5 705 679.62 742 761.5 742 c 256
 838.5 742 902.5 699 902.5 628 c 256
 902.5 604 894.167 582.333 877.5 563 c 257
 843.75 563 l 257
 856.92 575.387 872.25 599.734 872.25 627 c 256
 872.25 684.241 821.5 714.75 760.5 714.75 c 256
 707.722 714.75 652.75 693.556 652.75 641 c 256
 652.75 601.925 693.804 583.216 717 581.25 c 257
 709 587.25 696.5 602 696.5 623 c 256
 696.5 658 727.854 683 763.5 683 c 256
 804.5 683 832.5 656 832.5 621 c 256
 832.5 582 797.5 556 739.5 556 c 256
 680.5 556 621.5 585 621.5 641 c 256
EndSplineSet
Refer: 147 -1 N 1 0 0 1 0 0 2
EndChar

StartChar: si_JhUu
Encoding: 163 -1 149
GlifName: si_J_hU_u
Width: 915
VWidth: 0
Flags: HW
LayerCount: 2
Back
Fore
SplineSet
501 -138 m 256
 501 -80 550 -40 603 -40 c 256
 645 -40 677.333 -55 700 -91 c 257
 670 -102 l 257
 658 -83 637 -68 608 -68 c 256
 569 -68 537 -92 537 -129 c 256
 537 -166.366 568 -191 611 -191 c 256
 695 -191 778 -117 873 -117 c 256
 916 -117 965 -136 992 -168 c 257
 992 152 l 257
 1025 212 l 257
 1025 -231 l 257
 1002 -231 l 257
 987 -195 944 -144 876 -144 c 256
 785 -144 710 -237 612 -237 c 256
 557 -237 501 -206 501 -138 c 256
EndSplineSet
Refer: 448 3491 N 1 0 0 1 0 0 2
EndChar

StartChar: si_JhUu.reph
Encoding: 166 -1 150
GlifName: si_J_hU_u.reph
Width: 915
VWidth: 0
Flags: HW
LayerCount: 2
Back
Fore
SplineSet
723.586 622 m 256
 723.586 601.446 742.184 584.807 764.5 584.807 c 256
 786.816 584.807 805.414 601.446 805.414 622 c 256
 805.414 642.554 786.816 659.193 764.5 659.193 c 256
 742.184 659.193 723.586 642.554 723.586 622 c 256
621.5 641 m 256
 621.5 705 679.62 742 761.5 742 c 256
 838.5 742 902.5 699 902.5 628 c 256
 902.5 604 894.167 582.333 877.5 563 c 257
 843.75 563 l 257
 856.92 575.387 872.25 599.734 872.25 627 c 256
 872.25 684.241 821.5 714.75 760.5 714.75 c 256
 707.722 714.75 652.75 693.556 652.75 641 c 256
 652.75 601.925 693.804 583.216 717 581.25 c 257
 709 587.25 696.5 602 696.5 623 c 256
 696.5 658 727.854 683 763.5 683 c 256
 804.5 683 832.5 656 832.5 621 c 256
 832.5 582 797.5 556 739.5 556 c 256
 680.5 556 621.5 585 621.5 641 c 256
501 -138 m 256
 501 -80 550 -40 603 -40 c 256
 645 -40 677.333 -55 700 -91 c 257
 670 -102 l 257
 658 -83 637 -68 608 -68 c 256
 569 -68 537 -92 537 -129 c 256
 537 -166.366 568 -191 611 -191 c 256
 695 -191 778 -117 873 -117 c 256
 916 -117 965 -136 992 -168 c 257
 992 152 l 257
 1025 212 l 257
 1025 -231 l 257
 1002 -231 l 257
 987 -195 944 -144 876 -144 c 256
 785 -144 710 -237 612 -237 c 256
 557 -237 501 -206 501 -138 c 256
EndSplineSet
Refer: 448 3491 N 1 0 0 1 0 0 2
EndChar

StartChar: si_Jha.reph
Encoding: 164 -1 151
GlifName: si_J_ha.reph
Width: 915
VWidth: 0
Flags: HW
LayerCount: 2
Back
Fore
SplineSet
723.586 622.443 m 256
 723.586 601.89 742.184 585.25 764.5 585.25 c 256
 786.816 585.25 805.414 601.89 805.414 622.443 c 256
 805.414 642.997 786.816 659.637 764.5 659.637 c 256
 742.184 659.637 723.586 642.997 723.586 622.443 c 256
621.5 641.443 m 256
 621.5 705.443 679.62 742.443 761.5 742.443 c 256
 838.5 742.443 902.5 699.443 902.5 628.443 c 256
 902.5 604.443 894.167 582.776 877.5 563.443 c 257
 843.75 563.443 l 257
 856.92 575.83 872.25 600.178 872.25 627.443 c 256
 872.25 684.685 821.5 715.193 760.5 715.193 c 256
 707.722 715.193 652.75 693.999 652.75 641.443 c 256
 652.75 602.368 693.804 583.659 717 581.693 c 257
 709 587.693 696.5 602.443 696.5 623.443 c 256
 696.5 658.443 727.854 683.443 763.5 683.443 c 256
 804.5 683.443 832.5 656.443 832.5 621.443 c 256
 832.5 582.443 797.5 556.443 739.5 556.443 c 256
 680.5 556.443 621.5 585.443 621.5 641.443 c 256
EndSplineSet
Refer: 448 3491 N 1 0 0 1 0 0 2
EndChar

StartChar: si_Jny.halant
Encoding: 182 -1 152
GlifName: si_J_ny.halant
Width: 1006
VWidth: 0
Flags: HW
LayerCount: 2
Back
Fore
SplineSet
654.5 412.75 m 257
 654.5 680 l 257
 708.5 638 804.5 633 804.5 541 c 256
 804.5 497 769.691 467 726.5 467 c 256
 711.833 467 696.833 470.333 681.5 477 c 257
 681.5 395.75 l 257
 654.5 412.75 l 257
681.5 502 m 257
 690.167 497.333 701.167 495 714.5 495 c 256
 752.5 495 767.5 520 767.5 544 c 256
 767.5 586 728.5 606 681.5 637 c 257
 681.5 502 l 257
EndSplineSet
Refer: 450 3493 N 1 0 0 1 0 0 2
EndChar

StartChar: si_JnyI
Encoding: 187 -1 154
GlifName: si_J_nyI_
Width: 1006
VWidth: 0
Flags: HW
LayerCount: 2
Back
Fore
SplineSet
424.91 517.5 m 256
 424.91 618.064 516.133 670.5 612.83 670.5 c 256
 709.527 670.5 800.75 616.564 800.75 517.5 c 256
 800.75 442.957 737.414 405.69 684.92 404.5 c 257
 636.58 429.25 l 257
 648.749 427.225 667.075 426.5 673.33 426.5 c 256
 722.765 426.503 770.46 459.552 770.46 508.5 c 256
 770.46 570.185 684.846 597.5 612.83 597.5 c 256
 540.814 597.5 455.95 572.924 455.95 508.5 c 256
 455.95 460.229 512.708 438 554 438 c 257
 535.83 414 l 257
 481.645 420.484 424.91 453.779 424.91 517.5 c 256
EndSplineSet
Refer: 450 3493 N 1 0 0 1 0 0 2
EndChar

StartChar: si_JnyIi
Encoding: 188 -1 155
GlifName: si_J_nyI_i
Width: 1006
VWidth: 0
Flags: HW
LayerCount: 2
Back
Fore
SplineSet
636.83 513.5 m 256
 636.83 482.5 666.83 457.5 702.83 457.5 c 256
 738.83 457.5 768.83 482.5 768.83 513.5 c 256
 768.83 544.5 738.83 569.5 702.83 569.5 c 256
 666.83 569.5 636.83 544.5 636.83 513.5 c 256
425.16 524.5 m 256
 425.16 614.39 516.383 670.5 613.08 670.5 c 256
 709.777 670.5 801 613.822 801 522.25 c 256
 801 462.767 753.544 428.5 702.33 428.5 c 256
 642.655 428.5 604.83 469.5 604.83 514.5 c 256
 604.83 559.5 641.297 586.758 668.08 591.5 c 257
 657.08 594.5 626.689 597.5 613.08 597.5 c 256
 541.064 597.5 460.2 570.053 460.2 513.25 c 256
 460.2 464.979 516.77 438 576 438 c 257
 502 431.5 l 257
 464.919 437.732 425.16 473.125 425.16 524.5 c 256
EndSplineSet
Refer: 450 3493 N 1 0 0 1 0 0 2
EndChar

StartChar: si_Kh.halant
Encoding: 100 -1 183
GlifName: si_K_h.halant
Width: 518
VWidth: 1000
Flags: HW
LayerCount: 2
Back
Fore
SplineSet
460 413 m 25
 460 51 l 2
 460 26.0732421875 448.266601562 0 414.004882812 0 c 2
 316.407226562 0 l 2
 283.07421875 0 244.1640625 46.2275390625 234.805664062 68.0009765625 c 1
 208.006835938 -5 l 1
 169.807617188 -5 l 1
 250 216.59765625 l 1
 250.000976562 348.599609375 l 2
 250.000976562 364.890625 243.139648438 379.801757812 222.998046875 379.801757812 c 2
 88 379.801757812 l 2
 68.18359375 379.801757812 59 366.1171875 59 345.000976562 c 2
 59 57 l 2
 59 39.127112055 64.625 32 81.001953125 32 c 2
 133.002929688 32 l 1
 133 0 l 1
 65 0 l 2
 38.3046995551 0 22 16.7641508739 22 48 c 2
 22 348.000976562 l 2
 22 383.966796875 40.6513671875 411.975585938 81 411.975585938 c 2
 231.19140625 411.975585938 l 2
 263.717773438 411.975585938 287.19140625 394.668945312 287.19140625 357.000976562 c 2
 286.590820312 212 l 1
 250.403320312 111.80078125 l 1
 256.577148438 96.876953125 292.041992188 32 333.407226562 32 c 2
 400.00390625 32 l 2
 419.401367188 32 423.006835938 49.201171875 423.006835938 63.201171875 c 2
 423.006835938 413.000976562 l 25
 460 413 l 25
460 400 m 1
 423 400 l 1
 423 465 l 2
 423 505.980913355 410.364053106 518 375 518 c 2
 14 518 l 1
 14 550 l 1
 82 550 l 1
 52.6669921875 557.333007812 50 582.666992188 50 604 c 2
 50 632 l 2
 50 659.333333333 66.3333333333 673 99 673 c 2
 458 673 l 1
 458 641 l 1
 102.5 641 l 2
 87.53125 641 87 633.667282104 87 616 c 0
 87 573.677734375 97.3973370288 550 168 550 c 2
 383 550 l 2
 443.379036403 550 460 528.467891223 460 469 c 2
 460 400 l 1
EndSplineSet
EndChar

StartChar: si_KhRa
Encoding: 105 -1 189
GlifName: si_K_hR_a
Width: 517
VWidth: 0
Flags: HW
LayerCount: 2
Back
Fore
SplineSet
56 -44 m 257
 83 -44 l 257
 118.333 -119.333 187.667 -157 293 -157 c 256
 436 -157 554 -90 554 50 c 256
 554 71 549 93 542 102 c 257
 555 133 l 257
 573 106.333 582 74.667 582 38 c 256
 582 -123.729 453 -219 309 -219 c 256
 176 -219 93.333 -153.333 56 -44 c 257
EndSplineSet
Refer: 440 3483 N 1 0 0 1 0 0 2
EndChar

StartChar: si_KhUu
Encoding: 104 -1 191
GlifName: si_K_hU_u
Width: 517
VWidth: 0
Flags: HW
LayerCount: 2
Back
Fore
SplineSet
51 -138 m 256
 51 -80 100 -40 153 -40 c 256
 195 -40 227.333 -55 250 -91 c 257
 220 -102 l 257
 208 -83 187 -68 158 -68 c 256
 119 -68 87 -92 87 -129 c 256
 87 -166.366 118 -191 161 -191 c 256
 245 -191 328 -117 423 -117 c 256
 466 -117 515 -136 542 -168 c 257
 542 152 l 257
 575 212 l 257
 575 -231 l 257
 552 -231 l 257
 537 -195 494 -144 426 -144 c 256
 335 -144 260 -237 162 -237 c 256
 107 -237 51 -206 51 -138 c 256
EndSplineSet
Refer: 440 3483 N 1 0 0 1 0 0 2
EndChar

StartChar: si_MI
Encoding: 333 -1 203
GlifName: si_M_I_
Width: 518
VWidth: 1000
Flags: HW
LayerCount: 2
Back
Fore
SplineSet
460 400 m 5
 423 400 l 5
 423 484 l 6
 423 513.545898438 406.061523438 518 387 518 c 6
 14 518 l 5
 14 550 l 5
 82 550 l 5
 52.6669921875 557.333007812 50 582.666992188 50 604 c 6
 50 632 l 6
 50 659.333333333 66.3333333333 673 99 673 c 6
 458 673 l 5
 458 641 l 5
 102.5 641 l 6
 87.53125 641 87 633.667282104 87 616 c 4
 87 573.677734375 97.3973370288 550 168 550 c 6
 391 550 l 6
 446.44140625 550 460 525.686523438 460 469 c 6
 460 400 l 5
460 415 m 5
 460 54 l 6
 460 16.2705078125 447.075195312 0 410 0 c 6
 72 0 l 6
 34.0314662294 0 22 15.7515389988 22 54 c 6
 22 373 l 6
 22 404.537647836 42.279533299 427 74 427 c 6
 209 427 l 6
 239.5625 427 259 408.583984375 259 378 c 6
 259 212 l 6
 259 182.666992188 244.666992188 168 216 168 c 6
 58.875 168 l 5
 58.875 54 l 6
 58.875 39.3388722636 64.875 32 76.875 32 c 6
 405 32 l 6
 417 32 423 39.3330078125 423 54 c 6
 423 415 l 5
 460 415 l 5
58.875 200 m 5
 203 200 l 6
 216.796875 200 221 206.333007812 221 219 c 6
 221 374 l 6
 221 385.791992188 213.700195312 394 197 394 c 6
 83 394 l 6
 71 394 58.875 387.598307133 58.875 372 c 6
 58.875 200 l 5
EndSplineSet
EndChar

StartChar: si_MIi
Encoding: 334 -1 204
GlifName: si_M_I_i
Width: 518
VWidth: 1000
Flags: HW
LayerCount: 2
Back
Fore
SplineSet
460 400 m 5
 423 400 l 5
 423 476 l 6
 423 499.380859375 416.126953125 509.5 391 509.5 c 6
 69 509.5 l 2
 37.6669921875 509.5 22 525.5 22 557.5 c 2
 22 620 l 2
 22 653.415199923 36.1038354598 672 72 672 c 2
 458.5 672 l 5
 458.5 640 l 5
 84 640 l 2
 63.0830078125 640 58.875 635.55848028 58.875 611 c 2
 58.875 566 l 2
 58.875 552.489578247 60.4326171875 541.5 83 541.5 c 2
 391 541.5 l 6
 447.814453125 541.5 460 524.084960938 460 466 c 6
 460 400 l 5
460 415 m 5
 460 54 l 6
 460 16.2705078125 447.075195312 0 410 0 c 6
 72 0 l 2
 34.0314662294 0 22 15.7515389988 22 54 c 2
 22 373 l 2
 22 404.537647836 42.279533299 427 74 427 c 2
 209 427 l 6
 239.5625 427 259 408.583984375 259 378 c 6
 259 212 l 6
 259 182.666992188 244.666992188 168 216 168 c 6
 58.875 168 l 1
 58.875 54 l 2
 58.875 39.3388722636 64.875 32 76.875 32 c 2
 405 32 l 6
 417 32 423 39.3330078125 423 54 c 6
 423 415 l 5
 460 415 l 5
58.875 200 m 1
 203 200 l 6
 216.796875 200 221 206.333007812 221 219 c 6
 221 374 l 6
 221 385.791992188 213.700195312 394 197 394 c 6
 83 394 l 2
 71 394 58.875 387.598307133 58.875 372 c 2
 58.875 200 l 1
EndSplineSet
EndChar

StartChar: si_MU
Encoding: 335 -1 208
GlifName: si_M_U_
Width: 518
VWidth: 1000
Flags: HW
LayerCount: 2
Back
Fore
SplineSet
423 405 m 5
 423 479.5 l 6
 423 497.690429688 405.682617188 509.5 387 509.5 c 6
 65 509.5 l 2
 35.1572265625 509.5 22 518.271484375 22 550.5 c 2
 22 618 l 2
 22 654.859629233 35.4108204097 672 72 672 c 2
 410 672 l 6
 446.587890625 672 460 654.858398438 460 618 c 6
 460 570 l 6
 460 547.837890625 450.686523438 532.870117188 433 528 c 5
 454.911132812 521.15234375 460 504.274414062 460 475 c 6
 460 405 l 5
 423 405 l 5
272 539 m 5
 261.25 541.87109375 254 550.291992188 254 567 c 6
 254 621 l 6
 254 633.107421875 260.500976562 638.25 264 640 c 5
 263.852539062 640 75.875 640 75.875 640 c 2
 64.5419921875 640 58.875 635.333007812 58.875 626 c 2
 58.875 554 l 2
 58.875 544 64.2080078125 539 74.875 539 c 2
 74.875 539 272 538.9765625 272 539 c 5
315 640 m 6
 299.450195312 640 291 630.698242188 291 616 c 6
 291 570.5 l 6
 291 551.6015625 307.266601562 545.5 324.5 545.5 c 6
 387 545.5 l 6
 403.344726562 545.5 423 550.392578125 423 577 c 6
 423 627.5 l 6
 423 636.697265625 415.693359375 640 408.5 640 c 6
 315 640 l 6
460 415 m 5
 460 54 l 6
 460 16.2705078125 447.075195312 0 410 0 c 6
 72 0 l 2
 34.0314662294 0 22 15.7515389988 22 54 c 2
 22 373 l 2
 22 404.537647836 42.279533299 427 74 427 c 2
 209 427 l 6
 239.5625 427 259 408.583984375 259 378 c 6
 259 212 l 6
 259 182.666992188 244.666992188 168 216 168 c 6
 58.875 168 l 1
 58.875 54 l 2
 58.875 39.3388722636 64.875 32 76.875 32 c 2
 405 32 l 6
 417 32 423 39.3330078125 423 54 c 6
 423 415 l 5
 460 415 l 5
58.875 200 m 1
 203 200 l 6
 216.796875 200 221 206.333007812 221 219 c 6
 221 374 l 6
 221 385.791992188 213.700195312 394 197 394 c 6
 83 394 l 2
 71 394 58.875 387.598307133 58.875 372 c 2
 58.875 200 l 1
EndSplineSet
EndChar

StartChar: si_MatraU.alt
Encoding: 86 -1 212
GlifName: si_M_atraU_.alt
Width: 2
VWidth: 1000
Flags: HW
LayerCount: 2
Back
Fore
SplineSet
-13.0126953125 -126.998046875 m 1
 -13.0126953125 -159.012695312 l 1
 -165.416015625 -159.012695312 l 2
 -186.749023438 -159.012695312 -197.416015625 -149.012695312 -197.416015625 -129.012695312 c 2
 -197.416015625 32 l 1
 -160.80078125 32 l 1
 -160.80078125 -107.998046875 l 2
 -160.80078125 -121.631835938 -159.251953125 -126.998046875 -144.80078125 -126.998046875 c 2
 -13.0126953125 -126.998046875 l 1
EndSplineSet
EndChar

StartChar: si_MatraUu.alt
Encoding: 87 -1 213
GlifName: si_M_atraU_u.alt
Width: 2
VWidth: 1000
Flags: HW
LayerCount: 2
Back
Fore
SplineSet
-1 -140.794921875 m 1
 -1 -173 l 1
 -193 -173 l 2
 -215 -173 -226 -163.959276018 -226 -146 c 2
 -226 -126.59375 l 2
 -226 -118.59375 -221.424804688 -110.805664062 -211 -106.59375 c 2
 -113 -68 l 1
 -226 -68 l 1
 -226 -38 l 1
 -155 8 l 1
 -102 8 l 1
 -168 -36.2021484375 l 1
 -22 -36.2021484375 l 1
 -22 -62 l 1
 -177 -127 l 2
 -184.762223074 -130.255125805 -187 -132.740234375 -187 -136.000976562 c 0
 -187 -139.897023989 -185.196289062 -141 -181 -141 c 18
 -1 -140.794921875 l 1
EndSplineSet
EndChar

StartChar: si_N.halant
Encoding: 283 -1 219
GlifName: si_N_.halant
Width: 591
VWidth: 0
Flags: HW
LayerCount: 2
Back
Fore
SplineSet
607 347 m 257
 607 680 l 257
 661 638 757 633 757 541 c 256
 757 497 722.191 467 679 467 c 256
 664.333 467 649.333 470.333 634 477 c 257
 634 330 l 257
 607 347 l 257
634 502 m 257
 642.667 497.333 653.667 495 667 495 c 256
 705 495 720 520 720 544 c 256
 720 586 681 606 634 637 c 257
 634 502 l 257
EndSplineSet
Refer: 462 3505 N 1 0 0 1 0 0 2
EndChar

StartChar: si_NI
Encoding: 284 -1 238
GlifName: si_N_I_
Width: 591
VWidth: 0
Flags: HW
LayerCount: 2
Back
Fore
SplineSet
268.75 421 m 256
 268.75 590 380.75 671 523.75 671 c 256
 653.75 671 738.75 610 738.75 505 c 256
 738.75 444 708.75 402 660.75 383 c 257
 628.75 403 l 257
 668.75 405 706.75 440 706.75 486 c 256
 706.75 574 605.75 598 523.75 598 c 256
 386.75 598 296.25 527.637 296.25 404 c 256
 296.25 389.333 299.167 365.333 302.5 354 c 257
 277.75 338 l 257
 273.653 355.752 268.75 389.837 268.75 421 c 256
EndSplineSet
Refer: 462 3505 N 1 0 0 1 0 0 2
EndChar

StartChar: si_NIi
Encoding: 285 -1 239
GlifName: si_N_I_i
Width: 591
VWidth: 0
Flags: HW
LayerCount: 2
Back
Fore
SplineSet
580.61 476 m 256
 580.61 444.07 607.929 417.29 640.5 417.29 c 256
 673.071 417.29 700.39 444.07 700.39 476 c 256
 700.39 507.93 673.071 534.71 640.5 534.71 c 256
 607.929 534.71 580.61 507.93 580.61 476 c 256
267.5 421 m 256
 267.5 590 379.5 671 522.5 671 c 256
 652.5 671 738.5 600 738.5 495 c 256
 738.5 444 700.5 388 642.5 388 c 256
 584.5 388 549.5 433 549.5 477 c 256
 549.5 529 590.5 566 640.5 566 c 256
 645.835 566 657.5 565 669.5 561.896 c 257
 630.5 590 569.445 598 522.5 598 c 256
 385.5 598 295.25 527.637 295.25 404 c 256
 295.25 389.333 297.667 367.833 301 356.5 c 257
 276 338 l 257
 271.903 355.752 267.5 389.837 267.5 421 c 256
EndSplineSet
Refer: 462 3505 N 1 0 0 1 0 0 2
EndChar

StartChar: si_NU
Encoding: 286 -1 246
GlifName: si_N_U_
Width: 591
VWidth: 0
Flags: HW
LayerCount: 2
Back
Fore
SplineSet
537.999023438 -159 m 5
 24.796875 -159 l 5
 24.796875 -126.904296875 l 5
 500.911132812 -126.904296875 l 5
 500.911132812 35.8076171875 l 5
 505.911132812 35.8076171875 l 6
 514.373046875 35.8076171875 532.666015625 45.8076171875 537.999023438 71.8076171875 c 5
 537.999023438 -159 l 5
EndSplineSet
Refer: 462 3505 N 1 0 0 1 0 0 2
EndChar

StartChar: si_NUu
Encoding: 287 -1 247
GlifName: si_N_U_u
Width: 591
VWidth: 0
Flags: HW
LayerCount: 2
Back
Fore
SplineSet
139 -138 m 256
 139 -80 188 -40 241 -40 c 256
 283 -40 315.333 -55 338 -91 c 257
 308 -102 l 257
 296 -83 275 -68 246 -68 c 256
 207 -68 175 -92 175 -129 c 256
 175 -166.366 203.916 -191 266 -191 c 256
 372.528 -191 427.496 -115 547.5 -115 c 256
 634.055 -115 688.536 -145.676 719.25 -170.75 c 257
 719.25 152 l 257
 752.25 212 l 257
 752.25 -231 l 257
 729.25 -231 l 257
 712.801 -195.578 659.162 -142 557 -142 c 256
 432.994 -142 387.545 -237 265 -237 c 256
 203.664 -237 139 -206 139 -138 c 256
EndSplineSet
Refer: 462 3505 N 1 0 0 1 0 0 2
EndChar

StartChar: si_Na.reph
Encoding: 288 -1 254
GlifName: si_N_a.reph
Width: 591
VWidth: 0
Flags: HW
LayerCount: 2
Back
Fore
SplineSet
454.586 511 m 256
 454.586 490.446 473.184 473.807 495.5 473.807 c 256
 517.816 473.807 536.414 490.446 536.414 511 c 256
 536.414 531.554 517.816 548.193 495.5 548.193 c 256
 473.184 548.193 454.586 531.554 454.586 511 c 256
352.5 530 m 256
 352.5 594 410.62 631 492.5 631 c 256
 569.5 631 633.5 588 633.5 517 c 256
 633.5 493 625.167 471.333 608.5 452 c 257
 574.75 452 l 257
 587.92 464.387 603.25 488.734 603.25 516 c 256
 603.25 573.241 552.5 603.75 491.5 603.75 c 256
 438.722 603.75 383.75 582.556 383.75 530 c 256
 383.75 490.925 424.804 472.216 448 470.25 c 257
 440 476.25 427.5 491 427.5 512 c 256
 427.5 547 458.854 572 494.5 572 c 256
 535.5 572 563.5 545 563.5 510 c 256
 563.5 471 528.5 445 470.5 445 c 256
 411.5 445 352.5 474 352.5 530 c 256
EndSplineSet
Refer: 462 3505 N 1 0 0 1 0 0 2
EndChar

StartChar: si_Nd.halant
Encoding: 289 -1 255
GlifName: si_N_d.halant
Width: 538
VWidth: 0
Flags: HW
LayerCount: 2
Back
Fore
SplineSet
348.5 412.75 m 257
 348.5 680 l 257
 402.5 638 498.5 633 498.5 541 c 256
 498.5 497 463.691 467 420.5 467 c 256
 405.833 467 390.833 470.333 375.5 477 c 257
 375.5 395.75 l 257
 348.5 412.75 l 257
375.5 502 m 257
 384.167 497.333 395.167 495 408.5 495 c 256
 446.5 495 461.5 520 461.5 544 c 256
 461.5 586 422.5 606 375.5 637 c 257
 375.5 502 l 257
EndSplineSet
Refer: 463 3507 N 1 0 0 1 0 0 2
EndChar

StartChar: si_NdI
Encoding: 294 -1 259
GlifName: si_N_dI_
Width: 538
VWidth: 0
Flags: HW
LayerCount: 2
Back
Fore
SplineSet
119.08 518 m 256
 119.08 618.564 210.303 671 307 671 c 256
 403.697 671 494.92 617.064 494.92 518 c 256
 494.92 440.818 427.756 402.233 372.09 401 c 257
 360.09 422 l 257
 418.057 422.005 464.63 459.235 464.63 509 c 256
 464.63 570.685 379.016 598 307 598 c 256
 234.984 598 150.12 573.424 150.12 509 c 256
 150.12 460.729 192.77 425 278 425 c 257
 234.91 405 l 257
 168.951 414.727 119.08 450.955 119.08 518 c 256
EndSplineSet
Refer: 463 3507 N 1 0 0 1 0 0 2
EndChar

StartChar: si_NdIi
Encoding: 295 -1 260
GlifName: si_N_dI_i
Width: 538
VWidth: 0
Flags: HW
LayerCount: 2
Back
Fore
SplineSet
330.75 514 m 256
 330.75 483 360.75 458 396.75 458 c 256
 432.75 458 462.75 483 462.75 514 c 256
 462.75 545 432.75 570 396.75 570 c 256
 360.75 570 330.75 545 330.75 514 c 256
119.08 518 m 256
 119.08 618.564 210.303 671 307 671 c 256
 403.697 671 494.92 614.322 494.92 522.75 c 256
 494.92 463.267 447.464 429 396.25 429 c 256
 336.575 429 298.75 470 298.75 515 c 256
 298.75 560 335.217 587.258 362 592 c 257
 351 595 320.609 598 307 598 c 256
 234.984 598 150.12 573.424 150.12 509 c 256
 150.12 460.729 192.77 425 278 425 c 257
 234.91 405 l 257
 168.951 414.727 119.08 450.955 119.08 518 c 256
EndSplineSet
Refer: 463 3507 N 1 0 0 1 0 0 2
EndChar

StartChar: si_Ndj.halant
Encoding: 194 -1 264
GlifName: si_N_dj.halant
Width: 683
VWidth: 0
Flags: HW
LayerCount: 2
Back
Fore
SplineSet
402 356 m 257
 402 756.5 l 257
 459.218 709.157 549 704.481 549 626.5 c 256
 549 580.716 514.638 549.5 472 549.5 c 256
 457.659 549.5 442.992 551.833 428 556.5 c 257
 428 400 l 257
 402 356 l 257
428.105 580.773 m 257
 437.913 576.866 450.362 574.913 465.448 574.913 c 256
 498.157 574.913 512 598.905 512 621.938 c 256
 512 671.65 464.718 687.036 428.105 712.087 c 257
 428.105 580.773 l 257
EndSplineSet
Refer: 451 3494 N 1 0 0 1 0 0 2
EndChar

StartChar: si_NdjI
Encoding: 195 -1 265
GlifName: si_N_djI_
Width: 683
VWidth: 0
Flags: HW
LayerCount: 2
Back
Fore
SplineSet
334 489.5 m 256
 334 576.568 404.321 657 483 657 c 256
 529.883 657 561.703 626.416 561.705 583 c 256
 561.705 579.106 561.496 576.103 561 572 c 257
 560.982 571.995 531 544.016 531 544 c 257
 534.999 550.487 537.181 564.622 537.181 575.5 c 256
 537.181 604.328 525.158 622 494 622 c 256
 436.62 622 377.5 550.291 377.5 486 c 256
 377.5 454.191 391.994 429.027 433 429.026 c 256
 446.842 429.026 458.154 431.186 475 436 c 257
 474.999 435.978 471.001 425.001 471 425 c 257
 458.178 416.842 430.229 407.635 428 407 c 257
 426.947 406.999 425.052 406.952 424 406.952 c 256
 361.125 406.952 334 439.489 334 489.5 c 256
EndSplineSet
Refer: 451 3494 N 1 0 0 1 0 0 2
EndChar

StartChar: si_NdjIi
Encoding: 196 -1 266
GlifName: si_N_djI_i
Width: 683
VWidth: 0
Flags: HW
LayerCount: 2
Back
Fore
SplineSet
438.721 579 m 256
 438.721 551.832 460.332 530.221 487.5 530.221 c 256
 514.668 530.221 536.279 551.832 536.279 579 c 256
 536.279 606.168 514.668 627.779 487.5 627.779 c 256
 460.332 627.779 438.721 606.168 438.721 579 c 256
334 489.5 m 256
 334 576.568 404.261 656.5 487.75 656.5 c 256
 532.64 656.5 564.955 619.452 564.955 579 c 256
 564.955 540.549 534.977 501.5 487.75 501.5 c 256
 440.065 501.5 412.635 539.848 412.635 574.25 c 256
 412.635 574.75 412.712 576 412.75 576.75 c 257
 394.182 551.954 377.5 519.777 377.5 486 c 256
 377.5 454.191 391.994 429.027 433 429.026 c 256
 446.842 429.026 458.154 431.186 475 436 c 257
 474.999 435.978 471.001 425.001 471 425 c 257
 458.178 416.842 430.229 407.635 428 407 c 257
 426.947 406.999 425.052 406.952 424 406.952 c 256
 361.125 406.952 334 439.489 334 489.5 c 256
EndSplineSet
Refer: 451 3494 N 1 0 0 1 0 0 2
EndChar

StartChar: si_NdjRa
Encoding: 199 -1 267
GlifName: si_N_djR_a
Width: 683
VWidth: 0
Flags: HW
LayerCount: 2
Back
Fore
SplineSet
141.5 -44 m 257
 168.5 -44 l 257
 203.833 -119.333 268.917 -157 374.25 -157 c 256
 517.25 -157 624 -90 624 50 c 256
 624 71 617.809 98.9004 604.5 112 c 257
 620.5 140 l 257
 643.477 107.27 652 74.667 652 38 c 256
 652 -123.729 534.25 -219 390.25 -219 c 256
 257.25 -219 178.833 -153.333 141.5 -44 c 257
EndSplineSet
Refer: 451 3494 N 1 0 0 1 0 0 2
EndChar

StartChar: si_NdjUu
Encoding: 198 -1 269
GlifName: si_N_djU_u
Width: 683
VWidth: 0
Flags: HW
LayerCount: 2
Back
Fore
SplineSet
140 -138 m 256
 140 -80 189 -40 242 -40 c 256
 284 -40 316.333 -55 339 -91 c 257
 309 -102 l 257
 297 -83 276 -68 247 -68 c 256
 208 -68 176 -92 176 -129 c 256
 176 -166.366 207 -191 250 -191 c 256
 334 -191 400.75 -117 495.75 -117 c 256
 543.344 -117 584.079 -137.892 608.75 -167.5 c 257
 608.75 140.75 l 257
 641.75 200.75 l 257
 641.75 -231 l 257
 618.75 -231 l 257
 603.75 -195 563.625 -144 498.75 -144 c 256
 407.75 -144 349 -237 251 -237 c 256
 196 -237 140 -206 140 -138 c 256
EndSplineSet
Refer: 451 3494 N 1 0 0 1 0 0 2
EndChar

StartChar: si_NnddU
Encoding: 237 -1 282
GlifName: si_N_nddU_
Width: 697
VWidth: 0
Flags: HW
LayerCount: 2
Back
Fore
SplineSet
138.595 -142.475 m 256
 138.595 -90.4658 184.888 -50.4746 240.095 -50.4746 c 256
 282.001 -50.4746 319.345 -74.1162 334.095 -109.975 c 257
 304.095 -121.475 l 257
 297.077 -101.871 273.095 -79.9746 240.095 -79.9746 c 256
 203.391 -79.9746 172.095 -106.688 172.095 -142.475 c 256
 172.095 -171.638 195.479 -198.975 261.095 -198.975 c 258
 639.345 -198.975 l 257
 639.345 128.025 l 257
 672.345 219.025 l 257
 672.345 -234.975 l 257
 244.095 -234.975 l 258
 174.935 -234.975 138.595 -186.066 138.595 -142.475 c 256
EndSplineSet
Refer: 457 3500 N 1 0 0 1 0 0 2
EndChar

StartChar: si_NnddUu
Encoding: 238 -1 283
GlifName: si_N_nddU_u
Width: 697
VWidth: 0
Flags: HW
LayerCount: 2
Back
Fore
SplineSet
137.25 -138 m 256
 137.25 -80 186.25 -40 239.25 -40 c 256
 281.25 -40 313.583 -55 336.25 -91 c 257
 306.25 -102 l 257
 294.25 -83 273.25 -68 244.25 -68 c 256
 205.25 -68 173.25 -92 173.25 -129 c 256
 173.25 -166.366 204.25 -191 247.25 -191 c 256
 331.25 -191 417.75 -117 512.75 -117 c 256
 562.791 -117 612.25 -136 639.25 -168 c 257
 639.25 152 l 257
 672.25 212 l 257
 672.25 -231 l 257
 649.25 -231 l 257
 629.718 -192.516 587.184 -145 515.75 -145 c 256
 424.75 -145 346.25 -237 248.25 -237 c 256
 193.25 -237 137.25 -206 137.25 -138 c 256
EndSplineSet
Refer: 457 3500 N 1 0 0 1 0 0 2
EndChar

StartChar: si_Nng.halant
Encoding: 131 -1 284
GlifName: si_N_ng.halant
Width: 759
VWidth: 0
Flags: HW
LayerCount: 2
Back
Fore
SplineSet
553 387 m 257
 553 681 l 257
 607 639 703 634 703 542 c 256
 703 498 668.191 468 625 468 c 256
 610.333 468 595.333 471.333 580 478 c 257
 580 370 l 257
 553 387 l 257
580 503 m 257
 588.667 498.333 599.667 496 613 496 c 256
 651 496 666 521 666 545 c 256
 666 587 627 607 580 638 c 257
 580 503 l 257
EndSplineSet
Refer: 444 3487 N 1 0 0 1 0 0 2
EndChar

StartChar: si_NngUu
Encoding: 135 -1 288
GlifName: si_N_ngU_u
Width: 759
VWidth: 0
Flags: HW
LayerCount: 2
Back
Fore
SplineSet
452.75 -129 m 256
 452.75 -93.3486 484.312 -72 516.75 -67 c 257
 461.75 -39 l 257
 548.75 -14 l 257
 455.25 1 l 257
 503.75 13 l 257
 623.25 -7 l 257
 518.25 -44 l 257
 577.75 -76 l 257
 549.75 -83 492.75 -85.5 492.75 -115 c 256
 492.75 -146 534.674 -155 576.75 -155 c 256
 630.75 -155 676.479 -131 676.479 -82 c 256
 676.479 -77 675.943 -69.3867 670.75 -59 c 257
 703.75 -59 l 257
 707.341 -71.1182 708.054 -82.833 708.054 -94 c 256
 708.054 -161 656.75 -205 574.75 -205 c 256
 516.75 -205 452.75 -187.466 452.75 -129 c 256
EndSplineSet
Refer: 444 3487 N 1 0 0 1 0 0 2
EndChar

StartChar: si_Ny.halant
Encoding: 170 -1 289
GlifName: si_N_y.halant
Width: 1044
VWidth: 0
Flags: HW
LayerCount: 2
Back
Fore
SplineSet
846.5 412.75 m 257
 846.5 680 l 257
 900.5 638 996.5 633 996.5 541 c 256
 996.5 497 961.691 467 918.5 467 c 256
 903.833 467 888.833 470.333 873.5 477 c 257
 873.5 395.75 l 257
 846.5 412.75 l 257
873.5 502 m 257
 882.167 497.333 893.167 495 906.5 495 c 256
 944.5 495 959.5 520 959.5 544 c 256
 959.5 586 920.5 606 873.5 637 c 257
 873.5 502 l 257
EndSplineSet
Refer: 449 3492 N 1 0 0 1 0 0 2
EndChar

StartChar: si_NyI
Encoding: 175 -1 291
GlifName: si_N_yI_
Width: 1012
VWidth: 0
Flags: HW
LayerCount: 2
Back
Fore
SplineSet
607.08 517.5 m 256
 607.08 618.064 698.303 670.5 795 670.5 c 256
 891.697 670.5 982.92 616.564 982.92 517.5 c 256
 982.92 442.957 919.584 405.69 867.09 404.5 c 257
 818.75 429.25 l 257
 830.919 427.225 849.245 426.5 855.5 426.5 c 256
 904.935 426.503 952.63 459.552 952.63 508.5 c 256
 952.63 570.185 867.016 597.5 795 597.5 c 256
 722.984 597.5 638.12 572.924 638.12 508.5 c 256
 638.12 460.229 694.413 440.75 729 440.75 c 257
 718 414 l 257
 663.814 420.484 607.08 453.78 607.08 517.5 c 256
EndSplineSet
Refer: 449 3492 N 1 0 0 1 0 0 2
EndChar

StartChar: si_NyIi
Encoding: 176 -1 292
GlifName: si_N_yI_i
Width: 1012
VWidth: 0
Flags: HW
LayerCount: 2
Back
Fore
SplineSet
607.08 524.5 m 256
 607.08 614.39 698.303 670.5 795 670.5 c 256
 891.697 670.5 982.92 613.822 982.92 522.25 c 256
 982.92 462.767 935.464 428.5 884.25 428.5 c 256
 824.575 428.5 786.75 469.5 786.75 514.5 c 256
 786.75 559.5 823.217 586.758 850 591.5 c 257
 839 594.5 808.609 597.5 795 597.5 c 256
 722.984 597.5 642.12 570.053 642.12 513.25 c 256
 642.12 464.979 697.372 439.5 747 439.5 c 257
 660 440 l 257
 647.525 445.077 607.08 473.125 607.08 524.5 c 256
818.75 513.5 m 256
 818.75 482.5 848.75 457.5 884.75 457.5 c 256
 920.75 457.5 950.75 482.5 950.75 513.5 c 256
 950.75 544.5 920.75 569.5 884.75 569.5 c 256
 848.75 569.5 818.75 544.5 818.75 513.5 c 256
EndSplineSet
Refer: 449 3492 N 1 0 0 1 0 0 2
EndChar

StartChar: si_P.halant
Encoding: 299 -1 298
GlifName: si_P_.halant
Width: 509
VWidth: 0
Flags: HW
LayerCount: 2
Back
Fore
SplineSet
422 427 m 257
 422 681 l 257
 476 639 572 634 572 542 c 256
 572 498 537.191 468 494 468 c 256
 479.333 468 464.333 471.333 449 478 c 257
 449 410 l 257
 422 427 l 257
449 503 m 257
 457.667 498.333 468.667 496 482 496 c 256
 520 496 535 521 535 545 c 256
 535 587 496 607 449 638 c 257
 449 503 l 257
EndSplineSet
Refer: 464 3508 N 1 0 0 1 0 0 2
EndChar

StartChar: si_PI
Encoding: 300 -1 299
GlifName: si_P_I_
Width: 509
VWidth: 0
Flags: HW
LayerCount: 2
Back
Fore
SplineSet
68 518 m 256
 68 626.291 180.621 671 300 671 c 256
 419.379 671 532 626.291 532 518 c 256
 532 443.457 465.857 408.074 389 405 c 257
 389 426 l 257
 442.676 428.825 498 454 498 509 c 256
 498 580.089 388.908 598 300 598 c 256
 211.092 598 102 580.089 102 509 c 256
 102 454 157.324 428.825 211 426 c 257
 211 405 l 257
 134.143 408.074 68 443.457 68 518 c 256
EndSplineSet
Refer: 464 3508 N 1 0 0 1 0 0 2
EndChar

StartChar: si_PIi
Encoding: 301 -1 300
GlifName: si_P_I_i
Width: 509
VWidth: 0
Flags: HW
LayerCount: 2
Back
Fore
SplineSet
385.5 514 m 256
 385.5 483 415.5 458 451.5 458 c 256
 487.5 458 517.5 483 517.5 514 c 256
 517.5 545 487.5 570 451.5 570 c 256
 415.5 570 385.5 545 385.5 514 c 256
48.5 517 m 256
 48.5 624.211 172.446 671 299.5 671 c 256
 416.214 671 552.5 627.399 552.5 524 c 256
 552.5 468.769 507.777 429 451.5 429 c 256
 393.5 429 353.5 470 353.5 515 c 256
 353.5 560 385.5 582 404.5 591 c 257
 393.5 594 354.5 600 300.5 600 c 256
 206.336 600 85.5 578 85.5 499 c 256
 85.5 460.333 107.5 435 145.5 426 c 257
 138.5 406 l 257
 85.2549 410.733 48.5 456 48.5 517 c 256
EndSplineSet
Refer: 464 3508 N 1 0 0 1 0 0 2
EndChar

StartChar: si_PRI
Encoding: 306 -1 301
GlifName: si_P_R_I_
Width: 509
VWidth: 0
Flags: HW
LayerCount: 2
Back
Fore
SplineSet
68 518 m 256
 68 626.291 180.621 671 300 671 c 256
 419.379 671 532 626.291 532 518 c 256
 532 443.457 465.857 408.074 389 405 c 257
 389 426 l 257
 442.676 428.825 498 454 498 509 c 256
 498 580.089 388.908 598 300 598 c 256
 211.092 598 102 580.089 102 509 c 256
 102 454 157.324 428.825 211 426 c 257
 211 405 l 257
 134.143 408.074 68 443.457 68 518 c 256
50.4043 -44 m 257
 78.584 -44 l 257
 112.842 -119.333 184.629 -157 286.76 -157 c 256
 425.413 -157 542.447 -90 542.447 50 c 256
 542.447 71 536.444 98.9004 523.54 112 c 257
 540.304 140 l 257
 562.582 107.27 570.846 74.667 570.846 38 c 256
 570.846 -123.729 441.896 -219 302.274 -219 c 256
 173.316 -219 86.6016 -153.333 50.4043 -44 c 257
EndSplineSet
Refer: 464 3508 N 1 0 0 1 0 0 2
EndChar

StartChar: si_PRIi
Encoding: 307 -1 302
GlifName: si_P_R_I_i
Width: 509
VWidth: 0
Flags: HW
LayerCount: 2
Back
Fore
SplineSet
385.5 514 m 256
 385.5 483 415.5 458 451.5 458 c 256
 487.5 458 517.5 483 517.5 514 c 256
 517.5 545 487.5 570 451.5 570 c 256
 415.5 570 385.5 545 385.5 514 c 256
48.5 517 m 256
 48.5 624.211 172.446 671 299.5 671 c 256
 416.214 671 552.5 627.399 552.5 524 c 256
 552.5 468.769 507.777 429 451.5 429 c 256
 393.5 429 353.5 470 353.5 515 c 256
 353.5 560 385.5 582 404.5 591 c 257
 393.5 594 354.5 600 300.5 600 c 256
 206.336 600 85.5 578 85.5 499 c 256
 85.5 460.333 107.5 435 145.5 426 c 257
 138.5 406 l 257
 85.2549 410.733 48.5 456 48.5 517 c 256
50.4043 -44 m 257
 78.584 -44 l 257
 112.842 -119.333 184.629 -157 286.76 -157 c 256
 425.413 -157 542.447 -90 542.447 50 c 256
 542.447 71 536.444 98.9004 523.54 112 c 257
 540.304 140 l 257
 562.582 107.27 570.846 74.667 570.846 38 c 256
 570.846 -123.729 441.896 -219 302.274 -219 c 256
 173.316 -219 86.6016 -153.333 50.4043 -44 c 257
EndSplineSet
Refer: 464 3508 N 1 0 0 1 0 0 2
EndChar

StartChar: si_PRa
Encoding: 305 -1 303
GlifName: si_P_R_a
Width: 509
VWidth: 0
Flags: HW
LayerCount: 2
Back
Fore
SplineSet
50.4043 -44 m 257
 78.584 -44 l 257
 112.842 -119.333 184.629 -157 286.76 -157 c 256
 425.413 -157 542.447 -90 542.447 50 c 256
 542.447 71 536.444 98.9004 523.54 112 c 257
 540.304 140 l 257
 562.582 107.27 570.846 74.667 570.846 38 c 256
 570.846 -123.729 441.896 -219 302.274 -219 c 256
 173.316 -219 86.6016 -153.333 50.4043 -44 c 257
EndSplineSet
Refer: 464 3508 N 1 0 0 1 0 0 2
EndChar

StartChar: si_PUu
Encoding: 303 -1 305
GlifName: si_P_U_u
Width: 509
VWidth: 0
Flags: HW
LayerCount: 2
Back
Fore
SplineSet
44 -138 m 256
 44 -80 93 -40 146 -40 c 256
 188 -40 220.333 -55 243 -91 c 257
 213 -102 l 257
 201 -83 180 -68 151 -68 c 256
 112 -68 80 -92 80 -129 c 256
 80 -166.366 111 -191 154 -191 c 256
 238 -191 313.5 -117 408.5 -117 c 256
 458.541 -117 508 -136 535 -168 c 257
 535 152 l 257
 568 212 l 257
 568 -231 l 257
 545 -231 l 257
 525.468 -192.516 482.934 -145 411.5 -145 c 256
 320.5 -145 253 -237 155 -237 c 256
 100 -237 44 -206 44 -138 c 256
EndSplineSet
Refer: 464 3508 N 1 0 0 1 0 0 2
EndChar

StartChar: si_Pa.reph
Encoding: 304 -1 306
GlifName: si_P_a.reph
Width: 509
VWidth: 0
Flags: HW
LayerCount: 2
Back
Fore
SplineSet
266.836 511 m 256
 266.836 490.446 285.434 473.807 307.75 473.807 c 256
 330.066 473.807 348.664 490.446 348.664 511 c 256
 348.664 531.554 330.066 548.193 307.75 548.193 c 256
 285.434 548.193 266.836 531.554 266.836 511 c 256
164.75 530 m 256
 164.75 594 222.87 631 304.75 631 c 256
 381.75 631 445.75 588 445.75 517 c 256
 445.75 493 437.417 471.333 420.75 452 c 257
 387 452 l 257
 400.17 464.387 415.5 488.734 415.5 516 c 256
 415.5 573.241 364.75 603.75 303.75 603.75 c 256
 250.972 603.75 196 582.556 196 530 c 256
 196 490.925 237.054 472.216 260.25 470.25 c 257
 252.25 476.25 239.75 491 239.75 512 c 256
 239.75 547 271.104 572 306.75 572 c 256
 347.75 572 375.75 545 375.75 510 c 256
 375.75 471 340.75 445 282.75 445 c 256
 223.75 445 164.75 474 164.75 530 c 256
EndSplineSet
Refer: 464 3508 N 1 0 0 1 0 0 2
EndChar

StartChar: si_PhI
Encoding: 309 -1 308
GlifName: si_P_hI_
Width: 517
VWidth: 0
Flags: HW
LayerCount: 2
Back
Fore
SplineSet
226 484.814453125 m 1
 80 484.814453125 l 2
 49 484.814453125 34 499.814453125 34 529.814453125 c 2
 34 684 l 2
 34 714.666992188 52.338693083 736 90 736 c 2
 459 736 l 1
 459 704.0078125 l 1
 103 704.0078125 l 2
 79.564018143 704.0078125 71.3994140625 695.461370392 71.3994140625 676 c 2
 71.3994140625 538 l 2
 71.3994140625 522.211914062 77.3969822527 516.814453125 92 516.814453125 c 2
 226.001953125 516.814453125 l 1
 226 484.814453125 l 1
EndSplineSet
Refer: 465 3509 N 1 0 0 1 0 0 2
EndChar

StartChar: si_PhIi
Encoding: 310 -1 309
GlifName: si_P_hI_i
Width: 515
VWidth: 0
Flags: HW
LayerCount: 2
Back
Fore
SplineSet
302.017578125 704 m 2
 292.017578125 704 287.017578125 698 287.017578125 690 c 2
 287.017578125 677 l 2
 287.017578125 668.333007812 287.333007812 666.015625 298 666.015625 c 2
 409 666.015625 l 2
 419.666992188 666.015625 420.598632812 668.156019213 420.598632812 676 c 2
 420.598632812 692 l 2
 420.598632812 700 420.333007812 704 409 704 c 2
 302.017578125 704 l 2
274.200195312 635.2109375 m 2
 256.061523438 635.2109375 250.8203125 646.737304688 250.8203125 659 c 2
 250.8203125 690 l 2
 250.8203125 696.182617188 252.159179688 701.479492188 256.219726562 704 c 1
 102.396484375 704.0078125 l 10
 86 704 73.0009765625 698.565429688 73.0009765625 675 c 2
 73.0009765625 538 l 2
 73.0009765625 522.212756852 78.998046875 516.814453125 93.6015625 516.814453125 c 2
 226.001953125 516.814453125 l 1
 226 484.814453125 l 1
 81.6015625 484.814453125 l 2
 50.6015625 484.814453125 35.6015625 499.814453125 35.6015625 529.814453125 c 2
 35.6015625 684 l 2
 35.6015625 714.666992188 53.8017578125 736 91.6015625 736 c 2
 422.595703125 736.000976562 l 2
 445.795898438 736 457.795898438 726.333984375 457.795898438 707.000976562 c 2
 457.795898438 664 l 2
 457.795898438 645.822604816 448.805699565 635.213112133 431 635.212890625 c 2
 274.200195312 635.2109375 l 2
EndSplineSet
Refer: 465 3509 N 1 0 0 1 0 0 2
EndChar

StartChar: si_PhU
Encoding: 311 -1 310
GlifName: si_P_hU_
Width: 583
VWidth: 0
Flags: HW
LayerCount: 2
Back
Fore
SplineSet
44.5 -142.5 m 256
 44.5 -90.4912 90.793 -50.5 146 -50.5 c 256
 187.906 -50.5 225.25 -74.1416 240 -110 c 257
 210 -121.5 l 257
 202.982 -101.896 179 -80 146 -80 c 256
 109.296 -80 78 -106.714 78 -142.5 c 256
 78 -171.663 101.384 -199 167 -199 c 258
 492 -199 l 257
 492 128 l 257
 525 219 l 257
 525 -235 l 257
 150 -235 l 258
 80.8398 -235 44.5 -186.092 44.5 -142.5 c 256
EndSplineSet
Refer: 465 3509 N 1 0 0 1 0 0 2
EndChar

StartChar: si_PhUu
Encoding: 312 -1 311
GlifName: si_P_hU_u
Width: 583
VWidth: 0
Flags: HW
LayerCount: 2
Back
Fore
SplineSet
45.5 -138 m 256
 45.5 -80 94.5 -40 147.5 -40 c 256
 189.5 -40 221.833 -55 244.5 -91 c 257
 214.5 -102 l 257
 202.5 -83 181.5 -68 152.5 -68 c 256
 113.5 -68 81.5 -92 81.5 -129 c 256
 81.5 -166.366 112.5 -191 155.5 -191 c 256
 239.5 -191 290.198 -117 379.25 -117 c 256
 426.844 -117 465 -136 492 -168 c 257
 492 152 l 257
 525 212 l 257
 525 -231 l 257
 502 -231 l 257
 487 -195 447.125 -144 382.25 -144 c 256
 297.308 -144 254.5 -237 156.5 -237 c 256
 101.5 -237 45.5 -206 45.5 -138 c 256
EndSplineSet
Refer: 465 3509 N 1 0 0 1 0 0 2
EndChar

StartChar: si_Rakar
Encoding: 89 -1 320
GlifName: si_R_akar
Width: 2
VWidth: 0
Flags: HW
LayerCount: 2
Back
Fore
SplineSet
-560.80859375 -21 m 1
 -560.80859375 -105.802734375 l 2
 -560.80859375 -135.796875 -543.892578125 -150 -516.80859375 -150 c 2
 -108 -150 l 2
 -82.6669921875 -150 -67 -138.565429688 -67 -107 c 2
 -67 -21 l 1
 -104.000976562 -21 l 1
 -104.000976562 -97 l 2
 -104.000976562 -109.877929688 -109.166015625 -118.005859375 -124 -118.005859375 c 2
 -505.798828125 -118.005859375 l 2
 -518.913085938 -118.005859375 -524.002929688 -110 -524.002929688 -98 c 2
 -524.002929688 -21 l 1
 -560.80859375 -21 l 1
EndSplineSet
EndChar

StartChar: si_S.halant
Encoding: 398 -1 322
GlifName: si_S_.halant
Width: 565
VWidth: 0
Flags: HW
LayerCount: 2
Back
Fore
SplineSet
499 412.75 m 257
 499 680 l 257
 553 638 649 633 649 541 c 256
 649 497 614.191 467 571 467 c 256
 556.333 467 541.333 470.333 526 477 c 257
 526 410 l 257
 499 412.75 l 257
526 502 m 257
 534.667 497.333 545.667 495 559 495 c 256
 597 495 612 520 612 544 c 256
 612 586 573 606 526 637 c 257
 526 502 l 257
EndSplineSet
Refer: 476 3523 N 1 0 0 1 0 0 2
EndChar

StartChar: si_SI
Encoding: 399 -1 323
GlifName: si_S_I_
Width: 565
VWidth: 0
Flags: HW
LayerCount: 2
Back
Fore
SplineSet
532 598.5 m 6
 532 636 518.286521352 652.5 482 652.5 c 6
 73.0009765625 652.5 l 6
 34.3779296875 652.5 23.9833984375 636.831054688 23.0009765625 598.5 c 6
 23.0009765625 523.5 l 5
 60 523.5 l 5
 60 528.416015625 60.021484375 596 60.021484375 596 c 6
 60.0267469171 613.758687549 67.8187903842 620 82 620 c 6
 472 620 l 6
 490.543605905 620 495 609 495.02734375 596 c 22
 495.02734375 596 494.999023438 529.151367188 494.999023438 523.5 c 5
 532 523.5 l 5
 532 598.5 l 6
EndSplineSet
Refer: 476 3523 N 1 0 0 1 0 0 2
EndChar

StartChar: si_SIi
Encoding: 400 -1 324
GlifName: si_S_I_i
Width: 565
VWidth: 0
Flags: HW
LayerCount: 2
Back
Fore
SplineSet
419 514 m 256
 419 483 449 458 485 458 c 256
 521 458 551 483 551 514 c 256
 551 545 521 570 485 570 c 256
 449 570 419 545 419 514 c 256
82 517 m 256
 82 624.211 205.946 671 333 671 c 256
 449.714 671 586 627.399 586 524 c 256
 586 468.769 541.277 429 485 429 c 256
 427 429 387 470 387 515 c 256
 387 560 419 582 438 591 c 257
 427 594 388 600 334 600 c 256
 239.836 600 119 578 119 499 c 256
 119 460.333 141 435 179 426 c 257
 172 406 l 257
 118.755 410.733 82 456 82 517 c 256
EndSplineSet
Refer: 476 3523 N 1 0 0 1 0 0 2
EndChar

StartChar: si_SRI
Encoding: 405 -1 325
GlifName: si_S_R_I_
Width: 677
VWidth: 0
Flags: HW
LayerCount: 2
Back
Fore
SplineSet
74.3604 -44 m 257
 101.42 -44 l 257
 137.813 -119.333 209.977 -157 318.47 -157 c 256
 465.76 -157 588.3 -90 588.3 50 c 256
 588.3 71 582.15 93 574.94 102 c 257
 588.33 133 l 257
 606.87 106.333 616.14 74.667 616.14 38 c 256
 616.14 -123.729 483.27 -219 334.95 -219 c 256
 197.96 -219 112.813 -153.333 74.3604 -44 c 257
EndSplineSet
Refer: 323 -1 N 1 0 0 1 0 0 2
EndChar

StartChar: si_SRIi
Encoding: 406 -1 326
GlifName: si_S_R_I_i
Width: 677
VWidth: 0
Flags: HW
LayerCount: 2
Back
Fore
SplineSet
74.3604 -44 m 257
 101.42 -44 l 257
 137.813 -119.333 209.977 -157 318.47 -157 c 256
 465.76 -157 588.3 -90 588.3 50 c 256
 588.3 71 582.15 93 574.94 102 c 257
 588.33 133 l 257
 606.87 106.333 616.14 74.667 616.14 38 c 256
 616.14 -123.729 483.27 -219 334.95 -219 c 256
 197.96 -219 112.813 -153.333 74.3604 -44 c 257
EndSplineSet
Refer: 324 -1 N 1 0 0 1 0 0 2
EndChar

StartChar: si_SRa
Encoding: 404 -1 327
GlifName: si_S_R_a
Width: 565
VWidth: 0
Flags: HW
LayerCount: 2
Back
Fore
SplineSet
74.3604 -44 m 257
 101.42 -44 l 257
 137.813 -119.333 209.977 -157 318.47 -157 c 256
 465.76 -157 588.3 -90 588.3 50 c 256
 588.3 71 582.15 93 574.94 102 c 257
 588.33 133 l 257
 606.87 106.333 616.14 74.667 616.14 38 c 256
 616.14 -123.729 483.27 -219 334.95 -219 c 256
 197.96 -219 112.813 -153.333 74.3604 -44 c 257
EndSplineSet
Refer: 476 3523 N 1 0 0 1 0 0 2
EndChar

StartChar: si_SU
Encoding: 401 -1 328
GlifName: si_S_U_
Width: 565
VWidth: 0
Flags: HW
LayerCount: 2
Back
Fore
SplineSet
510.000976562 -159 m 1
 24.796875 -159 l 1
 24.796875 -126.904296875 l 1
 472.913085938 -126.904296875 l 1
 472.913085938 35.8076171875 l 1
 477.913085938 35.8076171875 l 2
 486.375 35.8076171875 504.66796875 45.8076171875 510.000976562 71.8076171875 c 1
 510.000976562 -159 l 1
EndSplineSet
Refer: 476 3523 N 1 0 0 1 0 0 2
EndChar

StartChar: si_SUu
Encoding: 402 -1 329
GlifName: si_S_U_u
Width: 565
VWidth: 0
Flags: HW
LayerCount: 2
Back
Fore
SplineSet
68.5 -138 m 256
 68.5 -80 117.5 -40 170.5 -40 c 256
 212.5 -40 244.833 -55 267.5 -91 c 257
 237.5 -102 l 257
 225.5 -83 204.5 -68 175.5 -68 c 256
 136.5 -68 104.5 -92 104.5 -129 c 256
 104.5 -166.366 135.5 -191 178.5 -191 c 256
 286.465 -191 372 -117 467 -117 c 256
 510 -117 559 -136 586 -168 c 257
 586 136.75 l 257
 619 204.5 l 257
 619 -231 l 257
 596 -231 l 257
 581 -195 538 -144 470 -144 c 256
 379 -144 298.517 -237 179.5 -237 c 256
 124.5 -237 68.5 -206 68.5 -138 c 256
EndSplineSet
Refer: 476 3523 N 1 0 0 1 0 0 2
EndChar

StartChar: si_Sa.reph
Encoding: 403 -1 330
GlifName: si_S_a.reph
Width: 565
VWidth: 0
Flags: HW
LayerCount: 2
Back
Fore
SplineSet
295.336 511 m 256
 295.336 490.446 313.934 473.807 336.25 473.807 c 256
 358.566 473.807 377.164 490.446 377.164 511 c 256
 377.164 531.554 358.566 548.193 336.25 548.193 c 256
 313.934 548.193 295.336 531.554 295.336 511 c 256
193.25 530 m 256
 193.25 594 251.37 631 333.25 631 c 256
 410.25 631 474.25 588 474.25 517 c 256
 474.25 493 465.917 471.333 449.25 452 c 257
 415.5 452 l 257
 428.67 464.387 444 488.734 444 516 c 256
 444 573.241 393.25 603.75 332.25 603.75 c 256
 279.472 603.75 224.5 582.556 224.5 530 c 256
 224.5 490.925 265.554 472.216 288.75 470.25 c 257
 280.75 476.25 268.25 491 268.25 512 c 256
 268.25 547 299.604 572 335.25 572 c 256
 376.25 572 404.25 545 404.25 510 c 256
 404.25 471 369.25 445 311.25 445 c 256
 252.25 445 193.25 474 193.25 530 c 256
EndSplineSet
Refer: 476 3523 N 1 0 0 1 0 0 2
EndChar

StartChar: si_T.halant
Encoding: 239 -1 349
GlifName: si_T_.halant
Width: 592
VWidth: 0
Flags: HW
LayerCount: 2
Back
Fore
SplineSet
512 347 m 257
 512 680 l 257
 566 638 662 633 662 541 c 256
 662 497 627.191 467 584 467 c 256
 569.333 467 554.333 470.333 539 477 c 257
 539 330 l 257
 512 347 l 257
539 502 m 257
 547.667 497.333 558.667 495 572 495 c 256
 610 495 625 520 625 544 c 256
 625 586 586 606 539 637 c 257
 539 502 l 257
EndSplineSet
Refer: 458 3501 N 1 0 0 1 0 0 2
EndChar

StartChar: si_TI
Encoding: 240 -1 350
GlifName: si_T_I_
Width: 592
VWidth: 0
Flags: HW
LayerCount: 2
Back
Fore
SplineSet
211.307 421 m 256
 211.307 580.165 318.871 671 456.208 671 c 256
 581.06 671 662.693 602.307 662.693 505 c 256
 662.693 444 623.662 394.226 570 378 c 257
 543 401 l 257
 581.416 403 625.962 440 625.962 486 c 256
 625.962 565.659 534.961 598 456.208 598 c 256
 324.633 598 239.276 519.611 239.276 404 c 256
 239.276 389.333 240.877 376.333 244.078 365 c 257
 218.028 343 l 257
 214.094 360.752 211.307 389.837 211.307 421 c 256
EndSplineSet
Refer: 458 3501 N 1 0 0 1 0 0 2
EndChar

StartChar: si_TIi
Encoding: 241 -1 351
GlifName: si_T_I_i
Width: 592
VWidth: 0
Flags: HW
LayerCount: 2
Back
Fore
SplineSet
506.86 476 m 256
 506.86 444.07 534.179 417.29 566.75 417.29 c 256
 599.321 417.29 626.64 444.07 626.64 476 c 256
 626.64 507.93 599.321 534.71 566.75 534.71 c 256
 534.179 534.71 506.86 507.93 506.86 476 c 256
211.307 421 m 256
 211.307 580.165 321.962 671 448.75 671 c 256
 578.75 671 664.75 600 664.75 495 c 256
 664.75 444 626.75 388 568.75 388 c 256
 510.75 388 475.75 433 475.75 477 c 256
 475.75 529 516.75 566 566.75 566 c 256
 572.085 566 583.75 565 595.75 561.896 c 257
 556.75 590 495.695 598 448.75 598 c 256
 327.354 598 239.276 519.611 239.276 404 c 256
 239.276 389.333 240.877 376.333 244.078 365 c 257
 218.028 343 l 257
 214.094 360.752 211.307 389.837 211.307 421 c 256
EndSplineSet
Refer: 458 3501 N 1 0 0 1 0 0 2
EndChar

StartChar: si_TRI
Encoding: 246 -1 352
GlifName: si_T_R_I_
Width: 704
VWidth: 0
Flags: HW
LayerCount: 2
Back
Fore
SplineSet
110.64 -44 m 257
 138.18 -44 l 257
 174.22 -119.333 245.96 -157 353.4 -157 c 256
 499.26 -157 630.84 -90 630.84 50 c 256
 630.84 71 625.74 93 618.6 102 c 257
 629.82 133 l 257
 648.18 106.333 657.36 74.667 657.36 38 c 256
 657.36 -123.729 516.6 -219 369.72 -219 c 256
 234.06 -219 148.72 -153.333 110.64 -44 c 257
EndSplineSet
Refer: 350 -1 N 1 0 0 1 0 0 2
EndChar

StartChar: si_TRIi
Encoding: 247 -1 353
GlifName: si_T_R_I_i
Width: 704
VWidth: 0
Flags: HW
LayerCount: 2
Back
Fore
SplineSet
110.64 -44 m 257
 138.18 -44 l 257
 174.22 -119.333 245.96 -157 353.4 -157 c 256
 499.26 -157 630.84 -90 630.84 50 c 256
 630.84 71 625.74 93 618.6 102 c 257
 629.82 133 l 257
 648.18 106.333 657.36 74.667 657.36 38 c 256
 657.36 -123.729 516.6 -219 369.72 -219 c 256
 234.06 -219 148.72 -153.333 110.64 -44 c 257
EndSplineSet
Refer: 351 -1 N 1 0 0 1 0 0 2
EndChar

StartChar: si_TRa
Encoding: 245 -1 354
GlifName: si_T_R_a
Width: 592
VWidth: 0
Flags: HW
LayerCount: 2
Back
Fore
SplineSet
110.64 -44 m 257
 138.18 -44 l 257
 174.22 -119.333 245.96 -157 353.4 -157 c 256
 499.26 -157 630.84 -90 630.84 50 c 256
 630.84 71 625.74 93 618.6 102 c 257
 629.82 133 l 257
 648.18 106.333 657.36 74.667 657.36 38 c 256
 657.36 -123.729 516.6 -219 369.72 -219 c 256
 234.06 -219 148.72 -153.333 110.64 -44 c 257
EndSplineSet
Refer: 458 3501 N 1 0 0 1 0 0 2
EndChar

StartChar: si_TUu
Encoding: 243 -1 361
GlifName: si_T_U_u
Width: 592
VWidth: 0
Flags: HW
LayerCount: 2
Back
Fore
SplineSet
395 -129 m 256
 395 -93.3486 426.344 -71.125 459 -67 c 257
 404 -39 l 257
 491 -14 l 257
 455 0 l 257
 455 21 l 257
 549.5 -14.5 l 257
 463 -43 l 257
 523 -75.5 l 257
 495 -82.5 435 -84.5742 435 -115 c 256
 435 -146 476.924 -155 519 -155 c 256
 573 -155 618.729 -131 618.729 -82 c 256
 618.729 -77 618.193 -69.3867 613 -59 c 257
 646 -59 l 257
 649.591 -71.1182 650.304 -82.833 650.304 -94 c 256
 650.304 -161 599 -205 517 -205 c 256
 459 -205 395 -187.466 395 -129 c 256
EndSplineSet
Refer: 458 3501 N 1 0 0 1 0 0 2
EndChar

StartChar: si_Ta.reph
Encoding: 244 -1 368
GlifName: si_T_a.reph
Width: 592
VWidth: 0
Flags: HW
LayerCount: 2
Back
Fore
SplineSet
370.586 511 m 256
 370.586 490.446 389.184 473.807 411.5 473.807 c 256
 433.816 473.807 452.414 490.446 452.414 511 c 256
 452.414 531.554 433.816 548.193 411.5 548.193 c 256
 389.184 548.193 370.586 531.554 370.586 511 c 256
268.5 530 m 256
 268.5 594 326.62 631 408.5 631 c 256
 485.5 631 549.5 588 549.5 517 c 256
 549.5 493 541.167 471.333 524.5 452 c 257
 490.75 452 l 257
 503.92 464.387 519.25 488.734 519.25 516 c 256
 519.25 573.241 468.5 603.75 407.5 603.75 c 256
 354.722 603.75 299.75 582.556 299.75 530 c 256
 299.75 490.925 340.804 472.216 364 470.25 c 257
 356 476.25 343.5 491 343.5 512 c 256
 343.5 547 374.854 572 410.5 572 c 256
 451.5 572 479.5 545 479.5 510 c 256
 479.5 471 444.5 445 386.5 445 c 256
 327.5 445 268.5 474 268.5 530 c 256
EndSplineSet
Refer: 458 3501 N 1 0 0 1 0 0 2
EndChar

StartChar: si_ThI
Encoding: 249 -1 370
GlifName: si_T_hI_
Width: 512
VWidth: 0
Flags: HW
LayerCount: 2
Back
Fore
SplineSet
226 484.814453125 m 5
 80 484.814453125 l 6
 49 484.814453125 34 499.814453125 34 529.814453125 c 6
 34 684 l 6
 34 714.666992188 52.338693083 736 90 736 c 6
 459 736 l 5
 459 704.0078125 l 5
 103 704.0078125 l 6
 79.564018143 704.0078125 71.3994140625 695.461370392 71.3994140625 676 c 6
 71.3994140625 538 l 6
 71.3994140625 522.211914062 77.3969822527 516.814453125 92 516.814453125 c 6
 226.001953125 516.814453125 l 5
 226 484.814453125 l 5
EndSplineSet
Refer: 459 3502 N 1 0 0 1 0 0 2
EndChar

StartChar: si_ThIi
Encoding: 250 -1 371
GlifName: si_T_hI_i
Width: 512
VWidth: 1000
Flags: HW
LayerCount: 2
Back
Fore
SplineSet
302.017578125 704 m 6
 292.017578125 704 287.017578125 698 287.017578125 690 c 6
 287.017578125 677 l 6
 287.017578125 668.333007812 287.333007812 666.015625 298 666.015625 c 6
 409 666.015625 l 6
 419.666992188 666.015625 420.598632812 668.156019213 420.598632812 676 c 6
 420.598632812 692 l 6
 420.598632812 700 420.333007812 704 409 704 c 6
 302.017578125 704 l 6
274.200195312 635.2109375 m 6
 256.061523438 635.2109375 250.8203125 646.737304688 250.8203125 659 c 6
 250.8203125 690 l 6
 250.8203125 696.182617188 252.159179688 701.479492188 256.219726562 704 c 5
 102.396484375 704.0078125 l 14
 86 704 73.0009765625 698.565429688 73.0009765625 675 c 6
 73.0009765625 538 l 6
 73.0009765625 522.212756852 78.998046875 516.814453125 93.6015625 516.814453125 c 6
 226.001953125 516.814453125 l 5
 226 484.814453125 l 5
 81.6015625 484.814453125 l 6
 50.6015625 484.814453125 35.6015625 499.814453125 35.6015625 529.814453125 c 6
 35.6015625 684 l 6
 35.6015625 714.666992188 53.8017578125 736 91.6015625 736 c 6
 422.595703125 736.000976562 l 6
 445.795898438 736 457.795898438 726.333984375 457.795898438 707.000976562 c 6
 457.795898438 664 l 6
 457.795898438 645.822604816 448.805699565 635.213112133 431 635.212890625 c 6
 274.200195312 635.2109375 l 6
EndSplineSet
Refer: 459 3502 N 1 0 0 1 0 0 2
Refer: 459 3502 N 1 0 0 1 0 0 2
EndChar

StartChar: si_ThU
Encoding: 251 -1 372
GlifName: si_T_hU_
Width: 512
VWidth: 0
Flags: HW
LayerCount: 2
Back
Fore
SplineSet
53.25 -142.5 m 256
 53.25 -90.4912 99.543 -50.5 154.75 -50.5 c 256
 196.656 -50.5 234 -74.1416 248.75 -110 c 257
 218.75 -121.5 l 257
 211.732 -101.896 187.75 -80 154.75 -80 c 256
 118.046 -80 86.75 -106.714 86.75 -142.5 c 256
 86.75 -171.663 110.134 -199 175.75 -199 c 258
 524 -199 l 257
 524 128 l 257
 557 219 l 257
 557 -235 l 257
 158.75 -235 l 258
 89.5898 -235 53.25 -186.092 53.25 -142.5 c 256
EndSplineSet
Refer: 459 3502 N 1 0 0 1 0 0 2
EndChar

StartChar: si_ThUu
Encoding: 252 -1 373
GlifName: si_T_hU_u
Width: 512
VWidth: 0
Flags: HW
LayerCount: 2
Back
Fore
SplineSet
52.5 -138 m 256
 52.5 -80 101.5 -40 154.5 -40 c 256
 196.5 -40 228.833 -55 251.5 -91 c 257
 221.5 -102 l 257
 209.5 -83 188.5 -68 159.5 -68 c 256
 120.5 -68 88.5 -92 88.5 -129 c 256
 88.5 -166.366 119.5 -191 162.5 -191 c 256
 246.5 -191 316.25 -117 411.25 -117 c 256
 458.844 -117 497 -136 524 -168 c 257
 524 152 l 257
 557 212 l 257
 557 -231 l 257
 534 -231 l 257
 519 -195 479.125 -144 414.25 -144 c 256
 323.25 -144 261.5 -237 163.5 -237 c 256
 108.5 -237 52.5 -206 52.5 -138 c 256
EndSplineSet
Refer: 459 3502 N 1 0 0 1 0 0 2
EndChar

StartChar: si_Tha.reph
Encoding: 253 -1 374
GlifName: si_T_ha.reph
Width: 512
VWidth: 0
Flags: HW
LayerCount: 2
Back
Fore
SplineSet
115.336 511 m 256
 115.336 490.446 133.934 473.807 156.25 473.807 c 256
 178.566 473.807 197.164 490.446 197.164 511 c 256
 197.164 531.554 178.566 548.193 156.25 548.193 c 256
 133.934 548.193 115.336 531.554 115.336 511 c 256
13.25 530 m 256
 13.25 594 71.3701 631 153.25 631 c 256
 230.25 631 294.25 588 294.25 517 c 256
 294.25 493 285.917 471.333 269.25 452 c 257
 235.5 452 l 257
 248.67 464.387 264 488.734 264 516 c 256
 264 573.241 213.25 603.75 152.25 603.75 c 256
 99.4717 603.75 44.5 582.556 44.5 530 c 256
 44.5 490.925 85.5537 472.216 108.75 470.25 c 257
 100.75 476.25 88.25 491 88.25 512 c 256
 88.25 547 119.604 572 155.25 572 c 256
 196.25 572 224.25 545 224.25 510 c 256
 224.25 471 189.25 445 131.25 445 c 256
 72.25 445 13.25 474 13.25 530 c 256
EndSplineSet
Refer: 459 3502 N 1 0 0 1 0 0 2
EndChar

StartChar: si_TtRa
Encoding: 206 -1 380
GlifName: si_T_tR_a
Width: 515
VWidth: 0
Flags: HW
LayerCount: 2
Back
Fore
SplineSet
46.1543 -44 m 257
 74.334 -44 l 257
 108.592 -119.333 171.879 -157 274.01 -157 c 256
 412.663 -157 521.947 -90 521.947 50 c 256
 521.947 71 515.944 98.9004 503.04 112 c 257
 519.804 140 l 257
 542.082 107.27 550.346 74.667 550.346 38 c 256
 550.346 -123.729 429.146 -219 289.524 -219 c 256
 160.566 -219 82.3516 -153.333 46.1543 -44 c 257
EndSplineSet
Refer: 452 3495 N 1 0 0 1 0 0 2
EndChar

StartChar: si_TtUu
Encoding: 204 -1 388
GlifName: si_T_tU_u
Width: 515
VWidth: 0
Flags: HW
LayerCount: 2
Back
Fore
SplineSet
46 -138 m 256
 46 -80 95 -40 148 -40 c 256
 190 -40 222.333 -55 245 -91 c 257
 215 -102 l 257
 203 -83 182 -68 153 -68 c 256
 114 -68 82 -92 82 -129 c 256
 82 -166.366 113 -191 156 -191 c 256
 240 -191 306.75 -117 401.75 -117 c 256
 449.344 -117 487.5 -136 514.5 -168 c 257
 514.5 152 l 257
 547.5 212 l 257
 547.5 -231 l 257
 524.5 -231 l 257
 509.5 -195 469.625 -144 404.75 -144 c 256
 313.75 -144 255 -237 157 -237 c 256
 102 -237 46 -206 46 -138 c 256
EndSplineSet
Refer: 452 3495 N 1 0 0 1 0 0 2
EndChar

StartChar: si_Tta.reph
Encoding: 205 -1 390
GlifName: si_T_ta.reph
Width: 515
VWidth: 0
Flags: HW
LayerCount: 2
Back
Fore
SplineSet
252.836 620 m 256
 252.836 599.446 271.434 582.807 293.75 582.807 c 256
 316.066 582.807 334.664 599.446 334.664 620 c 256
 334.664 640.554 316.066 657.193 293.75 657.193 c 256
 271.434 657.193 252.836 640.554 252.836 620 c 256
150.75 639 m 256
 150.75 703 208.87 740 290.75 740 c 256
 367.75 740 431.75 697 431.75 626 c 256
 431.75 602 423.417 580.333 406.75 561 c 257
 373 561 l 257
 386.17 573.387 401.5 597.734 401.5 625 c 256
 401.5 682.241 350.75 712.75 289.75 712.75 c 256
 236.972 712.75 182 691.556 182 639 c 256
 182 599.925 223.054 581.216 246.25 579.25 c 257
 238.25 585.25 225.75 600 225.75 621 c 256
 225.75 656 257.104 681 292.75 681 c 256
 333.75 681 361.75 654 361.75 619 c 256
 361.75 580 326.75 554 268.75 554 c 256
 209.75 554 150.75 583 150.75 639 c 256
EndSplineSet
Refer: 452 3495 N 1 0 0 1 0 0 2
EndChar

StartChar: si_TthI
Encoding: 210 -1 392
GlifName: si_T_thI_
Width: 637
VWidth: 0
Flags: HW
LayerCount: 2
Back
Fore
SplineSet
112 574 m 256
 112 665.82 226.359 700.25 334.5 700.25 c 256
 436.667 700.25 556 664.09 556 573 c 256
 556 526.276 515.002 499 476 499 c 257
 470.418 503.613 461.325 513.196 457.5 520.75 c 257
 470.658 520.799 519 523.821 519 565.25 c 256
 519 621.718 411.473 635 337 635 c 256
 218.333 635 151 610.984 151 566 c 256
 151 527.13 194.14 514 228 514 c 256
 273.316 514 306.941 526.609 324 534.75 c 257
 322.579 528.495 323.715 520.861 320 505 c 257
 294.967 497.308 269.368 489 226 489 c 256
 165.8 489 112 515.943 112 574 c 256
EndSplineSet
Refer: 453 3496 N 1 0 0 1 0 0 2
EndChar

StartChar: si_TthIi
Encoding: 211 -1 393
GlifName: si_T_thI_i
Width: 638
VWidth: 0
Flags: HW
LayerCount: 2
Back
Fore
SplineSet
447.995 575.5 m 256
 447.995 546.937 470.437 524.495 499 524.495 c 256
 527.563 524.495 550.005 546.937 550.005 575.5 c 256
 550.005 604.063 527.563 626.505 499 626.505 c 256
 470.437 626.505 447.995 604.063 447.995 575.5 c 256
112 574 m 256
 112 665.82 226.358 699.75 335.25 699.75 c 256
 502.583 699.75 579.5 651.379 579.5 575.25 c 256
 579.5 535.27 548.615 495 498.75 495 c 256
 450.699 495 418.5 534.358 418.5 574.25 c 256
 418.5 588.11 423.917 612.333 441.25 629 c 257
 419.68 633.791 378.759 638.5 330 638.5 c 256
 215.566 638.5 151 610.984 151 566 c 256
 151 527.13 194.14 514 228 514 c 256
 273.316 514 306.941 526.609 324 534.75 c 257
 322.579 528.495 323.715 520.861 320 505 c 257
 294.967 497.308 269.368 489 226 489 c 256
 165.8 489 112 515.943 112 574 c 256
EndSplineSet
Refer: 453 3496 N 1 0 0 1 0 0 2
EndChar

StartChar: si_TthUu
Encoding: 213 -1 395
GlifName: si_T_thU_u
Width: 638
VWidth: 0
Flags: HW
LayerCount: 2
Back
Fore
SplineSet
51 -138 m 256
 51 -80 100 -40 153 -40 c 256
 195 -40 227.333 -55 250 -91 c 257
 220 -102 l 257
 208 -83 187 -68 158 -68 c 256
 119 -68 87 -92 87 -129 c 256
 87 -166.366 118 -191 161 -191 c 256
 245 -191 328 -117 423 -117 c 256
 466 -117 515 -136 542 -168 c 257
 542 152 l 257
 575 212 l 257
 575 -231 l 257
 552 -231 l 257
 537 -195 494 -144 426 -144 c 256
 335 -144 260 -237 162 -237 c 256
 107 -237 51 -206 51 -138 c 256
EndSplineSet
Refer: 453 3496 N 1 0 0 1 0 0 2
EndChar

StartChar: si_V.halant
Encoding: 371 -1 396
GlifName: si_V_.halant
Width: 518
VWidth: 1000
Flags: HW
LayerCount: 2
Back
Fore
SplineSet
460 415 m 5
 460 54 l 6
 460 16.2705078125 445.075195312 0 408 0 c 6
 72 0 l 6
 34.9276648127 0 22 16.2730356715 22 54 c 6
 22 238 l 6
 22 274.666666667 40.6666666667 293 78 293 c 6
 203.09375 293 l 5
 203.09375 360 l 6
 203.09375 377.568684816 188.666992188 380 178 380 c 6
 21.9990234375 380 l 5
 21.9990234375 412 l 5
 189 412 l 6
 224.222351074 412 239.994140625 396.405273438 239.99609375 360 c 6
 240 261 l 5
 87 261 l 6
 71.1673599821 261 59 254.975965666 59 233 c 6
 59 58 l 6
 59 43.3330078125 60.9580078125 32 78 32 c 6
 400.799804688 32 l 6
 416.448242188 32 423 40.7400135297 423 61 c 6
 423 415 l 5
 460 415 l 5
460 400 m 5
 423 400 l 5
 423 465 l 6
 423 505.980913355 410.364053106 518 375 518 c 6
 14 518 l 5
 14 550 l 5
 82 550 l 5
 52.6669921875 557.333007812 50 582.666992188 50 604 c 6
 50 632 l 6
 50 659.333333333 66.3333333333 673 99 673 c 6
 458 673 l 5
 458 641 l 5
 102.5 641 l 6
 87.53125 641 87 633.667282104 87 616 c 4
 87 573.677734375 97.3973370288 550 168 550 c 6
 383 550 l 6
 443.379036403 550 460 528.467891223 460 469 c 6
 460 400 l 5
EndSplineSet
EndChar

StartChar: si_VI
Encoding: 372 -1 397
GlifName: si_V_I_
Width: 518
VWidth: 1000
Flags: HW
LayerCount: 2
Back
Fore
SplineSet
460 415 m 1
 460 54 l 2
 460 16.2705078125 445.075195312 0 408 0 c 2
 72 0 l 2
 34.9276648127 0 22 16.2730356715 22 54 c 2
 22 238 l 2
 22 274.666666667 40.6666666667 293 78 293 c 2
 203.09375 293 l 1
 203.09375 360 l 2
 203.09375 377.568684816 188.666992188 380 178 380 c 2
 21.9990234375 380 l 1
 21.9990234375 412 l 1
 189 412 l 2
 224.222351074 412 239.994140625 396.405273438 239.99609375 360 c 2
 240 261 l 1
 87 261 l 2
 71.1673599821 261 59 254.975965666 59 233 c 2
 59 58 l 2
 59 43.3330078125 60.9580078125 32 78 32 c 2
 400.799804688 32 l 2
 416.448242188 32 423 40.7400135297 423 61 c 2
 423 415 l 1
 460 415 l 1
460 400 m 1
 423 400 l 1
 423 457 l 2
 423 496.378218516 413.940914958 509.5 381 509.5 c 2
 69 509.5 l 2
 37.6669921875 509.5 22 525.5 22 557.5 c 2
 22 620 l 2
 22 653.415199923 36.1038354598 672 72 672 c 2
 458.5 672 l 1
 458.5 640 l 1
 84 640 l 2
 63.0830078125 640 58.875 635.55848028 58.875 611 c 2
 58.875 566 l 2
 58.875 552.489578247 60.4326171875 541.5 83 541.5 c 2
 387 541.5 l 2
 438.204481587 541.5 460 524.660018202 460 463 c 2
 460 400 l 1
EndSplineSet
EndChar

StartChar: si_VIi
Encoding: 373 -1 398
GlifName: si_V_I_i
Width: 518
VWidth: 1000
Flags: HW
LayerCount: 2
Back
Fore
SplineSet
460 415 m 1
 460 54 l 2
 460 16.2705078125 445.075195312 0 408 0 c 2
 72 0 l 2
 34.9276648127 0 22 16.2730356715 22 54 c 2
 22 238 l 2
 22 274.666666667 40.6666666667 293 78 293 c 2
 203.09375 293 l 1
 203.09375 360 l 2
 203.09375 377.568684816 188.666992188 380 178 380 c 2
 21.9990234375 380 l 1
 21.9990234375 412 l 1
 189 412 l 2
 224.222351074 412 239.994140625 396.405273438 239.99609375 360 c 2
 240 261 l 1
 87 261 l 2
 71.1673599821 261 59 254.975965666 59 233 c 2
 59 58 l 2
 59 43.3330078125 60.9580078125 32 78 32 c 2
 400.799804688 32 l 2
 416.448242188 32 423 40.7400135297 423 61 c 2
 423 415 l 1
 460 415 l 1
423 405 m 1
 423 479.5 l 2
 423 497.690429688 405.682617188 509.5 387 509.5 c 2
 65 509.5 l 2
 35.1572265625 509.5 22 518.271484375 22 550.5 c 2
 22 618 l 2
 22 654.859629233 35.4108204097 672 72 672 c 2
 410 672 l 2
 446.587890625 672 460 654.858398438 460 618 c 2
 460 570 l 2
 460 547.837890625 450.686523438 532.870117188 433 528 c 1
 454.911132812 521.15234375 460 504.274414062 460 475 c 2
 460 405 l 1
 423 405 l 1
272 539 m 21
 261.999740561 541.999659452 254 550.291992188 254 567 c 2
 254 621 l 2
 254 633.107421875 260.500976562 638.25 264 640 c 1
 263.852539062 640 75.875 640 75.875 640 c 2
 64.5419921875 640 58.875 635.333007812 58.875 626 c 2
 58.875 554 l 2
 58.875 544 64.2080078125 539 74.875 539 c 2
 272 539 l 21
315 640 m 2
 299.450195312 640 291 630.698242188 291 616 c 2
 291 570.5 l 2
 291 551.6015625 307.266601562 545.5 324.5 545.5 c 2
 387 545.5 l 2
 403.344726562 545.5 423 550.392578125 423 577 c 2
 423 627.5 l 2
 423 636.697265625 415.693359375 640 408.5 640 c 2
 315 640 l 2
EndSplineSet
EndChar

StartChar: si_VRa
Encoding: 377 -1 401
GlifName: si_V_R_a
Width: 514
VWidth: 0
Flags: HW
LayerCount: 2
Back
Fore
SplineSet
46.1543 -44 m 257
 74.334 -44 l 257
 108.592 -119.333 170.879 -157 273.01 -157 c 256
 411.663 -157 516.947 -90 516.947 50 c 256
 516.947 71 511.271 99.6521 500 112 c 257
 518 142 l 257
 540.278 109.27 545.846 74.667 545.846 38 c 256
 545.846 -123.729 428.146 -219 288.524 -219 c 256
 159.566 -219 82.3516 -153.333 46.1543 -44 c 257
EndSplineSet
Refer: 473 3520 N 1 0 0 1 0 0 2
EndChar

StartChar: si_VUu
Encoding: 375 -1 403
GlifName: si_V_U_u
Width: 514
VWidth: 0
Flags: HW
LayerCount: 2
Back
Fore
SplineSet
46 -138 m 256
 46 -80 95 -40 148 -40 c 256
 190 -40 222.333 -55 245 -91 c 257
 215 -102 l 257
 203 -83 182 -68 153 -68 c 256
 114 -68 82 -92 82 -129 c 256
 82 -166.366 113 -191 156 -191 c 256
 240 -191 306.75 -117 401.75 -117 c 256
 449.344 -117 480.794 -133.538 505 -159.75 c 257
 505 152 l 257
 538 212 l 257
 538 -231 l 257
 515 -231 l 257
 500 -195 469.625 -144 404.75 -144 c 256
 313.75 -144 255 -237 157 -237 c 256
 102 -237 46 -206 46 -138 c 256
EndSplineSet
Refer: 473 3520 N 1 0 0 1 0 0 2
EndChar

StartChar: si_Va.reph
Encoding: 376 -1 404
GlifName: si_V_a.reph
Width: 514
VWidth: 0
Flags: HW
LayerCount: 2
Back
Fore
SplineSet
252.836 621 m 256
 252.836 641.554 271.434 658.193 293.75 658.193 c 256
 316.066 658.193 334.664 641.554 334.664 621 c 256
 334.664 600.446 316.066 583.807 293.75 583.807 c 256
 271.434 583.807 252.836 600.446 252.836 621 c 256
150.75 640 m 256
 150.75 584 209.75 555 268.75 555 c 256
 326.75 555 361.75 581 361.75 620 c 256
 361.75 655 333.75 682 292.75 682 c 256
 257.104 682 225.75 657 225.75 622 c 256
 225.75 601 238.25 586.25 246.25 580.25 c 257
 223.054 582.216 182 600.925 182 640 c 256
 182 692.556 236.972 713.75 289.75 713.75 c 256
 350.75 713.75 401.5 683.241 401.5 626 c 256
 401.5 598.734 386.17 574.387 373 562 c 257
 406.75 562 l 257
 423.417 581.333 431.75 603 431.75 627 c 256
 431.75 698 367.75 741 290.75 741 c 256
 208.87 741 150.75 704 150.75 640 c 256
EndSplineSet
Refer: 473 3520 N 1 0 0 1 0 0 2
EndChar

StartChar: anusvara
Encoding: 2 3458 419
GlifName: anusvara
Width: 364
VWidth: 0
Flags: HW
LayerCount: 2
Back
Fore
SplineSet
67.0039 176 m 256
 67.0039 119.723 114.449 74.1182 173 74.1182 c 256
 231.551 74.1182 278.996 119.723 278.996 176 c 256
 278.996 232.277 231.551 277.882 173 277.882 c 256
 114.449 277.882 67.0039 232.277 67.0039 176 c 256
29.8936 165 m 256
 29.8936 242.111 94.3467 305.301 173 305.301 c 256
 251.653 305.301 316.106 242.111 316.106 165 c 256
 316.106 87.8887 251.653 24.6992 173 24.6992 c 256
 94.3467 24.6992 29.8936 87.8887 29.8936 165 c 256
EndSplineSet
EndChar

StartChar: visarga
Encoding: 3 3459 420
GlifName: visarga
Width: 248
VWidth: 0
Flags: HW
LayerCount: 2
Back
Fore
SplineSet
60.46 111 m 256
 60.46 80.7002 84.7002 56.46 115 56.46 c 256
 145.3 56.46 169.54 80.7002 169.54 111 c 256
 169.54 141.3 145.3 165.54 115 165.54 c 256
 84.7002 165.54 60.46 141.3 60.46 111 c 256
31 110 m 256
 31 156 69 194 115 194 c 256
 161 194 199 156 199 110 c 256
 199 64 161 26 115 26 c 256
 69 26 31 64 31 110 c 256
60.46 313 m 256
 60.46 282.7 84.7002 258.46 115 258.46 c 256
 145.3 258.46 169.54 282.7 169.54 313 c 256
 169.54 343.3 145.3 367.54 115 367.54 c 256
 84.7002 367.54 60.46 343.3 60.46 313 c 256
31 312 m 256
 31 358 69 396 115 396 c 256
 161 396 199 358 199 312 c 256
 199 266 161 228 115 228 c 256
 69 228 31 266 31 312 c 256
EndSplineSet
EndChar

StartChar: si_A
Encoding: 4 3461 421
GlifName: si_A_
Width: 542
VWidth: 1000
Flags: HW
LayerCount: 2
Back
SplineSet
270.000976562 429 m 2
 270.001107931 472.315882791 299.807293289 497.000976562 332.000976562 497.000976562 c 2
 516 497.000976562 l 1
 516 419.000976562 l 1
 480 419.000976562 l 2
 468.646835157 418.773034168 467 412.333984375 467 409.000976562 c 0
 467 394.737270164 513 375.790215126 513 322 c 2
 513 224 l 2
 513 190.379599008 496.152145327 171.000976562 463 171.000976562 c 2
 394 171.000976562 l 1
 394 107.000976562 l 1
 511 107.000976562 l 1
 511 0.0009765625 l 1
 394 0.0009765625 l 1
 394 -139.999023438 l 1
 270 -139.999023438 l 1
 270 0.0009765625 l 1
 69.9990234375 0 l 2
 33 -0 21.9990234375 14.0517578125 21.9990234375 51 c 2
 21.9990234375 299 l 2
 21.9990234375 336.333007812 40.33203125 355 76.9990234375 355 c 2
 150 355 l 1
 150 377 l 2
 150 392.225585938 144.532226562 394 129 394 c 2
 21.9990234375 394 l 1
 21.9990234375 497 l 1
 169 497 l 2
 212.33203125 497 241.000976562 474.112304688 241.000976562 431 c 2
 241 253 l 1
 168.999023438 253 l 2
 148.81640625 253 145.999023438 248.130859375 145.999023438 228 c 2
 145.999023438 128 l 2
 145.999023438 114 152 107 162.999023438 107 c 2
 270 107.000976562 l 1
 270.000976562 429 l 2
393 265.000976562 m 1
 410 265.000976562 l 2
 425.644991267 265.000976562 428 269.543895949 428 286.000976562 c 2
 428 329 l 2
 428 358.308897155 407.00390625 375.50390625 407.00390625 392.006835938 c 0
 407.00390625 394.672851562 407.455078125 397.952148438 409.00390625 400.006835938 c 1
 400.236328125 398.33203125 393 392.916992188 393 376.204101562 c 2
 393 265.000976562 l 1
EndSplineSet
Fore
SplineSet
322.389648438 428.999023438 m 2
 322.389648438 472.314453125 345.84765625 496.999023438 384.00390625 496.999023438 c 2
 493 497 l 1
 493 465.999023438 l 1
 457 465.999023438 l 2
 445.646484375 465.771484375 444 459.33203125 444 455.999023438 c 0
 444 441.735351562 490 403.788085938 490 349.998046875 c 2
 490 251.998046875 l 2
 490 218.377929688 473.15234375 198.999023438 440 198.999023438 c 2
 359.388671875 198.999023438 l 1
 359.388671875 31.9990234375 l 1
 488 31.9990234375 l 1
 488 0 l 1
 359.388671875 0 l 1
 359.388671875 -140 l 1
 322.388671875 -140 l 1
 322.388671875 0 l 1
 69.9990234375 0 l 2
 33.0000000004 0 21.9990234375 14.0517578125 21.9990234375 51 c 2
 21.9990234375 297 l 2
 21.9990234375 334.333007812 40.5322265625 353 77.19921875 353 c 2
 227 352.999023438 l 1
 227 422.999023438 l 2
 227 460.607421875 207.098632812 465.999023438 182 465.999023438 c 2
 21.9990234375 466 l 1
 21.9990234375 497 l 1
 192 496.999023438 l 2
 238.888671875 496.999023438 264.000976562 474.111328125 264.000976562 430.999023438 c 2
 264 320.999023438 l 1
 88.2001953125 321 l 2
 65.3369140625 321 59 311.682114597 59 287 c 2
 59 59 l 2
 59 36.9079654706 63.5966796881 32.0000704069 81 32 c 2
 322.388671875 31.9990234375 l 1
 322.389648438 428.999023438 l 2
359.388671875 231.400390625 m 1
 428 231.400390625 l 2
 446.854492188 231.400390625 453 237.006835938 453 258.999023438 c 2
 453 349.999023438 l 2
 453 394.05859375 405.38671875 427.69921875 405.38671875 457.999023438 c 0
 405.38671875 460.665039062 405.837890625 463.944335938 407.38671875 465.999023438 c 1
 379.997070312 465.999023438 359.388671875 463.102539062 359.388671875 426.999023438 c 2
 359.388671875 231.400390625 l 1
EndSplineSet
EndChar

StartChar: si_I
Encoding: 8 3465 425
GlifName: si_I_
Width: 519
VWidth: 1000
Flags: HW
LayerCount: 2
Back
Fore
SplineSet
256.194335938 346 m 5
 256.194335938 206 l 6
 256.194335938 172.077148438 236.188476562 156 202.997070312 156 c 6
 78 156 l 2
 41.240325831 156 22 172.981432995 22 210 c 2
 22 442 l 2
 22 476.485944892 43.9778827628 497 83.0009765625 497 c 2
 402.999023438 497 l 6
 446.528320312 497 464 474.965820312 464 442 c 6
 464 74 l 6
 464 41.943359375 457.173828125 22.384765625 431.6015625 14.7958984375 c 5
 445.669921875 6.1865234375 447 -8 447 -32 c 6
 447 -99.0048828125 l 6
 447 -141.627929688 429.966796875 -159.004882812 390.999023438 -159.004882812 c 6
 46.203125 -159.004882812 l 1
 46.203125 -126.999023438 l 1
 380.999023438 -126.999023438 l 6
 400.75 -126.999023438 409.999023438 -123.37890625 409.999023438 -101.999023438 c 6
 409.999023438 -30 l 6
 409.999023438 -14.9248046875 402.912109375 0 376.999023438 0 c 6
 47.0009765625 0.0009765625 l 1
 47.0009765625 32.0009765625 l 1
 365.19921875 32 l 6
 409.1015625 32 426.999023438 38.6923828125 426.999023438 75 c 6
 426.999023438 437 l 6
 426.999023438 459.171875 415.633789062 465 394.999023438 465 c 6
 94 465 l 2
 69.7105467834 465 59 457.362958156 59 437 c 2
 59 218.400390625 l 2
 59 197.797851562 61.519864222 188 91.3984375 188 c 2
 197.194335938 188 l 6
 216.43359375 188 218.998046875 199.83984375 218.998046875 217 c 6
 218.998046875 346 l 5
 256.194335938 346 l 5
EndSplineSet
EndChar

StartChar: si_Ii
Encoding: 9 3466 426
GlifName: si_I_i
Width: 451
VWidth: 1000
Flags: HW
LayerCount: 2
Back
Fore
SplineSet
22 48.2001953125 m 2
 22 11.8603515625 38.224609375 0 67.6015625 0 c 2
 338.798828125 0 l 6
 389.643554688 0 394 32.0947265625 394 61 c 6
 394 438 l 6
 394 473.88671875 375.534179688 497 332.999023438 497 c 6
 116.59765625 497.000976562 l 1
 316 663.000976562 l 1
 264 663.000976562 l 1
 63.0009765625 498.000976562 l 2
 36.7940819228 476.487749574 22 459.123273608 22 430 c 2
 22 48.2001953125 l 2
59 417 m 2
 59 450.110696917 75.0009765642 465.000211151 99.0009765625 465 c 2
 320.999023438 464.998046875 l 6
 346.579101562 464.998046875 358.799804688 456.100585938 358.799804688 424 c 6
 358.799804688 64.1962890625 l 6
 358.799804688 34.2880859375 350.603515625 32 332.206054688 32 c 22
 95.201171875 32.0009765625 l 2
 61.731445313 32.0011144722 59 36.6552734375 59 70.7958984375 c 2
 59 417 l 2
21.99609375 663.000976562 m 1
 123.99609375 663.000976562 l 1
 123.99609375 569.000976562 l 1
 21.99609375 569.000976562 l 1
 21.99609375 663.000976562 l 1
306 612.000976562 m 5
 408 612.000976562 l 5
 408 518.000976562 l 5
 306 518.000976562 l 5
 306 612.000976562 l 5
50.99609375 640.999023438 m 1
 50.99609375 589.999023438 l 1
 94.99609375 589.999023438 l 1
 94.99609375 640.999023438 l 1
 50.99609375 640.999023438 l 1
335 590.000976562 m 5
 335 539.000976562 l 5
 379 539.000976562 l 5
 379 590.000976562 l 5
 335 590.000976562 l 5
EndSplineSet
EndChar

StartChar: si_U
Encoding: 10 3467 427
GlifName: si_U_
Width: 521
VWidth: 1000
Flags: HW
LayerCount: 2
Back
Fore
SplineSet
93.0009765625 497 m 1
 407.999023438 497 l 6
 448.665039062 497 473 478.366210938 473 438 c 6
 473 321 l 5
 106.600585938 321 l 2
 72.015625 321 59 312.879423888 59 279 c 2
 59 -73 l 2
 59 -110.977600042 64.8389314161 -121.000976562 93 -121.000976562 c 2
 410.999023438 -121.000976562 l 6
 435.024414062 -121.000976562 438.998046875 -105.333007812 438.998046875 -92 c 6
 438.998046875 97.986328125 l 5
 476 97.986328125 l 5
 476 -92 l 6
 476 -138.040039062 456.333007812 -153 417 -153 c 6
 76 -153 l 2
 34.089320409 -153 22.0009765625 -122.86328125 22.0009765625 -86 c 2
 22.0009765625 280.995117188 l 2
 22.0009765625 328.995117188 46.6679687457 352.9944087 96.0009765625 352.995117188 c 2
 435.998046875 353 l 5
 435.999023438 433 l 6
 435.999023438 449.373046875 431.482421875 465 402.999023438 465 c 6
 93.0009765625 465 l 1
 93.0009765625 497 l 1
EndSplineSet
EndChar

StartChar: si_vocalicR
Encoding: 12 3469 429
GlifName: si_vocalicR_
Width: 908
VWidth: 1000
Flags: HW
LayerCount: 2
Back
Fore
SplineSet
266.02734375 34.724609375 m 5
 274.0703125 10.994140625 300.773628688 0 318.799804688 0 c 6
 460 0 l 6
 497.07421875 0 510 16.2705078125 510 54 c 6
 510 298 l 6
 510 334.666992188 491.333007812 353 454 353 c 6
 326.225585938 353 l 5
 326.225585938 435 l 6
 326.225585938 457.98046875 338.963708375 465 362.225585938 465 c 6
 509 465 l 5
 509 497 l 5
 352.225585938 497 l 6
 310.898464945 497 290.225585938 478 290.225585938 440 c 6
 290.225585938 321 l 5
 450.0078125 321 l 6
 463.408203125 321 473 313.32421875 473 300.20703125 c 6
 473 55.892578125 l 6
 473 39.9638671875 466.499023438 32 453.505859375 32 c 6
 332.799804688 32 l 6
 297.731743946 32 285.286132812 62.4384765625 285.286132812 93 c 6
 285.286132812 165 l 5
 265.227539062 165 l 5
 247.94140625 165 l 5
 247.94140625 93 l 6
 247.94140625 62.4384765625 235.49609375 32 200.427734375 32 c 6
 78.5205078125 32 l 6
 65.52734375 32 59.0263671875 39.9638671875 59.0263671875 55.892578125 c 6
 59.0263671875 300.20703125 l 6
 59.0263671875 313.32421875 68.6181640625 321 82.0185546875 321 c 6
 241.80078125 321 l 5
 241.80078125 440 l 6
 241.80078125 478 221.127929688 497 179.80078125 497 c 6
 23.0263671875 497 l 5
 23.0263671875 465 l 5
 169.80078125 465 l 6
 193.0625 465 205.80078125 457.98046875 205.80078125 435 c 6
 205.80078125 353 l 5
 78.0263671875 353 l 6
 40.693359375 353 22.0263671875 334.666992188 22.0263671875 298 c 6
 22.0263671875 54 l 6
 22.0263671875 16.2705078125 34.9521484375 0 72.0263671875 0 c 6
 214.427734375 0 l 6
 232.454101562 0 257.358398438 10.994140625 266.02734375 34.724609375 c 5
EndSplineSet
Refer: 488 3544 N 1 0 0 1 565 0 2
EndChar

StartChar: si_vocalicRr
Encoding: 13 3470 430
GlifName: si_vocalicR_r
Width: 1243
VWidth: 0
Flags: HW
LayerCount: 2
Back
Fore
SplineSet
266.02734375 34.724609375 m 5
 274.0703125 10.994140625 300.773628688 0 318.799804688 0 c 6
 460 0 l 6
 497.07421875 0 510 16.2705078125 510 54 c 6
 510 298 l 6
 510 334.666992188 491.333007812 353 454 353 c 6
 326.225585938 353 l 5
 326.225585938 435 l 6
 326.225585938 457.98046875 338.963708375 465 362.225585938 465 c 6
 509 465 l 5
 509 497 l 5
 352.225585938 497 l 6
 310.898464945 497 290.225585938 478 290.225585938 440 c 6
 290.225585938 321 l 5
 450.0078125 321 l 6
 463.408203125 321 473 313.32421875 473 300.20703125 c 6
 473 55.892578125 l 6
 473 39.9638671875 466.499023438 32 453.505859375 32 c 6
 332.799804688 32 l 6
 297.731743946 32 285.286132812 62.4384765625 285.286132812 93 c 6
 285.286132812 165 l 5
 265.227539062 165 l 5
 247.94140625 165 l 5
 247.94140625 93 l 6
 247.94140625 62.4384765625 235.49609375 32 200.427734375 32 c 6
 78.5205078125 32 l 6
 65.52734375 32 59.0263671875 39.9638671875 59.0263671875 55.892578125 c 6
 59.0263671875 300.20703125 l 6
 59.0263671875 313.32421875 68.6181640625 321 82.0185546875 321 c 6
 241.80078125 321 l 5
 241.80078125 440 l 6
 241.80078125 478 221.127929688 497 179.80078125 497 c 6
 23.0263671875 497 l 5
 23.0263671875 465 l 5
 169.80078125 465 l 6
 193.0625 465 205.80078125 457.98046875 205.80078125 435 c 6
 205.80078125 353 l 5
 78.0263671875 353 l 6
 40.693359375 353 22.0263671875 334.666992188 22.0263671875 298 c 6
 22.0263671875 54 l 6
 22.0263671875 16.2705078125 34.9521484375 0 72.0263671875 0 c 6
 214.427734375 0 l 6
 232.454101562 0 257.358398438 10.994140625 266.02734375 34.724609375 c 5
EndSplineSet
Refer: 496 3570 S 1 0 0 1 561 -1 2
EndChar

StartChar: si_E
Encoding: 16 3473 433
GlifName: si_E_
Width: 534
VWidth: 1000
Flags: HW
LayerCount: 2
Back
Fore
SplineSet
187.201171875 631.999023438 m 5
 187.201171875 510.600585938 l 6
 187.201171875 490.330078125 193.126953125 488.216796875 213 488.216796875 c 6
 444.803710938 488.216796875 l 5
 444.803710938 494.198242188 l 6
 444.803710938 527.53125 422.433109423 538.494610076 399 550.399414062 c 6
 261.599609375 621.801757812 l 6
 243.895507812 630.91796875 221.226226917 631.929191407 201 631.970703125 c 6
 187.201171875 631.999023438 l 5
482 494 m 6
 482 51 l 6
 482 19.9501953125 464.854492188 0 436 0 c 6
 86 0 l 6
 56.4320251969 0 38 13.2377204694 38 44 c 6
 38 179.400390625 l 6
 38 218.525390625 55.3330078125 231.666992188 68 239 c 5
 4 239 l 5
 4 271.1953125 l 5
 245 271.1953125 l 5
 245 342 l 6
 245 367.801757812 232.912109375 374.999023438 213 374.999023438 c 6
 41 374.999023438 l 5
 41 407 l 5
 222 407 l 6
 262.938476562 407 282 384.4296875 282 346 c 6
 282 239 l 5
 161 239 l 6
 97.3271484375 239 75.603515625 215.834960938 75.603515625 173.400390625 c 6
 75.603515625 56.201171875 l 6
 75.603515625 40.0146484375 79.3342102221 32 100 32 c 6
 422.798828125 32 l 6
 438.525390625 32 444.801757812 40.80859375 444.801757812 60 c 6
 444.801757812 456.21484375 l 5
 196 456.21484375 l 6
 162.7109375 456.21484375 150.216796875 467.186523438 150.216796875 503.600585938 c 6
 150.216796875 631.998046875 l 5
 80.216796875 631.998046875 l 5
 80.216796875 664 l 5
 202.799804688 664 l 6
 233.990234375 664 252.477663273 663.334109278 288 645 c 6
 288.476409522 644.89350846 412 581 412 581 c 6
 448.407226562 565.041015625 482 545.567382812 482 494 c 6
EndSplineSet
EndChar

StartChar: si_Ee
Encoding: 17 3474 434
GlifName: si_E_e
Width: 534
VWidth: 1000
Flags: HW
LayerCount: 2
Back
Fore
SplineSet
444.998046875 708 m 1
 482 708 l 1
 482 480 l 1
 444.999023438 480 l 1
 444.998046875 708 l 1
EndSplineSet
Refer: 433 3473 N 1 0 0 1 0 0 2
EndChar

StartChar: si_Os
Encoding: 19 3476 436
GlifName: si_O_s
Width: 515
VWidth: 1000
Flags: HW
LayerCount: 2
Back
Fore
SplineSet
282.186523438 251.604492188 m 6
 193.7890625 251.604492188 l 6
 172.227539062 251.604492188 158.790039062 259.911132812 158.790039062 281.604492188 c 6
 158.790039062 413 l 6
 158.790039063 421.687744017 154.963867188 426.602539062 146 426.602539062 c 6
 88 426.602539062 l 6
 68.8974609375 426.602539062 59 415.189527069 59 390 c 6
 59 62.8046875 l 6
 59 38.8075130435 62.8700868119 32 86 32 c 6
 182.399414062 32 l 6
 206.09765625 32 222.401367188 38.9306640625 222.401367188 78 c 6
 222.401367188 176.1953125 l 5
 259.3984375 176.1953125 l 5
 259.3984375 78.001953125 l 6
 259.3984375 39.5283203125 276.04296875 32 301.400390625 32 c 6
 395.3984375 32 l 6
 417.689453125 32 422.797851562 42.2314453125 422.797851562 62 c 6
 422.797851562 552 l 6
 422.797851562 583.04296875 409.478515625 594 378.998046875 594 c 6
 22.0009765625 594 l 5
 22.0009765625 626 l 5
 386.998046875 626 l 6
 429.306640625 626 459.99609375 609.263671875 459.99609375 560 c 6
 459.99609375 50 l 6
 459.99609375 19.6376953125 446.39453125 -4.08988976926e-15 412.998046875 0 c 6
 290.202148438 0 l 6
 264.2109375 0 246.166015625 8.126953125 241.202148438 28 c 5
 236.973632812 9.8193359375 217.471679688 0 194.202148438 0 c 6
 69 0 l 6
 37.6095578425 0 22 15.0175781253 22 48 c 6
 22 394 l 6
 22 432.5546875 40.0200264343 459 81 459 c 6
 154.981445312 459 l 6
 180.973632812 459 195.982421875 449.978515625 195.982421875 424 c 6
 195.982421875 300.604492188 l 6
 195.982421875 289.227539062 200.08984375 283.801757812 209.982421875 283.801757812 c 6
 269.189453125 283.801757812 l 6
 279.572265625 283.801757812 283.9921875 288.791992188 283.9921875 300.604492188 c 6
 283.9921875 459 l 5
 321.186523438 459 l 5
 321.186523438 286.604492188 l 6
 321.186523438 263.271484375 308.186523438 251.604492188 282.186523438 251.604492188 c 6
EndSplineSet
EndChar

StartChar: si_Oo
Encoding: 20 3477 437
GlifName: si_O_o
Width: 515
VWidth: 1000
Flags: HW
LayerCount: 2
Back
Fore
SplineSet
460 400 m 1
 423 400 l 1
 423 484 l 2
 423 513.545898438 406.061523438 518 387 518 c 2
 14 518 l 1
 14 550 l 1
 82 550 l 1
 52.6669921875 557.333007812 50 582.666992188 50 604 c 2
 50 632 l 2
 50 659.333333333 66.3333333333 673 99 673 c 2
 458 673 l 1
 458 641 l 1
 102.5 641 l 2
 87.53125 641 87 633.667282104 87 616 c 0
 87 573.677734375 97.3973370288 550 168 550 c 2
 391 550 l 2
 446.44140625 550 460 525.686523438 460 469 c 2
 460 400 l 1
423 415.000976562 m 25
 459.99609375 415.000976562 l 25
 459.99609375 50 l 2
 459.99609375 19.6376953125 446.39453125 -4.08988976926e-15 412.998046875 0 c 2
 290.202148438 0 l 2
 264.2109375 0 246.166015625 8.126953125 241.202148438 28 c 1
 236.973632812 9.8193359375 217.471679688 0 194.202148438 0 c 2
 69 0 l 2
 37.6095578425 0 22 15.0175781253 22 48 c 2
 22 361.998046875 l 2
 22 400.552734375 40.0205078125 426.998046875 81 426.998046875 c 2
 154.981445312 426.998046875 l 2
 180.973632812 426.998046875 195.982421875 417.9765625 195.982421875 391.998046875 c 2
 195.982421875 268.602539062 l 2
 195.982421875 257.225585938 200.08984375 251.799804688 209.982421875 251.799804688 c 2
 269.189453125 251.799804688 l 2
 279.572265625 251.799804688 283.9921875 256.790039062 283.9921875 268.602539062 c 2
 283.9921875 426.998046875 l 1
 321.186523438 426.998046875 l 1
 321.186523438 254.602539062 l 2
 321.186523438 231.26953125 308.186523438 219.602539062 282.186523438 219.602539062 c 2
 193.7890625 219.602539062 l 2
 172.227539062 219.602539062 158.790039062 227.909179688 158.790039062 249.602539062 c 2
 158.790039062 382 l 2
 158.790039062 388.998046875 155.947265625 394 146.982421875 394 c 2
 86 394 l 2
 66.8974609375 394 59 382.668945312 59 361 c 2
 59 62.8046875 l 2
 59 38.8075130435 62.8700868119 32 86 32 c 2
 182.399414062 32 l 2
 206.09765625 32 222.401367188 38.9306640625 222.401367188 78 c 2
 222.401367188 150 l 1
 259.3984375 150 l 1
 259.3984375 78.001953125 l 2
 259.3984375 39.5283203125 276.04296875 32 301.400390625 32 c 2
 395.3984375 32 l 2
 417.689453125 32 422.786589108 42.3887481953 422.797851562 62 c 2
 423 415.000976562 l 25
EndSplineSet
EndChar

StartChar: si_Ka
Encoding: 22 3482 439
GlifName: si_K_a
Width: 592
VWidth: 1000
Flags: HW
LayerCount: 2
Back
Fore
SplineSet
330.994140625 307.80859375 m 6
 330.994140625 326.779296875 321.033203125 332.80859375 305.994140625 332.80859375 c 6
 163 332.809570312 l 5
 71.203125 256 l 5
 97.984375 256 l 5
 97.984375 228.200195312 l 5
 63.9150390625 209.637695312 58.984375 193.123426584 58.984375 146.013671875 c 6
 58.984375 56 l 6
 58.984375 38.6669921875 64.630859375 32 79.3837890625 32 c 6
 133.797851562 32 l 6
 173.903320312 32 176.197265625 61.5810546875 176.197265625 94 c 6
 176.197265625 188 l 5
 213.3984375 188.002929688 l 5
 213.3984375 94 l 6
 213.3984375 61.568359375 213.90234375 32 251.797851562 32 c 6
 305 32 l 6
 326.589120023 32 330.994140625 46.0009765625 330.994140625 64 c 6
 330.994140625 307.80859375 l 6
192.995117188 404.206054688 m 5
 274.005859375 472 l 6
 297.624494819 491.765285891 320.747070312 497 339.208984375 497 c 6
 481.59765625 497 l 6
 516.822265625 497 537.985351562 474.330543237 537.985351562 441 c 6
 537.985351562 54 l 6
 537.985351562 19.2628786929 515.11858435 -3.56599811205e-15 486 0 c 6
 385.799804688 0 l 5
 385.799804688 31.9970703125 l 5
 475.19921875 31.998046875 l 6
 492.206976043 31.9982326608 500.9765625 43.8652398548 500.9765625 63 c 6
 500.9765625 432 l 6
 500.9765625 452.243699974 491.239500008 465 468.59765625 465 c 6
 355.815429688 465 l 6
 328.594726562 465 312.182924806 457.315613392 292.609375 441 c 6
 201.205078125 364.809570312 l 5
 320.994140625 364.80859375 l 6
 346.368164062 364.80859375 367.994140625 350.016601562 367.994140625 315.80859375 c 6
 367.994140625 52.9990234375 l 6
 367.994140625 19.49609375 344.573242188 -0.0009765625 316.809570312 -0.0009765625 c 6
 230.997070312 0 l 6
 212.040039062 0 198.6640625 9.6669921875 193.997070312 29.0009765625 c 5
 189.330078125 9.6669921875 172.689453125 0 154.997070312 0 c 6
 66.984375 0 l 6
 38.4755859375 0 21.984375 19.74609375 21.984375 46 c 6
 21.984375 156.010742188 l 6
 21.984375 198.780874003 29.92578125 215.780273438 44.783203125 224.799804688 c 5
 12 224.799804688 l 5
 12 252.991210938 l 5
 156.9921875 374.2109375 l 5
 156.831054688 430 l 6
 156.777345124 454.001013717 150.944422432 465 128 465 c 6
 38 465 l 5
 38 497.000976562 l 5
 147.1953125 497 l 6
 175.43359375 497 192.909179688 477.275390625 192.947265625 440.798828125 c 6
 192.995117188 404.206054688 l 5
EndSplineSet
EndChar

StartChar: si_Kha
Encoding: 23 3483 440
GlifName: si_K_ha
Width: 517
VWidth: 1000
Flags: HW
LayerCount: 2
Back
Fore
SplineSet
22 433.001953125 m 6
 22 468.967773438 40.6513671875 496.9765625 81 496.9765625 c 6
 231.19140625 496.9765625 l 6
 263.717773438 496.9765625 287.19140625 479.669921875 287.19140625 442.001953125 c 6
 286.590820312 212 l 5
 250.403320312 111.80078125 l 5
 256.577148438 96.876953125 292.041992188 32 333.407226562 32 c 6
 400.00390625 32 l 6
 419.401367188 32 423.006835938 49.201171875 423.006835938 63.201171875 c 6
 423.006835938 557 l 6
 423.006835938 583.624023438 409.20703125 593.998046875 378.205078125 593.998046875 c 2
 21.998046875 593.998046875 l 1
 21.998046875 626 l 1
 390 626 l 2
 429.286132812 626 460 606.2421875 460 566 c 6
 460 51 l 6
 460 26.0732421875 448.266601562 0 414.004882812 0 c 6
 316.407226562 0 l 6
 283.07421875 0 244.1640625 46.2275390625 234.805664062 68.0009765625 c 5
 208.006835938 -5 l 5
 169.807617188 -5 l 5
 250 216.59765625 l 5
 250.000976562 433.600585938 l 6
 250.000976562 449.891601562 243.139648438 464.802734375 222.998046875 464.802734375 c 6
 88 464.802734375 l 6
 68.18359375 464.802734375 59 451.118164062 59 430.001953125 c 6
 59 57 l 6
 59 39.127112055 64.625 32 81.001953125 32 c 6
 133.002929688 32 l 5
 133 0 l 5
 65 0 l 6
 38.3046995551 0 22 16.7641508739 22 48 c 6
 22 433.001953125 l 6
EndSplineSet
EndChar

StartChar: si_Ga
Encoding: 24 3484 441
GlifName: si_G_a
Width: 590
VWidth: 1000
Flags: HW
LayerCount: 2
Back
Fore
SplineSet
185.997070312 497 m 5
 77 496.999023438 l 6
 40.3330078172 496.998703727 22 478.666015625 22 441.999023438 c 6
 22 56 l 6
 22 19.0517578125 33.361328125 0 70 0 c 6
 253.583007812 0 l 6
 301.182617188 0 320.583007812 12.607421875 320.583007812 60 c 6
 320.583007812 242 l 6
 320.583007812 270.666992188 308.25 285 283.583007812 285 c 6
 259.575195312 285 l 5
 286.997070312 435 l 6
 290.479492188 454.046875 300.491210938 465 328.997070312 465 c 6
 462 465 l 6
 491.913897409 465 500.9765625 454.592836392 500.9765625 426 c 6
 500.9765625 72 l 6
 500.9765625 40.2385868427 494.082375709 32 466 32 c 6
 385.984375 32 l 5
 385.984375 0 l 5
 474.9765625 0 l 6
 514.431196545 -4.83179912951e-15 537.9765625 12.3447265625 537.9765625 63 c 6
 537.9765625 434 l 6
 537.9765625 479.952148438 517.200195312 497 470.9765625 497 c 6
 324.583007812 497 l 6
 282.583007812 497 258.583007812 480 252.583007812 446 c 6
 218.583007812 252.99609375 l 5
 264.997070312 252.99609375 l 6
 279.143554688 252.99609375 283.583007812 245.99609375 283.583007812 231.99609375 c 6
 283.583007812 64 l 6
 283.583007812 37.6572265625 274.131835938 32 246.997070312 32 c 6
 82 32 l 6
 62.9167999542 32 59 40.587890625 59 59.80078125 c 6
 59.00390625 435.999023438 l 6
 59.00390625 459.095703125 65.9169921899 464.998800337 88.806640625 464.999023438 c 6
 185.997070312 465 l 5
 185.997070312 497 l 5
EndSplineSet
EndChar

StartChar: si_Gha
Encoding: 25 3485 442
GlifName: si_G_ha
Width: 576
VWidth: 1000
Flags: HW
LayerCount: 2
Back
Fore
SplineSet
327.219726562 0 m 2
 305 0 276.21875 14.0517578125 276.21875 48 c 2
 276.21875 96.1982421875 l 2
 276.21875 112.592773438 288.333007812 123.6171875 300.735351562 134 c 0
 322.780273438 152.454101562 323.620117188 153 323.8203125 169.600585938 c 18
 323.813476562 188.8046875 l 2
 323.810546875 196.471679688 319 198 312.217773438 198.000976562 c 2
 264.622070312 198.000976562 l 1
 217.40234375 198.000976562 l 2
 211 198.000976562 205.809287023 196.471679452 205.806640625 188.8046875 c 2
 205.799804688 169.600585938 l 10
 206 153 206.839701504 152.454589568 228.884713228 134 c 0
 241.287302641 123.617392811 253.401367188 112.592436207 253.401367188 96.1982421875 c 2
 253.401367188 48 l 2
 253.401367188 14.0517578125 224.56640625 0 202.400390625 0 c 2
 72 0 l 2
 34.9721137159 0 22 16.2730356715 22 54 c 2
 22 266 l 2
 22 286.834733697 29.9174994722 309.934865344 51 322 c 1
 60.1591796875 335.616210938 61.9032707221 353 78 353 c 2
 207.374023438 353 l 1
 207.374023438 435 l 2
 207.374023438 457.979492188 194.637695312 465 171.374023438 465 c 2
 23 465 l 1
 23 497 l 1
 181.374023438 497 l 2
 222.70703125 497 243.374023438 478 243.374023438 440 c 2
 243.374023438 321 l 1
 126.57421875 321 l 2
 72.2767800033 321 59 288 58.875 252 c 18
 59 55.892578125 l 2
 59.0101528412 39.9641980554 66 32 78.494140625 32 c 2
 187.40234375 32 l 2
 213.9921875 32 216.37222551 43.0810589603 216.3984375 66.1943359375 c 2
 216.420898438 87.6015625 l 2
 216.241210938 100.83203125 211.119979524 105.235327471 197.620062187 117 c 0
 175.792151407 136.022207018 168.78515625 139.12347644 168.78515625 157.202148438 c 2
 168.78515625 202 l 2
 168.78515625 217.998831657 179 230.002929688 194.79296875 230.002929688 c 2
 264.622070312 230.002929688 l 1
 334.827148438 230.002929688 l 2
 351 230 360.834960938 217.999023438 360.834960938 202 c 2
 360.834960938 157.202148438 l 2
 360.834960938 139.123046875 353.828125 136.022460938 332 117 c 0
 318.5 105.235351562 313.37890625 100.83203125 313.19921875 87.6015625 c 2
 313.221679688 66.1943359375 l 2
 313.248046875 43.0810546875 316 32 342.217773438 32 c 2
 453.505859375 32 l 2
 466 32 473 39.9638671875 473 55.892578125 c 2
 473 300.20703125 l 2
 473 313.32421875 463.408203125 321 450.0078125 321 c 2
 290.225585938 321 l 1
 290.225585938 440 l 2
 290.225585938 478 310.898464945 497 352.225585938 497 c 2
 509 497 l 1
 509 465 l 1
 362.225585938 465 l 2
 338.963708375 465 326.225585938 457.98046875 326.225585938 435 c 2
 326.225585938 353 l 1
 454 353 l 2
 491.333007812 353 510 334.666992188 510 298 c 2
 510 54 l 2
 510 16.2705078125 497 -4.53119315685e-15 460 0 c 2
 327.219726562 0 l 2
-6 352.9375 m 1
 130.57421875 352.9375 l 1
 130.57421875 321 l 1
 -6 321 l 1
 -6 352.9375 l 1
EndSplineSet
EndChar

StartChar: si_Nnga
Encoding: 27 3487 444
GlifName: si_N_nga
Width: 759
VWidth: 1000
Flags: HW
LayerCount: 2
Back
Fore
SplineSet
344.020507812 497 m 1
 344.020507812 465 l 1
 269.614257812 465 l 2
 233.555664062 465 217.02734375 445.48828125 217.02734375 403 c 2
 217.0234375 59.80078125 l 2
 217.0234375 40.587890625 220.940429688 32 240.0234375 32 c 2
 405.020507812 32 l 2
 432.155273438 32 441.606445312 37.6572265625 441.606445312 64 c 2
 441.606445312 231.99609375 l 2
 441.606445312 245.99609375 437.166992188 252.99609375 423.020507812 252.99609375 c 2
 376.606445312 252.99609375 l 1
 410.606445312 446 l 2
 416.606445312 480 440.606445312 497 482.606445312 497 c 2
 629 497 l 2
 675.223632812 497 696 479.952148438 696 434 c 2
 696 63 l 2
 696 12.3447265625 672.455078125 0 633 0 c 2
 544.0078125 0 l 1
 544.0078125 32 l 1
 624.0234375 32 l 2
 652.10546875 32 659 40.23828125 659 72 c 2
 659 426 l 2
 659 454.592773438 649.9375 465 620.0234375 465 c 2
 487.020507812 465 l 2
 458.514648438 465 448.502929688 454.046875 445.020507812 435 c 2
 417.598632812 285 l 1
 441.606445312 285 l 2
 466.2734375 285 478.606445312 270.666992188 478.606445312 242 c 2
 478.606445312 60 l 2
 478.606445312 12.607421875 459.206054688 0 411.606445312 0 c 2
 228.0234375 0 l 2
 191.384765625 0 180.0234375 19.0517578125 180.0234375 56 c 2
 180.0234375 413 l 2
 180.0234375 475.43359375 228.947265625 497 265.614257812 497 c 2
 344.020507812 497 l 1
116.6015625 465 m 6
 76.890625 465 59 452.739906784 59 412 c 6
 59 0 l 5
 22 0 l 5
 22 424 l 6
 22 476.166015625 58.8512667515 497 105.400390625 497 c 6
 281.614257812 497 l 5
 211.614257812 465 l 5
 116.6015625 465 l 6
EndSplineSet
EndChar

StartChar: si_Ca
Encoding: 28 3488 445
GlifName: si_C_a
Width: 539
VWidth: 1000
Flags: HW
LayerCount: 2
Back
Fore
SplineSet
428.999023438 625 m 2
 480.55859375 625 504.999023438 601.677734375 504.999023438 548 c 2
 504.999023438 400 l 1
 467.999023438 400 l 1
 467.999023438 541 l 2
 467.999023438 579.353515625 458.55859375 593 420.596679688 593 c 2
 66.9990234375 593 l 1
 66.9990234375 625 l 1
 428.999023438 625 l 2
-6 309 m 1
 183.99609375 309 l 1
 183.99609375 277 l 1
 -6.001953125 277 l 1
 -6 309 l 1
504.997070312 415 m 1
 504.997070312 54 l 2
 504.997070312 16.2705078125 492.072265625 0 454.997070312 0 c 2
 116.997070312 0 l 2
 79.9248046875 0 66.9970703125 16.2744140625 66.9970703125 54 c 2
 66.9970703125 226 l 2
 66.9970703125 253.079101562 79.2978515625 273.443359375 97.99609375 282 c 2
 97.99609375 282 137.93359375 309 156.99609375 309 c 2
 248.090820312 309 l 1
 248.090820312 418 l 2
 248.090820312 435.568359375 233.6640625 438 222.997070312 438 c 2
 66.99609375 438 l 1
 66.99609375 470 l 1
 233.997070312 470 l 2
 269.219726562 470 284.9921875 454.405273438 284.993164062 418 c 2
 284.997070312 277 l 1
 166.998046875 277 l 2
 133.543945312 277 104.000976562 265.318359375 104.000976562 220 c 2
 104.000976562 59 l 2
 104.000976562 39.2084075139 111.292782066 32 128 32 c 2
 444 32 l 2
 461.912109375 32 467.997070312 40.3750517528 467.997070312 62 c 2
 467.997070312 415 l 1
 504.997070312 415 l 1
EndSplineSet
EndChar

StartChar: si_Ja
Encoding: 30 3490 447
GlifName: si_J_a
Width: 512
VWidth: 1000
Flags: HW
LayerCount: 2
Back
Fore
SplineSet
344.200195312 489.200195312 m 1
 289.798828125 489.200195312 l 1
 302.1015625 496.045898438 308.92578125 498.24609375 337 524 c 2
 461 643 l 1
 510.999023438 643 l 1
 385.19921875 521 l 2
 364.926757812 501.55859375 352.787109375 493.182617188 344.200195312 489.200195312 c 1
241.399414062 32 m 1
 398.998046875 32 l 2
 420 32 424 42.455078125 424 62 c 2
 424 290 l 2
 424 313.659179688 414.154296875 321 393 321 c 2
 265.000976562 321 l 1
 265.000976562 440 l 2
 265.000976562 478 285.66796875 497 327.000976562 497 c 2
 460 497 l 1
 460 465 l 1
 337.000976562 465 l 2
 310.935546875 465 301.000976562 455.331054688 301.000976562 431 c 2
 301.000976562 353 l 1
 405 353 l 2
 442.333007812 353 461 334.666992188 461 298 c 2
 461 54 l 2
 461 16.2734375 446 0 408.998046875 0 c 2
 241.404296875 0 l 1
 74.001953125 0 l 2
 37 0 22 16.2730356715 22 54 c 2
 22 298 l 2
 22 334.666666667 40.6666666667 353 78 353 c 2
 181.999023438 353 l 1
 181.999023438 431 l 2
 181.999023437 455.330673411 172.064320022 465 145.999023438 465 c 2
 23 465 l 1
 23 497 l 1
 155.999023438 497 l 2
 197.33203125 497 217.999023438 478 217.999023438 440 c 2
 217.999023438 321 l 1
 90 321 l 2
 68.8454399633 321 59 313.65950468 59 290 c 2
 59 62 l 2
 59 42.455325156 63 32 84.001953125 32 c 2
 241.399414062 32 l 1
EndSplineSet
EndChar

StartChar: si_Jha
Encoding: 31 3491 448
GlifName: si_J_ha
Width: 915
VWidth: 0
Flags: HW
LayerCount: 2
Back
Fore
SplineSet
330.994140625 307.80859375 m 6
 330.994140625 326.779296875 321.033203125 332.80859375 305.994140625 332.80859375 c 6
 163 332.809570312 l 5
 71.203125 256 l 5
 97.984375 256 l 5
 97.984375 228.200195312 l 5
 63.9150390625 209.637695312 58.984375 193.123426584 58.984375 146.013671875 c 6
 58.984375 56 l 6
 58.984375 38.6669921875 64.630859375 32 79.3837890625 32 c 6
 133.797851562 32 l 6
 173.903320312 32 176.197265625 61.5810546875 176.197265625 94 c 6
 176.197265625 188 l 5
 213.3984375 188.002929688 l 5
 213.3984375 94 l 6
 213.3984375 61.568359375 213.90234375 32 251.797851562 32 c 6
 305 32 l 6
 326.589120023 32 330.994140625 46.0009765625 330.994140625 64 c 6
 330.994140625 307.80859375 l 6
466 440.999023438 m 5
 380 449.19921875 l 6
 364.33203125 450.546875 351.05859375 451.784179688 339.599609375 451.784179688 c 4
 319.2578125 451.784179688 299.70080985 440.253565592 273 419.801757812 c 6
 201.205078125 364.809570312 l 5
 320.994140625 364.80859375 l 6
 346.368164062 364.80859375 367.994140625 350.016601562 367.994140625 315.80859375 c 6
 367.994140625 52.9990234375 l 6
 367.994140625 19.49609375 344.573242188 -0.0009765625 316.809570312 -0.0009765625 c 6
 230.997070312 0 l 6
 212.040039062 0 198.6640625 9.6669921875 193.997070312 29.0009765625 c 5
 189.330078125 9.6669921875 172.689453125 0 154.997070312 0 c 6
 66.984375 0 l 6
 38.4755859375 0 21.984375 19.74609375 21.984375 46 c 6
 21.984375 156.010742188 l 6
 21.984375 198.780874003 29.92578125 215.780273438 44.783203125 224.799804688 c 5
 12 224.799804688 l 5
 12 252.991210938 l 5
 156.9921875 374.2109375 l 5
 156.831054688 430 l 6
 156.777345124 454.001013717 150.944422432 465 128 465 c 6
 38 465 l 5
 38 497.000976562 l 5
 147.1953125 497 l 6
 175.43359375 497 192.909179688 477.275390625 192.947265625 440.798828125 c 6
 192.995117188 404.206054688 l 5
 254.396484375 450.801757812 l 6
 293.086923339 480.162801228 314.587890625 487.991210938 339 487.991210938 c 4
 353.34375 487.991210938 379.002788603 484.749390234 398 482.991210938 c 6
 657.205078125 459.001953125 l 5
 466 440.999023438 l 5
658.211914062 426.801757812 m 1
 504.025390625 426.801757812 l 2
 477.412109375 426.801757812 470.025390625 412.4375 470.025390625 391 c 2
 470.025390625 58 l 2
 470.025390625 42.228515625 473.981445312 32 493.025390625 32 c 2
 587.013671875 32 l 2
 626.142578125 32 633.013671875 65.515625 633.013671875 100.801757812 c 2
 633.013671875 244.795898438 l 1
 670.212890625 244.795898438 l 1
 670.212890625 101 l 2
 670.212890625 66.1591796875 679.291992188 32 721.013671875 32 c 2
 813.001953125 32 l 2
 829.928710938 32 834.607421875 43.689453125 834.607421875 60 c 2
 834.607421875 554 l 2
 834.607421875 587.453125 819.412109375 594.599609375 791.001953125 594.599609375 c 2
 433.026367188 594.599609375 l 1
 433.026367188 626 l 1
 799.001953125 626 l 2
 841.310546875 626 872 609.263671875 872 560 c 2
 872 50 l 2
 872 19.6376953125 858.3984375 0 825.001953125 0 c 2
 700.81640625 0 l 2
 674.81640625 0 658.482421875 12.3330078125 651.81640625 37 c 1
 648.642578125 16.3779296875 628.0859375 0 604.81640625 0 c 2
 480.025390625 0 l 2
 448.634765625 0 433.025390625 15.017578125 433.025390625 48 c 2
 433.025390625 394 l 2
 433.025390625 432.5546875 451.045898438 459 492.025390625 459 c 2
 658.2109375 459 l 1
 658.211914062 426.801757812 l 1
EndSplineSet
EndChar

StartChar: si_Nya
Encoding: 32 3492 449
GlifName: si_N_ya
Width: 1012
VWidth: 1000
Flags: HW
LayerCount: 2
Back
Fore
SplineSet
480.196289062 307.80859375 m 2
 480.196289062 326.779296875 470.235351562 332.80859375 455.196289062 332.80859375 c 2
 312.202148438 332.809570312 l 1
 220.405273438 256 l 1
 247.186523438 256 l 1
 247.186523438 228.200195312 l 1
 213.1171875 209.637695312 208.186523438 193.123046875 208.186523438 146.013671875 c 2
 208.186523438 56 l 2
 208.186523438 38.6669921875 213.833007812 32 228.5859375 32 c 2
 283 32 l 2
 323.10546875 32 325.399414062 61.5810546875 325.399414062 94 c 2
 325.399414062 188 l 1
 362.600585938 188.002929688 l 1
 362.600585938 94 l 2
 362.600585938 61.568359375 363.104492188 32 401 32 c 2
 454.202148438 32 l 2
 475.791015625 32 480.196289062 46.0009765625 480.196289062 64 c 2
 480.196289062 307.80859375 l 2
591 465 m 1
 551 465 l 2
 531.700195312 465 507.149223758 463.126583216 490 458 c 0
 470.510413742 452.173789601 447.156479589 438.91582914 422.202148438 419.801757812 c 2
 350.407226562 364.809570312 l 1
 470.196289062 364.80859375 l 2
 495.5703125 364.80859375 517.196289062 350.016601562 517.196289062 315.80859375 c 2
 517.196289062 52.9990234375 l 2
 517.196289062 19.49609375 493.775390625 -0.0009765625 466.01171875 -0.0009765625 c 2
 380.19921875 0 l 2
 361.2421875 0 347.866210938 9.6669921875 343.19921875 29.0009765625 c 1
 338.532226562 9.6669921875 321.891601562 0 304.19921875 0 c 2
 216.186523438 0 l 2
 187.677734375 0 171.186523438 19.74609375 171.186523438 46 c 2
 171.186523438 156.010742188 l 2
 171.186523438 198.78125 179.127929688 215.780273438 193.985351562 224.799804688 c 1
 161.202148438 224.799804688 l 1
 161.202148438 252.991210938 l 1
 306.194335938 374.2109375 l 1
 306.033203125 430 l 2
 305.979492188 454.000976562 300.146484375 465 277.202148438 465 c 2
 187.202148438 465 l 1
 187.202148438 497.000976562 l 1
 296.397460938 497 l 2
 324.635742188 497 342.111328125 477.275390625 342.149414062 440.798828125 c 2
 342.197265625 404.206054688 l 1
 408 454 l 2
 434.984006741 474.419214623 455.547392007 483.592857606 471 488.599609375 c 0
 489.380163076 494.554909221 516.087249926 497 538 497 c 2
 591 497 l 1
 591 465 l 1
116.6015625 465 m 2
 76.890625 465 59 452.739906784 59 412 c 2
 59 0 l 1
 22 0 l 1
 22 424 l 2
 22 476.166015625 58.8512667515 497 105.400390625 497 c 2
 281.614257812 497 l 1
 211.614257812 465 l 1
 116.6015625 465 l 2
EndSplineSet
Refer: 460 3503 N 1 0 0 1 555 -1.49012e-08 2
EndChar

StartChar: si_Jnya
Encoding: 33 3493 450
GlifName: si_J_nya
Width: 1006
VWidth: 1000
Flags: HW
LayerCount: 2
Back
Fore
SplineSet
620.0234375 465 m 25
 487.020507812 465 l 2
 458.514648438 465 448.502929688 454.046875 445.020507812 435 c 2
 417.598632812 285 l 1
 441.606445312 285 l 2
 466.2734375 285 478.606445312 270.666992188 478.606445312 242 c 2
 478.606445312 60 l 2
 478.606445312 12.607421875 459.206054688 0 411.606445312 0 c 2
 228.0234375 0 l 2
 191.384765625 0 180.0234375 19.0517578125 180.0234375 56 c 2
 180.0234375 413 l 2
 180.0234375 475.43359375 228.947265625 497 265.614257812 497 c 2
 344.020507812 497 l 1
 344.020507812 465 l 1
 269.614257812 465 l 2
 233.555664062 465 217.02734375 445.48828125 217.02734375 403 c 2
 217.0234375 59.80078125 l 2
 217.0234375 40.587890625 220.940429688 32 240.0234375 32 c 2
 405.020507812 32 l 2
 432.155273438 32 441.606445312 37.6572265625 441.606445312 64 c 2
 441.606445312 231.99609375 l 2
 441.606445312 245.99609375 437.166992188 252.99609375 423.020507812 252.99609375 c 2
 376.606445312 252.99609375 l 1
 410.606445312 446 l 2
 416.606445312 480 440.622823043 497 482.606445312 497 c 2
 619.999023438 497 l 25
 620.0234375 465 l 25
116.6015625 465 m 2
 76.890625 465 59 452.739906784 59 412 c 2
 59 0 l 1
 22 0 l 1
 22 424 l 2
 22 476.166015625 58.8512667515 497 105.400390625 497 c 2
 281.614257812 497 l 1
 211.614257812 465 l 1
 116.6015625 465 l 2
EndSplineSet
Refer: 460 3503 N 1 0 0 1 550 0 2
EndChar

StartChar: si_Ndja
Encoding: 34 3494 451
GlifName: si_N_dja
Width: 683
VWidth: 1000
Flags: HW
LayerCount: 2
Back
Fore
SplineSet
116.6015625 465 m 2
 76.890625 465 59 452.739906784 59 412 c 2
 59 0 l 1
 22 0 l 1
 22 424 l 2
 22 476.166015625 58.8512667515 497 105.400390625 497 c 2
 281.614257812 497 l 1
 211.614257812 465 l 1
 116.6015625 465 l 2
EndSplineSet
Refer: 447 3490 N 1 0 0 1 161.8 -2.98023e-08 2
EndChar

StartChar: si_Tta
Encoding: 35 3495 452
GlifName: si_T_ta
Width: 515
VWidth: 1000
Flags: HW
LayerCount: 2
Back
Fore
SplineSet
240 415.004882812 m 1
 87 415.004882812 l 2
 71.1669921875 415.004882812 59 408.98046875 59 387.004882812 c 2
 59 58 l 2
 59 43.3330078125 60.9580078125 32 78 32 c 2
 400.799804688 32 l 2
 416.448242188 32 423 40.7400135297 423 61 c 2
 423 415 l 1
 460 415 l 1
 460 54 l 2
 460 16.2705078125 445.075195312 0 408 0 c 2
 72 0 l 2
 34.9276648127 0 22 16.2730356715 22 54 c 2
 22 392.004882812 l 2
 22 428.671875 40.6669921875 447.004882812 78 447.004882812 c 2
 240 447.004882812 l 1
 240 415.004882812 l 1
384 625 m 6
 435.559388454 625 460 601.67809046 460 548 c 6
 460 400 l 5
 423 400 l 5
 423 541 l 6
 423 579.353797161 413.55957244 593 375.59765625 593 c 6
 22 593 l 5
 22 625 l 5
 384 625 l 6
EndSplineSet
EndChar

StartChar: si_Ttha
Encoding: 36 3496 453
GlifName: si_T_tha
Width: 515
VWidth: 1000
Flags: HW
LayerCount: 2
Back
Fore
SplineSet
262.431640625 594 m 5
 262.431640625 482.198242188 l 6
 262.431640625 460.841796875 268.491210938 459.40234375 285.000976562 459.40234375 c 6
 424.00390625 459.40234375 l 5
 424.004882812 558 l 6
 424.004882812 582.92578125 418.459960938 594 387.002929688 594 c 6
 262.431640625 594 l 5
461.000976562 394 m 5
 424.001953125 394 l 5
 424.001953125 427.014648438 l 5
 270.998046875 427.014648438 l 6
 237.706054688 427.014648438 225.21484375 437.986328125 225.21484375 474.400390625 c 6
 225.21484375 595 l 5
 159.59765625 595 l 5
 159.59765625 626 l 29
 395 626 l 6
 442.559570312 626 461.000976562 610.567382812 461.000976562 559 c 6
 461.000976562 394 l 5
460.974609375 462 m 25
 460.974609375 50 l 2
 460.974609375 19.6376953125 447.373046875 0 413.9765625 0 c 2
 289.791015625 0 l 2
 263.791015625 0 247.45703125 12.3330078125 240.791015625 37 c 1
 237.6171875 16.3779296875 217.060546875 0 193.791015625 0 c 2
 69 0 l 2
 37.6095578425 0 22 15.0175781253 22 48 c 2
 22 287.998046875 l 2
 22 326.552734375 40.0205078125 352.998046875 81 352.998046875 c 2
 247.185546875 352.998046875 l 1
 247.186523438 320.799804688 l 1
 93 320.799804688 l 2
 66.38671875 320.799804688 59 306.435546875 59 284.998046875 c 2
 59 58 l 2
 59 42.2284315137 62.9557877295 32 82 32 c 2
 175.98828125 32 l 2
 215.1171875 32 221.98828125 65.515625 221.98828125 100.801757812 c 2
 221.98828125 200 l 1
 259.1875 200 l 1
 259.1875 101 l 2
 259.1875 66.1591796875 268.266601562 32 309.98828125 32 c 2
 402.376953125 32 l 2
 419.303710938 32 423.982421875 43.689453125 423.982421875 60 c 2
 423.982421875 461.799804688 l 25
 460.974609375 462 l 25
EndSplineSet
EndChar

StartChar: si_Dda
Encoding: 37 3497 454
GlifName: si_D_da
Width: 513
VWidth: 1000
Flags: HW
LayerCount: 2
Back
Fore
SplineSet
-6 352.9375 m 1
 130.57421875 352.9375 l 1
 130.57421875 321 l 1
 -6 321 l 1
 -6 352.9375 l 1
69.998046875 0 m 2
 33 0 22 16.2730356715 22 54 c 2
 22 266 l 2
 22 286.834733697 29.9174994722 309.934865344 51 322 c 1
 60.1591796875 335.616210938 61.9032707221 353 78 353 c 2
 207.374023438 353 l 1
 207.374023438 435 l 2
 207.374023438 457.979492188 194.637695312 465 171.374023438 465 c 2
 23 465 l 1
 23 497 l 1
 181.374023438 497 l 2
 222.70703125 497 243.374023438 478 243.374023438 440 c 2
 243.374023438 321 l 1
 126.57421875 321 l 2
 72.2767800033 321 59 288 58.875 252 c 18
 59 55.892578125 l 2
 59.0101528412 39.9641980554 65.7998046875 32 79.193359375 32 c 2
 182.399414062 32 l 2
 206 32 222.401367188 38.9306640625 222.401367188 78 c 2
 222.401367188 176.1953125 l 1
 259.3984375 176.1953125 l 1
 259.3984375 78.001953125 l 2
 259.3984375 39.5283203125 276.04296875 32 301.400390625 32 c 2
 395.3984375 32 l 2
 417.689453125 32 422.797851562 42.2314453125 422.797851562 62 c 2
 422.797851562 552 l 2
 422.797851562 583.04296875 409.478515625 594 378.998046875 594 c 2
 22.0009765625 594 l 1
 22.0009765625 626 l 1
 386.998046875 626 l 2
 429.306640625 626 459.99609375 609.263671875 459.99609375 560 c 2
 459.99609375 50 l 2
 459.99609375 19.6376953125 446.39453125 -4.08988976926e-15 412.998046875 0 c 2
 290.202148438 0 l 2
 264.2109375 0 246.166015625 8.126953125 241.202148438 28 c 1
 236.973632812 9.8193359375 217 0 194.202148438 0 c 2
 69.998046875 0 l 2
EndSplineSet
EndChar

StartChar: si_Nndda
Encoding: 40 3500 457
GlifName: si_N_ndda
Width: 697
VWidth: 1000
Flags: HW
LayerCount: 2
Back
Fore
SplineSet
116.6015625 465 m 2
 76.890625 465 59 452.739906784 59 412 c 2
 59 0 l 1
 22 0 l 1
 22 424 l 2
 22 476.166015625 58.8512667515 497 105.400390625 497 c 2
 281.614257812 497 l 1
 211.614257812 465 l 1
 116.6015625 465 l 2
EndSplineSet
Refer: 454 3497 N 1 0 0 1 182 1.49012e-08 2
EndChar

StartChar: si_Ta
Encoding: 41 3501 458
GlifName: si_T_a
Width: 592
VWidth: 1000
Flags: HW
LayerCount: 2
Back
Fore
SplineSet
319.000976562 307.80859375 m 6
 319.000976562 326.779296875 309.040039062 332.80859375 294.000976562 332.80859375 c 6
 163 332.809570312 l 1
 71.203125 256 l 1
 97.984375 256 l 1
 97.984375 228.200195312 l 1
 63.9150390625 209.637695312 58.984375 193.123426584 58.984375 146.013671875 c 2
 58.984375 56 l 2
 58.984375 38.6669921875 64.630859375 32 79.3837890625 32 c 2
 293.006835938 32 l 6
 314.595703125 32 319.000976562 46.0009765625 319.000976562 64 c 6
 319.000976562 307.80859375 l 6
192.995117188 404.206054688 m 1
 274.005859375 472 l 2
 297.624494819 491.765285891 320.747070312 497 339.208984375 497 c 2
 481.59765625 497 l 2
 516.822265625 497 537.985351562 474.330543237 537.985351562 441 c 2
 537.985351562 54 l 2
 537.985351562 19.2628786929 515.11858435 -3.56599811205e-15 486 0 c 2
 385.799804688 0 l 1
 385.799804688 31.9970703125 l 1
 475.19921875 31.998046875 l 2
 492.206976043 31.9982326608 500.9765625 43.8652398548 500.9765625 63 c 2
 500.9765625 432 l 2
 500.9765625 452.243699974 491.239500008 465 468.59765625 465 c 2
 355.815429688 465 l 2
 328.594726562 465 312.182924806 457.315613392 292.609375 441 c 2
 201.205078125 364.809570312 l 1
 309.000976562 364.80859375 l 6
 334.375 364.80859375 356.000976562 350.016601562 356.000976562 315.80859375 c 6
 356.000976562 52.9990234375 l 6
 356.000976562 19.49609375 332.580078125 -0.0009765625 304.81640625 -0.0009765625 c 6
 66.984375 0 l 2
 38.475585938 0.000117554745323 21.984375 19.74609375 21.984375 46 c 2
 21.984375 156.010742188 l 2
 21.984375 198.780874003 29.92578125 215.780273438 44.783203125 224.799804688 c 1
 12 224.799804688 l 1
 12 252.991210938 l 1
 156.9921875 374.2109375 l 1
 156.831054688 430 l 2
 156.777345124 454.001013717 150.944422432 465 128 465 c 2
 38 465 l 1
 38 497.000976562 l 1
 147.1953125 497 l 2
 175.43359375 497 192.909179688 477.275390625 192.947265625 440.798828125 c 2
 192.995117188 404.206054688 l 1
EndSplineSet
EndChar

StartChar: si_Tha
Encoding: 42 3502 459
GlifName: si_T_ha
Width: 512
VWidth: 1000
Flags: HW
LayerCount: 2
Back
Fore
SplineSet
262.431640625 594 m 1
 262.431640625 482.198242188 l 2
 262.431640625 460.841796875 268.491210938 459.40234375 285.000976562 459.40234375 c 2
 424.00390625 459.40234375 l 1
 424.004882812 558 l 2
 424.004882812 582.92578125 418.459960938 594 387.002929688 594 c 2
 262.431640625 594 l 1
461.000976562 394 m 1
 424.001953125 394 l 1
 424.001953125 427.014648438 l 1
 270.998046875 427.014648438 l 2
 237.706054688 427.014648438 225.21484375 437.986328125 225.21484375 474.400390625 c 2
 225.21484375 595 l 1
 159.59765625 595 l 1
 159.59765625 626 l 25
 395 626 l 2
 442.559570312 626 461.000976562 610.567382812 461.000976562 559 c 2
 461.000976562 394 l 1
197 362 m 1
 87 362 l 2
 71.1669921875 362 59 355.975585938 59 334 c 2
 59 58 l 2
 59 43.3330078125 60.9580078125 32 78 32 c 2
 401.80078125 32 l 2
 417.44921875 32 424.000976562 40.740234375 424.000976562 61 c 2
 424.000976562 415 l 1
 461.000976562 415 l 1
 461.000976562 54 l 2
 461.000976562 16.2705078125 446.076171875 0 409.000976562 0 c 2
 72 0 l 2
 34.9276648127 0 22 16.2730356715 22 54 c 2
 22 339 l 2
 22 375.666992188 40.6669921875 394 78 394 c 2
 197 394 l 1
 197 362 l 1
EndSplineSet
EndChar

StartChar: si_Da
Encoding: 43 3503 460
GlifName: si_D_a
Width: 460
VWidth: 1000
Flags: HW
LayerCount: 2
Back
Fore
SplineSet
408 0.0009765625 m 1
 212 0 l 2
 178.898831381 -0.000164925306019 146.200195312 -16.4448932548 146.200195312 -52 c 2
 146.200195312 -118 l 130
 146.200195312 -137.752422685 157.03125 -140 170 -140 c 2
 431 -140 l 1
 431 -171 l 1
 161 -171 l 2
 132.812834951 -171 109 -159.62247684 109 -126 c 2
 109 -48 l 2
 109 -30.02734375 115.947209371 -10.9575636878 138 0 c 1
 66 0 l 2
 32.306640625 0 22 17.9256114795 22 49.599609375 c 2
 22 295.998046875 l 2
 22 336.654296875 43.1064453125 352.998046875 80 352.998046875 c 2
 366.795898438 352.998046875 l 1
 366.794921875 436 l 2
 366.794921875 457.28515625 358.271484375 465 340 465 c 2
 22 465 l 1
 22 497.000976562 l 1
 351 497 l 2
 384.564453125 497 404 480.913085938 404 444 c 2
 404 321.000976562 l 1
 91 321 l 2
 66.6040831691 320.999923885 59 311.275979821 59 290 c 2
 59 58.0009765625 l 2
 59 38.1591796875 67.0478515625 32 82.2001953125 32 c 2
 408 32.0009765625 l 1
 408 0.0009765625 l 1
EndSplineSet
EndChar

StartChar: si_Dha
Encoding: 44 3504 461
GlifName: si_D_ha
Width: 515
VWidth: 1000
Flags: HW
LayerCount: 2
Back
Fore
SplineSet
247.186523438 464.799804688 m 5
 93 464.799804688 l 6
 66.38671875 464.799804688 59 450.435546875 59 428.998046875 c 6
 59 58 l 2
 59 42.2284315138 62.9557877295 32 82 32 c 2
 175.98828125 32 l 2
 215.1171875 32 221.98828125 65.515625 221.98828125 100.801757812 c 2
 221.98828125 244.795898438 l 1
 259.1875 244.795898438 l 1
 259.1875 101 l 2
 259.1875 66.1591796875 268.266601562 32 309.98828125 32 c 2
 401.9765625 32 l 2
 418.903320312 32 423.58203125 43.689453125 423.58203125 60 c 2
 423.58203125 554 l 2
 423.58203125 587.453125 408.38671875 594.599609375 379.9765625 594.599609375 c 2
 22.0009765625 594.599609375 l 1
 22.0009765625 626 l 1
 387.9765625 626 l 2
 430.28515625 626 460.974609375 609.263671875 460.974609375 560 c 2
 460.974609375 50 l 2
 460.974609375 19.6376953125 447.373046875 0 413.9765625 0 c 2
 289.791015625 0 l 2
 263.791015625 0 247.45703125 12.3330078125 240.791015625 37 c 1
 237.6171875 16.3779296875 217.060546875 0 193.791015625 0 c 2
 69 0 l 2
 37.6095578425 0 22 15.0175781255 22 48 c 2
 22 431.998046875 l 6
 22 470.552734375 40.0205078125 496.998046875 81 496.998046875 c 6
 247.185546875 496.998046875 l 5
 247.186523438 464.799804688 l 5
EndSplineSet
EndChar

StartChar: si_Na
Encoding: 45 3505 462
GlifName: si_N_a
Width: 591
VWidth: 1000
Flags: HW
LayerCount: 2
Back
Fore
SplineSet
213.197265625 360 m 5
 178 316 l 5
 178 431.795898438 l 6
 178 457.849395235 168.270507812 465 146.598632812 465 c 6
 22 465 l 5
 22 497 l 5
 155.59765625 497 l 6
 198.9296875 497 213.197265625 482.112304688 213.197265625 439 c 6
 213.197265625 360 l 5
182 291.5 m 5
 210 324.059570312 l 5
 308 324 l 6
 343.001953125 323.981445312 356 309.198242188 356 276.072265625 c 6
 356 60 l 6
 356 12.607421875 336.599609375 0 289 0 c 6
 70 0 l 6
 33.361328125 0 22 14.0517578125 22 51 c 6
 22 341.25 l 5
 58.875 341.25 l 5
 58.875 214 l 5
 58.875 194 l 5
 58.875 56 l 6
 58.875 38.8638305664 62.2272529602 32 82 32 c 6
 286 32 l 6
 313.784179688 32 319 40.9619140625 319 66 c 6
 319 267 l 6
 319 286.298828125 309.581054688 291.5 293 291.5 c 6
 182 291.5 l 5
98.5 191.703125 m 6
 88.60546875 180.352539062 79.3583984375 176.901367188 72.5 176.901367188 c 4
 64.37109375 176.901367188 58.8828125 179.36328125 56 182.5 c 5
 56 182.986328125 55.875 224 55.875 224 c 5
 58.05859375 221.135742188 62.337890625 217 68 217 c 4
 75.7841796875 217 80.2939453125 222.200195312 86 228.5 c 6
 270 440 l 6
 292.493953155 465.855821154 317.209628214 497 355 497 c 6
 471.000976562 497 l 6
 517.224609375 497 538.000976562 479.952148438 538.000976562 434 c 6
 538.000976562 67 l 6
 538.000976562 18.2900390625 524.134765625 -6.01715375054e-15 475.000976562 0 c 6
 386 0 l 5
 386 32 l 5
 470.000976562 32 l 6
 499.373046875 32 501.000976562 47.439453125 501.000976562 71 c 6
 501.000976562 430 l 6
 501.000976562 453.71368558 490.607421875 465 464.000976562 465 c 6
 379 465 l 6
 344.311523438 465 331.194335938 458.682617188 310.598632812 435.000976562 c 6
 98.5 191.703125 l 6
EndSplineSet
EndChar

StartChar: si_Nda
Encoding: 46 3507 463
GlifName: si_N_da
Width: 620
VWidth: 0
Flags: HW
LayerCount: 2
Back
Fore
SplineSet
116.6015625 465 m 2
 76.890625 465 59 452.739906784 59 412 c 2
 59 0 l 1
 22 0 l 1
 22 424 l 2
 22 476.166015625 58.8512667515 497 105.400390625 497 c 2
 281.614257812 497 l 1
 211.614257812 465 l 1
 116.6015625 465 l 2
EndSplineSet
Refer: 460 3503 N 1 0 0 1 161 0 2
EndChar

StartChar: si_Pa
Encoding: 47 3508 464
GlifName: si_P_a
Width: 509
VWidth: 1000
Flags: HW
LayerCount: 2
Back
Fore
SplineSet
241.399414062 32 m 5
 398.998046875 32 l 6
 420 32 424 42.455078125 424 62 c 6
 424 290 l 6
 424 313.659179688 414.154296875 321 393 321 c 6
 265.000976562 321 l 5
 265.000976562 440 l 6
 265.000976562 478 285.66796875 497 327.000976562 497 c 6
 460 497 l 5
 460 465 l 5
 337.000976562 465 l 6
 310.935546875 465 301.000976562 455.331054688 301.000976562 431 c 6
 301.000976562 353 l 5
 405 353 l 6
 442.333007812 353 461 334.666992188 461 298 c 6
 461 54 l 6
 461 16.2734375 446 0 408.998046875 0 c 6
 241.404296875 0 l 5
 74.001953125 0 l 6
 37 0 22 16.2730356715 22 54 c 6
 22 298 l 6
 22 334.666666667 40.6666666667 353 78 353 c 6
 181.999023438 353 l 5
 181.999023438 431 l 6
 181.999023437 455.330673411 172.064320022 465 145.999023438 465 c 6
 23 465 l 5
 23 497 l 5
 155.999023438 497 l 6
 197.33203125 497 217.999023438 478 217.999023438 440 c 6
 217.999023438 321 l 5
 90 321 l 6
 68.8454399633 321 59 313.65950468 59 290 c 6
 59 62 l 6
 59 42.455325156 63 32 84.001953125 32 c 6
 241.399414062 32 l 5
EndSplineSet
EndChar

StartChar: si_Pha
Encoding: 48 3509 465
GlifName: si_P_ha
Width: 514
VWidth: 1000
Flags: HW
LayerCount: 2
Back
Fore
SplineSet
262.431640625 594 m 1
 262.431640625 482.198242188 l 2
 262.431640625 460.841796875 268.491210938 459.40234375 285.000976562 459.40234375 c 2
 424.00390625 459.40234375 l 1
 424.004882812 558 l 2
 424.004882812 582.92578125 418.459960938 594 387.002929688 594 c 2
 262.431640625 594 l 1
461.000976562 394 m 1
 424.001953125 394 l 1
 424.001953125 427.014648438 l 1
 270.998046875 427.014648438 l 2
 237.706054688 427.014648438 225.21484375 437.986328125 225.21484375 474.400390625 c 2
 225.21484375 595 l 1
 159.59765625 595 l 1
 159.59765625 626 l 25
 395 626 l 2
 442.559570312 626 461.000976562 610.567382812 461.000976562 559 c 2
 461.000976562 394 l 1
461.000976562 415 m 5
 461.000976562 54 l 6
 461.000976562 16.2705078125 446.076171875 0 409.000976562 0 c 6
 72 0 l 2
 34.9276648127 0 22 16.2730356715 22 54 c 2
 22 238 l 2
 22 274.666666667 40.6666666667 293 78 293 c 2
 203.09375 293 l 1
 203.09375 360 l 2
 203.09375 377.568684816 188.666992188 380 178 380 c 2
 21.9990234375 380 l 1
 21.9990234375 412 l 1
 189 412 l 2
 224.222351074 412 239.994140625 396.405273438 239.99609375 360 c 2
 240 261 l 1
 87 261 l 2
 71.1673599821 261 59 254.975965666 59 233 c 2
 59 58 l 2
 59 43.3330078125 60.9580078125 32 78 32 c 2
 401.80078125 32 l 6
 417.44921875 32 424.000976562 40.740234375 424.000976562 61 c 6
 424.000976562 415 l 5
 461.000976562 415 l 5
EndSplineSet
EndChar

StartChar: si_Ba
Encoding: 49 3510 466
GlifName: si_B_a
Width: 515
VWidth: 1000
Flags: HW
LayerCount: 2
Back
Fore
SplineSet
384 625 m 2
 435.559388454 625 460 601.67809046 460 548 c 2
 460 400 l 1
 423 400 l 1
 423 541 l 2
 423 579.353797161 413.55957244 593 375.59765625 593 c 2
 22 593 l 1
 22 625 l 1
 384 625 l 2
215.001953125 54 m 2
 214.001953125 409 l 2
 213.94526822 429.123141125 206.54817282 438 188 438 c 2
 85 438 l 2
 64.3493616418 438 59 428.125 59 408.799804688 c 2
 59 60 l 2
 59 37.8392692046 64.4793850643 32 82 32 c 2
 172 32 l 1
 172 0 l 1
 72 0 l 2
 34.9276648127 0 22 16.2730356715 22 54 c 2
 22 415.015625 l 2
 22 451.682617188 40.6669921875 470.015625 78 470.015625 c 2
 196.602539062 470.015625 l 2
 228.73046875 470.015625 251.602539062 455.802734375 251.602539062 416.4140625 c 2
 251.602539062 62 l 2
 251.602539062 41.9085984042 255.225199987 32 277 32 c 2
 402 32 l 2
 418.514176021 32 423.00390625 39.3470866492 423.00390625 58 c 2
 423.00390625 415 l 1
 460.000976562 415 l 1
 460.000976562 54 l 2
 460.000976562 16.2705078125 447.076171875 -4.54040192672e-15 410.000976562 0 c 2
 267.001953125 0 l 2
 230.254882812 0 215.106934117 16.7317477239 215.001953125 54 c 2
EndSplineSet
EndChar

StartChar: si_Va
Encoding: 56 3520 473
GlifName: si_V_a
Width: 514
VWidth: 1000
Flags: HW
LayerCount: 2
Back
Fore
SplineSet
460 415 m 1
 460 54 l 2
 460 16.2705078125 445.075195312 0 408 0 c 2
 72 0 l 2
 34.9276648127 0 22 16.2751523681 22 54 c 2
 22 298 l 2
 22 334.666992188 40.6669921875 353 78 353 c 2
 203.09375 353 l 1
 203.09375 445.001953125 l 2
 203.09375 462.555564664 188.666992188 465.001953125 178 465.001953125 c 2
 21.9990234375 465.001953125 l 1
 21.9990234375 497.001953125 l 1
 189 497.001953125 l 2
 224.22265625 497.001953125 239.994947378 481.39296676 239.99609375 445.001953125 c 2
 240 321 l 1
 87 321 l 2
 71.1669921875 321 59 314.975585938 59 293 c 2
 59 58 l 2
 59 43.333889123 60.9580078125 32 78 32 c 2
 400.799804688 32 l 2
 416.448242188 32 423 40.7400135297 423 61 c 2
 423 415 l 1
 460 415 l 1
384 625 m 2
 435.559388454 625 460 601.67809046 460 548 c 2
 460 400 l 1
 423 400 l 1
 423 541 l 2
 423 579.353797161 413.55957244 593 375.59765625 593 c 2
 22 593 l 1
 22 625 l 1
 384 625 l 2
EndSplineSet
EndChar

StartChar: si_Sa
Encoding: 59 3523 476
GlifName: si_S_a
Width: 565
VWidth: 1000
Flags: HW
LayerCount: 2
Back
Fore
SplineSet
248.313476562 165 m 1
 285.286132812 165 l 1
 285.286132812 93 l 2
 285.286132812 62.4384765625 297.731743946 32 332.799804688 32 c 2
 453.505859375 32 l 2
 466.499023438 32 473 39.9638671875 473 55.892578125 c 2
 473 300.20703125 l 2
 473 313.32421875 463.408203125 321 450.0078125 321 c 2
 290.225585938 321 l 1
 290.225585938 440 l 2
 290.225585938 478 310.898464945 497 352.225585938 497 c 2
 509 497 l 1
 509 465 l 1
 362.225585938 465 l 2
 338.963708375 465 326.225585938 457.98046875 326.225585938 435 c 2
 326.225585938 353 l 1
 454 353 l 2
 491.333007812 353 510 334.666992188 510 298 c 2
 510 54 l 2
 510 16.2705078125 497.07421875 0 460 0 c 2
 318.799804688 0 l 2
 300.773628688 0 275.46875 10.994140625 266.799804688 34.724609375 c 1
 258.130859375 10.994140625 232.829101562 0 214.799804688 0 c 2
 72 0 l 2
 34.9721137159 0 22 16.2730356715 22 54 c 2
 22 266 l 2
 22 286.834733697 29.9174994722 309.934865344 51 322 c 1
 60.1591796875 335.616210938 61.9032707221 353 78 353 c 2
 207.374023438 353 l 1
 207.374023438 435 l 2
 207.374023438 457.979492188 194.637695312 465 171.374023438 465 c 2
 23 465 l 1
 23 497 l 1
 181.374023438 497 l 2
 222.70703125 497 243.374023438 478 243.374023438 440 c 2
 243.374023438 321 l 1
 126.57421875 321 l 2
 72.2767800033 321 59 288 58.875 252 c 18
 59 55.892578125 l 2
 59.0101528412 39.9641980554 65.5217569509 32 78.494140625 32 c 2
 200.799804688 32 l 2
 235.875976562 32 248.313476562 62.4384765625 248.313476562 93 c 2
 248.313476562 165 l 1
-6 352.9375 m 1
 130.57421875 352.9375 l 1
 130.57421875 321 l 1
 -6 321 l 1
 -6 352.9375 l 1
EndSplineSet
EndChar

StartChar: si_Ha
Encoding: 60 3524 477
GlifName: si_H_a
Width: 590
VWidth: 1000
Flags: HW
LayerCount: 2
Back
Fore
SplineSet
59 59.6005859375 m 2
 59 40.3876953125 62.9167999542 32 82 32 c 2
 250 32 l 2
 277.13421235 32 286.5859375 37.6574094039 286.5859375 64 c 2
 286.5859375 231.99609375 l 2
 286.5859375 245.99609375 282.146319381 252.99609375 268 252.99609375 c 2
 221.5859375 252.99609375 l 1
 255.5859375 446 l 2
 261.5859375 480 285.5859375 497 327.5859375 497 c 2
 470.9765625 497 l 2
 517.200195312 497 537.9765625 479.952148438 537.9765625 434 c 2
 537.9765625 64 l 2
 537.9765625 15.2900390625 517.6832617 -5.23006224773e-15 474.9765625 0 c 2
 385.984375 0 l 1
 385.984375 32 l 1
 469.27734375 32 l 2
 493.839138851 32 500.9765625 41.862055849 500.9765625 68.9013671875 c 2
 500.9765625 426 l 2
 500.9765625 454.592836392 491.913897409 465 462 465 c 2
 332 465 l 2
 303.494131 465 293.481971505 454.046681735 290 435 c 2
 262.578125 285 l 1
 286.5859375 285 l 2
 311.252929688 285 323.5859375 270.666992188 323.5859375 242 c 2
 323.5859375 60 l 2
 323.5859375 12.6075428641 304.185545721 0 256.5859375 0 c 2
 70 0 l 2
 37.0673331538 0 22 15.2025000141 22 51 c 2
 22 298 l 2
 22 334.666992188 40.3330078125 353 77 353 c 2
 148.790039062 353 l 1
 148.790039062 423.797851562 l 2
 148.790039063 455.255360022 137.000976562 464.999023438 108.7890625 464.999023438 c 2
 22 464.999023438 l 1
 22 497 l 1
 119.790039062 497 l 2
 163.790039062 497 185.790039062 475 185.790039062 431 c 2
 185.790039062 321 l 1
 88.806640625 321 l 2
 65.9169921875 321 59.0042934652 315.09661142 59.00390625 292 c 2
 59 59.6005859375 l 2
EndSplineSet
EndChar

StartChar: si_Halant
Encoding: 63 3530 480
GlifName: si_H_alant
Width: 2
VWidth: 1000
Flags: HW
LayerCount: 2
Back
Fore
SplineSet
-81.3994140625 492 m 1
 -81.3994140625 649 l 1
 -44.609375 649 l 1
 -44.609375 438 l 1
 -46.9755859375 443.674804688 -53.3994453578 463.085579698 -58 472 c 128
 -62.00032768 479.751370228 -73.2704920615 492 -79 492 c 2
 -81.3994140625 492 l 1
EndSplineSet
EndChar

StartChar: si_MatraAa
Encoding: 64 3535 481
GlifName: si_M_atraA_a
Width: 232
VWidth: 1000
Flags: HW
LayerCount: 2
Back
Fore
SplineSet
21 497 m 1
 151 497 l 2
 180.994140625 497 192 482.086914062 192 455.002929688 c 2
 192 38 l 2
 192 12.6669921875 178.333007812 0 151 0 c 2
 21 0 l 1
 21 32.0029296875 l 1
 139.000976562 32.0029296875 l 2
 151.87890625 32.0029296875 155 38.3203125 155 51.2001953125 c 2
 155 449 l 2
 155 460.333007812 150.6015625 466 138.6015625 466 c 2
 21 466 l 1
 21 497 l 1
EndSplineSet
EndChar

StartChar: si_MatraAe
Encoding: 65 3536 482
GlifName: si_M_atraA_e
Width: 250
VWidth: 1000
Flags: HW
LayerCount: 2
Back
SplineSet
22 479 m 5
 220 479 l 5
 220 370 l 5
 154 208.999023438 l 6
 148.09346416 194.590568312 146 179.099294767 146 160 c 6
 146 126 l 6
 146 113.333007812 152.666992188 107 166 107 c 6
 220 107.000976562 l 5
 220 0.0009765625 l 5
 57 0 l 6
 36.3330078125 0 22 12.0009765625 22 36.0009765625 c 6
 22 166 l 6
 22 194.757501056 25.9845616952 215.707572806 36 238 c 6
 98 376 l 5
 22 376 l 5
 22 479 l 5
EndSplineSet
Fore
SplineSet
22 497 m 5
 202 496.999023438 l 5
 202 463.999023438 l 5
 73.40234375 271.000976562 l 6
 62.4443359375 254.5546875 59 236.951171875 59 214.19921875 c 6
 59 50.9990234375 l 2
 59 38.33203125 65.6669921875 31.9990234375 79 31.9990234375 c 2
 202 31.9990234375 l 1
 202 0 l 1
 57 0 l 2
 36.3330078125 0 22 12.0009765625 22 36.0009765625 c 2
 22 209 l 6
 22 237.7578125 23.7265625 261.522460938 40 286 c 6
 159 464.998046875 l 5
 22 464.999023438 l 5
 22 497 l 5
EndSplineSet
EndChar

StartChar: si_MatraAae
Encoding: 66 3537 483
GlifName: si_M_atraA_ae
Width: 248
VWidth: 1000
Flags: HW
LayerCount: 2
Back
Fore
SplineSet
22.0009765625 497 m 1
 204 496.999023438 l 1
 204 465.998046875 l 1
 78 360.98046875 l 1
 204 360.979492188 l 1
 204 330.185546875 l 1
 85.0048828125 226.787109375 l 2
 62.7504444151 207.449558288 59 199.603755714 59 169.380859375 c 2
 59 51 l 2
 59 33.9755859375 59.3769531259 32.0001268238 76 32 c 2
 204 31.9990234375 l 1
 204 0 l 1
 52.0009765625 0.0009765625 l 2
 32.0009765633 0.00110505839134 22.0011297498 12.0009765638 22.0009765625 36.0009765625 c 2
 22 175.186523438 l 2
 22 202.186523438 24.6782145273 222.807146231 49.603515625 244.590820312 c 2
 149.201171875 329.185546875 l 5
 22.0009765625 329.186523438 l 1
 22.0009765625 357.98046875 l 1
 149.603515625 464.998046875 l 1
 22.0009765625 464.997070312 l 1
 22.0009765625 497 l 1
EndSplineSet
EndChar

StartChar: si_MatraI
Encoding: 67 3538 484
GlifName: si_M_atraI_
Width: 2
VWidth: 0
Flags: HW
LayerCount: 2
Back
Fore
SplineSet
-560.805664062 511 m 5
 -560.805664062 595.802734375 l 6
 -560.805664062 625.796875 -543.889648438 640 -516.805664062 640 c 6
 -108 640 l 6
 -82.6669921875 640 -67 628.565429688 -67 597 c 6
 -67 511 l 5
 -104.000976562 511 l 5
 -104.000976562 587 l 6
 -104.000976562 599.877929688 -109.165904281 608.005859375 -124 608.005859375 c 6
 -505.795898438 608.005859375 l 6
 -518.91015625 608.005859375 -524 600 -524 588 c 6
 -524 511 l 5
 -560.805664062 511 l 5
EndSplineSet
EndChar

StartChar: si_MatraIi
Encoding: 68 3539 485
GlifName: si_M_atraI_i
Width: 515
VWidth: 1000
Flags: HW
LayerCount: 2
Back
Fore
SplineSet
-243.192382812 608 m 2
 -253.192382812 608 -258.192382812 604 -258.192382812 596 c 2
 -258.192382812 556 l 2
 -258.192382812 547.333007812 -256.859375 543 -246.192382812 543 c 2
 -108.192382812 543 l 2
 -97.525390625 543 -96.1923828125 547.666992188 -96.1923828125 557 c 2
 -96.1923828125 592.196289062 l 2
 -96.1923828125 602.60546875 -101.859375 608 -113.192382812 608 c 2
 -243.192382812 608 l 2
-498.991210938 608.0078125 m 2
 -510.438476562 608.0078125 -518.192382812 602 -518.192382812 590 c 2
 -518.192382812 511 l 1
 -554.998046875 511 l 1
 -554.998046875 595.802734375 l 2
 -554.998046875 625.796875 -537.38671875 640.010742188 -510.192382812 640.010742188 c 2
 -101.192382812 640.01171875 l 2
 -73.392578125 640.01171875 -59.193359375 626.66015625 -59.193359375 600 c 2
 -59.193359375 540.99609375 l 2
 -59.193359375 521 -69.1953125 510.99609375 -89.193359375 510.99609375 c 2
 -267.595703125 510.994140625 l 2
 -290.87109375 510.994140625 -295.395507812 521.301757812 -295.395507812 537 c 2
 -295.395507812 600 l 2
 -295.395507812 604.53125 -294.578125 607.008789062 -292.99609375 608 c 1
 -498.991210938 608.0078125 l 2
EndSplineSet
EndChar

StartChar: si_MatraU
Encoding: 69 3540 486
GlifName: si_M_atraU_
Width: 2
VWidth: 1000
Flags: HW
LayerCount: 2
Back
Fore
SplineSet
-54 -159 m 1
 -489.407226562 -159 l 1
 -489.407226562 -126.904296875 l 1
 -91.087890625 -126.904296875 l 1
 -91.087890625 28 l 1
 -86.087890625 28 l 2
 -77.6259765625 28 -59.3330078125 38 -54 64 c 1
 -54 -159 l 1
EndSplineSet
EndChar

StartChar: si_MatraUu
Encoding: 70 3542 487
GlifName: si_M_atraU_u
Width: 2
VWidth: 0
Flags: HW
LayerCount: 2
Back
Fore
SplineSet
-582 -148 m 256
 -582 -90 -533 -50 -480 -50 c 256
 -438 -50 -405.667 -65 -383 -101 c 257
 -413 -112 l 257
 -425 -93 -446 -78 -475 -78 c 256
 -514 -78 -546 -102 -546 -139 c 256
 -546 -176.366 -515 -201 -472 -201 c 256
 -388 -201 -305 -127 -210 -127 c 256
 -167 -127 -118 -146 -91 -178 c 257
 -91 142 l 257
 -58 202 l 257
 -58 -241 l 257
 -81 -241 l 257
 -96 -205 -139 -154 -207 -154 c 256
 -298 -154 -373 -247 -471 -247 c 256
 -526 -247 -582 -216 -582 -148 c 256
EndSplineSet
EndChar

StartChar: si_MatraR
Encoding: 71 3544 488
GlifName: si_M_atraR_
Width: 346
VWidth: 1000
Flags: HW
LayerCount: 2
Back
Fore
SplineSet
22 497.000976562 m 5
 249 497 l 6
 281.666992188 497 298 481.333007812 298 450 c 6
 298 0 l 5
 274.200195312 0 l 5
 265.0078125 38.798828125 l 5
 255.3203125 14.5869140625 235.920898438 0 212.000976562 0 c 6
 59 0 l 6
 34.1572265625 0 22 13.87109375 22 42 c 6
 22 280 l 6
 22 310.313476562 42.0732421875 323.000976562 64.6005859375 323.000976562 c 6
 261.009765625 322.999023438 l 5
 261.009765625 439 l 6
 261.009765625 459.208007812 255.836914062 465 235.6015625 465 c 6
 22 465 l 5
 22 497.000976562 l 5
261.009765625 291.203125 m 5
 76.798828125 291.204101562 l 6
 63.8203125 291.204101562 59 287.586914062 59 269.204101562 c 6
 59.00390625 51.400390625 l 6
 59.0041868462 36.0569682777 62.3990399813 32 77 32 c 6
 188.000976562 32 l 6
 239.904296875 32 261.009765625 66.359375 261.009765625 139 c 6
 261.009765625 291.203125 l 5
EndSplineSet
EndChar

StartChar: si_MatraE
Encoding: 72 3545 489
GlifName: si_M_atraE_
Width: 376
VWidth: 1000
Flags: HW
LayerCount: 2
Back
Fore
SplineSet
326 497 m 1
 75 497 l 2
 41.7041015625 497 22 477.08102403 22 445 c 2
 22 46 l 2
 22 17.814453125 35.5401032215 0 68 0 c 2
 280.19921875 0 l 2
 313.547851562 0 331 19.123046875 331 48.6005859375 c 2
 331 273.391601562 l 2
 331 306.295898438 314.158203125 323.391601562 278 323.391601562 c 2
 168 323.391601562 l 1
 168 291.397460938 l 1
 264 291.396484375 l 2
 286.54296875 291.396484375 293.999023438 283.271484375 293.999023438 260 c 2
 293.999023438 56 l 2
 293.999023438 39.521484375 284.36328125 32 268.799804688 32 c 2
 79 32 l 2
 66.3330078125 32 58.9990234375 37.5604662013 58.9990234375 56 c 2
 58.9990234375 434.798828125 l 2
 58.9990234375 454.426757812 65.3115234379 465.000103994 90.400390625 465 c 2
 326 464.999023438 l 1
 326 497 l 1
EndSplineSet
EndChar

StartChar: si_MatraLs
Encoding: 78 3551 495
GlifName: si_M_atraL_s
Width: 355
VWidth: 1000
Flags: HW
LayerCount: 2
Back
Fore
SplineSet
22 497 m 5
 22 296.592773438 l 6
 22 273.958007812 35.0068359375 263.592773438 55 263.592773438 c 6
 135.599609375 263.592773438 l 6
 161.569335938 263.592773438 177.599609375 271.499023438 177.599609375 298.592773438 c 6
 177.599609375 441.19921875 l 6
 177.599609375 459.72265625 182.34765625 465 197.203125 465 c 6
 249.998046875 465 l 6
 263.571289062 465 269.793945312 457.214253057 269.793945312 443 c 6
 269.793945312 58 l 6
 269.793945312 39.45703125 261.142578125 32 246.794921875 32 c 6
 83.0048828125 32 l 6
 66.509765625 32 59 37.58203125 59 56.99609375 c 6
 59 147 l 5
 22 147 l 5
 22 47 l 6
 22 16.337216203 38.088683974 0 62 0 c 6
 259 0 l 6
 287.586914062 0 307 16.755859375 307 46 c 6
 307 456 l 6
 307 478.213867188 290.729492188 497 265 497 c 6
 176.80859375 497 l 6
 153.830078125 497 140.2109375 481.420898438 140.2109375 453 c 6
 140.2109375 315.180664062 l 6
 140.2109375 297.911200024 132.799804688 296.185546875 118.196289062 296.185546875 c 6
 79.0029296875 296.185546875 l 6
 63.75390625 296.185546875 59 297.743680026 59 315.182617188 c 6
 59 497 l 5
 22 497 l 5
EndSplineSet
EndChar

StartChar: si_MatraLl
Encoding: 79 3571 497
GlifName: si_M_atraL_l
Width: 355
VWidth: 1000
Flags: HW
LayerCount: 2
Back
Fore
SplineSet
22 497 m 1
 22 296.592773438 l 2
 22 273.958007812 35.0068359375 263.592773438 55 263.592773438 c 2
 135.599609375 263.592773438 l 2
 161.569335938 263.592773438 177.599609375 271.499023438 177.599609375 298.592773438 c 2
 177.599609375 441.19921875 l 2
 177.599609375 459.72265625 182.34765625 465 197.203125 465 c 2
 249.998046875 465 l 6
 263.571289062 465 269.793945312 457.214253057 269.793945312 443 c 2
 269.793945312 58 l 2
 269.793945312 39.45703125 261.142578125 32 246.794921875 32 c 2
 83.0048828125 32 l 2
 66.509765625 32 59 37.58203125 59 56.99609375 c 2
 59 147 l 1
 22 147 l 1
 22 47 l 2
 22 16.337216203 38.088683974 0 62 0 c 2
 259 0 l 2
 287.586914062 0 307 16.755859375 307 46 c 2
 307 456 l 2
 307 478.213867188 290.729492188 497 265 497 c 2
 176.80859375 497 l 2
 153.830078125 497 140.2109375 481.420898438 140.2109375 453 c 2
 140.2109375 315.180664062 l 2
 140.2109375 297.911200024 132.799804688 296.185546875 118.196289062 296.185546875 c 2
 79.0029296875 296.185546875 l 2
 63.75390625 296.185546875 59 297.743680026 59 315.182617188 c 2
 59 497 l 1
 22 497 l 1
EndSplineSet
EndChar

StartChar: dottedcircle
Encoding: 84 9676 499
GlifName: dottedcircle
Width: 558
VWidth: 0
Flags: W
LayerCount: 2
Back
Fore
SplineSet
106.419 96 m 256
 107.142 110.667 114.76 118 129.272 118 c 256
 144.811 118 152.193 110.667 151.419 96 c 256
 150.697 81.333 143.079 74 128.567 74 c 256
 113.028 74 105.646 81.333 106.419 96 c 256
64.1611 163.5 m 256
 64.8246 178.5 72.0733 186 85.9072 186 c 256
 100.791 186 107.875 178.5 107.161 163.5 c 256
 106.497 148.5 99.2467 141 85.4131 141 c 256
 70.5292 141 63.4462 148.5 64.1611 163.5 c 256
171.504 53 m 256
 172.225 67.667 179.676 75 193.855 75 c 256
 209.061 75 216.277 67.667 215.504 53 c 256
 214.782 38.333 207.331 31 193.151 31 c 256
 177.945 31 170.729 38.333 171.504 53 c 256
247.883 37 m 256
 248.605 51.667 255.889 59 269.735 59 c 256
 284.609 59 291.658 51.667 290.883 37 c 256
 290.162 22.333 282.878 15 269.031 15 c 256
 254.158 15 247.109 22.333 247.883 37 c 256
49.5 240 m 256
 49.9003 254.667 57.3511 262 71.8525 262 c 256
 87.3918 262 94.7749 254.667 94 240 c 256
 93.2768 225.333 85.826 218 71.6475 218 c 256
 56.4532 218 49.0711 225.333 49.5 240 c 256
67.3389 316.5 m 256
 68.3265 331.5 75.7425 339 89.5869 339 c 256
 104.485 339 111.402 331.5 110.339 316.5 c 256
 109.356 301.5 102.44 294 89.5928 294 c 256
 73.6983 294 66.281 301.5 67.3389 316.5 c 256
326.504 53 m 256
 327.225 67.667 334.676 75 348.855 75 c 256
 364.061 75 371.277 67.667 370.504 53 c 256
 369.782 38.333 362.331 31 348.151 31 c 256
 332.945 31 325.729 38.333 326.504 53 c 256
112.187 383.5 m 256
 113.29 397.833 120.943 405 135.145 405 c 256
 150.354 405 157.368 397.833 156.187 383.5 c 256
 155.084 369.167 147.431 362 133.228 362 c 256
 118.019 362 111.006 369.167 112.187 383.5 c 256
393.919 96 m 256
 394.963 110.667 402.414 118 416.272 118 c 256
 431.159 118 438.041 110.667 436.919 96 c 256
 435.876 81.333 428.425 74 414.567 74 c 256
 399.68 74 392.798 81.333 393.919 96 c 256
178.391 427.5 m 256
 179.056 442.5 186.473 450 200.639 450 c 256
 215.855 450 223.105 442.5 222.391 427.5 c 256
 221.727 412.5 214.311 405 200.145 405 c 256
 184.929 405 177.677 412.5 178.391 427.5 c 256
437.661 163.5 m 256
 438.648 178.5 446.398 186 460.907 186 c 256
 476.47 186 483.72 178.5 482.661 163.5 c 256
 481.672 148.5 473.923 141 459.413 141 c 256
 443.851 141 436.6 148.5 437.661 163.5 c 256
256.223 442.5 m 256
 256.886 457.5 264.135 465 277.969 465 c 256
 292.852 465 299.937 457.5 299.223 442.5 c 256
 298.557 427.5 291.308 420 277.475 420 c 256
 262.591 420 255.507 427.5 256.223 442.5 c 256
454.5 240 m 256
 454.9 254.667 462.351 262 476.853 262 c 256
 492.392 262 499.775 254.667 499 240 c 256
 498.277 225.333 490.826 218 476.647 218 c 256
 461.453 218 454.071 225.333 454.5 240 c 256
333.391 427.5 m 256
 334.056 442.5 341.473 450 355.639 450 c 256
 370.855 450 378.105 442.5 377.391 427.5 c 256
 376.727 412.5 369.311 405 355.145 405 c 256
 339.929 405 332.677 412.5 333.391 427.5 c 256
440.839 316.5 m 256
 441.504 331.5 449.087 339 463.587 339 c 256
 479.136 339 486.553 331.5 485.839 316.5 c 256
 485.174 301.5 477.592 294 463.093 294 c 256
 447.543 294 440.126 301.5 440.839 316.5 c 256
397.687 383.5 m 256
 398.468 397.833 406.12 405 420.645 405 c 256
 436.174 405 443.522 397.833 442.687 383.5 c 256
 441.906 369.167 434.253 362 419.728 362 c 256
 404.199 362 396.852 369.167 397.687 383.5 c 256
EndSplineSet
EndChar

